Michroma-Round.ufo
<glyph name="exclam" format="1">
  <advance width="448"/>
  <unicode hex="0021"/>
  <outline>
    <contour>
      <point x="225" y="1536" type="line" smooth="yes"/>
      <point x="281.614" y="1536"/>
      <point x="318.308" y="1497.65"/>
      <point x="315.813" y="1441.09" type="curve" smooth="yes"/>
      <point x="274.072" y="494.954" type="line" smooth="yes"/>
      <point x="272.812" y="466.415"/>
      <point x="253.567" y="448"/>
      <point x="225" y="448" type="curve" smooth="yes"/>
      <point x="223" y="448" type="line" smooth="yes"/>
      <point x="194.433" y="448"/>
      <point x="175.188" y="466.415"/>
      <point x="173.928" y="494.954" type="curve" smooth="yes"/>
      <point x="132.187" y="1441.09" type="line" smooth="yes"/>
      <point x="129.692" y="1497.65"/>
      <point x="166.386" y="1536"/>
      <point x="223" y="1536" type="curve" smooth="yes"/>
    </contour>
    <contour>
      <point x="223" y="-1.16341e-14" type="line" smooth="yes"/>
      <point x="165.805" y="-4.62983e-15"/>
      <point x="128" y="37.8055"/>
      <point x="128" y="95" type="curve" smooth="yes"/>
      <point x="128" y="97" type="line" smooth="yes"/>
      <point x="128" y="154.195"/>
      <point x="165.805" y="192"/>
      <point x="223" y="192" type="curve" smooth="yes"/>
      <point x="225" y="192" type="line" smooth="yes"/>
      <point x="282.195" y="192"/>
      <point x="320" y="154.195"/>
      <point x="320" y="97" type="curve" smooth="yes"/>
      <point x="320" y="95" type="line" smooth="yes"/>
      <point x="320" y="37.8055"/>
      <point x="282.195" y="4.62983e-15"/>
      <point x="225" y="1.16341e-14" type="curve" smooth="yes"/>
    </contour>
  </outline>
</glyph>
<glyph name="quotedbl" format="1">
  <advance width="768"/>
  <unicode hex="0022"/>
  <outline>
    <contour>
      <point x="225" y="1536" type="line" smooth="yes"/>
      <point x="281.073" y="1536"/>
      <point x="316.767" y="1497.21"/>
      <point x="312.111" y="1441.33" type="curve" smooth="yes"/>
      <point x="293.232" y="1214.78" type="line" smooth="yes"/>
      <point x="290.027" y="1176.32"/>
      <point x="263.596" y="1152"/>
      <point x="225" y="1152" type="curve" smooth="yes"/>
      <point x="223" y="1152" type="line" smooth="yes"/>
      <point x="184.404" y="1152"/>
      <point x="157.973" y="1176.32"/>
      <point x="154.768" y="1214.78" type="curve" smooth="yes"/>
      <point x="135.889" y="1441.33" type="line" smooth="yes"/>
      <point x="131.233" y="1497.21"/>
      <point x="166.927" y="1536"/>
      <point x="223" y="1536" type="curve" smooth="yes"/>
    </contour>
    <contour>
      <point x="545" y="1536" type="line" smooth="yes"/>
      <point x="601.073" y="1536"/>
      <point x="636.767" y="1497.21"/>
      <point x="632.111" y="1441.33" type="curve" smooth="yes"/>
      <point x="613.232" y="1214.78" type="line" smooth="yes"/>
      <point x="610.027" y="1176.32"/>
      <point x="583.596" y="1152"/>
      <point x="545" y="1152" type="curve" smooth="yes"/>
      <point x="543" y="1152" type="line" smooth="yes"/>
      <point x="504.404" y="1152"/>
      <point x="477.973" y="1176.32"/>
      <point x="474.768" y="1214.78" type="curve" smooth="yes"/>
      <point x="455.889" y="1441.33" type="line" smooth="yes"/>
      <point x="451.233" y="1497.21"/>
      <point x="486.927" y="1536"/>
      <point x="543" y="1536" type="curve" smooth="yes"/>
    </contour>
  </outline>
</glyph>
<glyph name="numbersign" format="1">
  <advance width="1536"/>
  <unicode hex="0023"/>
  <outline>
    <contour>
      <point x="550" y="320" type="line" smooth="yes"/>
      <point x="534.891" y="320"/>
      <point x="523.862" y="311.37"/>
      <point x="520.228" y="296.704" type="curve" smooth="yes"/>
      <point x="434.846" y="-47.8996" type="line" smooth="yes"/>
      <point x="423.032" y="-95.5833"/>
      <point x="383.012" y="-118.403"/>
      <point x="335.958" y="-104.287" type="curve" smooth="yes"/>
      <point x="334.042" y="-103.713" type="line" smooth="yes"/>
      <point x="285.952" y="-89.2855"/>
      <point x="262.764" y="-48.632"/>
      <point x="274.826" y="0.105437" type="curve" smooth="yes"/>
      <point x="348.234" y="296.703" type="line" smooth="yes"/>
      <point x="351.466" y="309.76"/>
      <point x="343.451" y="320"/>
      <point x="330" y="320" type="curve" smooth="yes"/>
      <point x="207" y="320" type="line" smooth="yes"/>
      <point x="159.438" y="320"/>
      <point x="128" y="351.438"/>
      <point x="128" y="399" type="curve" smooth="yes"/>
      <point x="128" y="401" type="line" smooth="yes"/>
      <point x="128" y="448.562"/>
      <point x="159.438" y="480"/>
      <point x="207" y="480" type="curve" smooth="yes"/>
      <point x="369" y="480" type="line" smooth="yes"/>
      <point x="384.114" y="480"/>
      <point x="395.155" y="488.621"/>
      <point x="398.821" y="503.283" type="curve" smooth="yes"/>
      <point x="483.179" y="840.717" type="line" smooth="yes"/>
      <point x="486.439" y="853.757"/>
      <point x="478.442" y="864"/>
      <point x="465" y="864" type="curve" smooth="yes"/>
      <point x="271" y="864" type="line" smooth="yes"/>
      <point x="223.438" y="864"/>
      <point x="192" y="895.438"/>
      <point x="192" y="943" type="curve" smooth="yes"/>
      <point x="192" y="945" type="line" smooth="yes"/>
      <point x="192" y="992.562"/>
      <point x="223.438" y="1024"/>
      <point x="271" y="1024" type="curve" smooth="yes"/>
      <point x="504" y="1024" type="line" smooth="yes"/>
      <point x="519.114" y="1024"/>
      <point x="530.155" y="1032.62"/>
      <point x="533.821" y="1047.28" type="curve" smooth="yes"/>
      <point x="619.985" y="1391.94" type="line" smooth="yes"/>
      <point x="631.906" y="1439.62"/>
      <point x="671.965" y="1462.41"/>
      <point x="719.042" y="1448.29" type="curve" smooth="yes"/>
      <point x="720.958" y="1447.71" type="line" smooth="yes"/>
      <point x="769.025" y="1433.29"/>
      <point x="792.157" y="1392.63"/>
      <point x="779.985" y="1343.94" type="curve" smooth="yes"/>
      <point x="705.821" y="1047.28" type="line" smooth="yes"/>
      <point x="702.561" y="1034.24"/>
      <point x="710.558" y="1024"/>
      <point x="724" y="1024" type="curve" smooth="yes"/>
      <point x="985" y="1024" type="line" smooth="yes"/>
      <point x="1000.11" y="1024"/>
      <point x="1011.16" y="1032.62"/>
      <point x="1014.82" y="1047.28" type="curve" smooth="yes"/>
      <point x="1100.99" y="1391.94" type="line" smooth="yes"/>
      <point x="1112.91" y="1439.62"/>
      <point x="1152.96" y="1462.41"/>
      <point x="1200.04" y="1448.29" type="curve" smooth="yes"/>
      <point x="1201.96" y="1447.71" type="line" smooth="yes"/>
      <point x="1250.02" y="1433.29"/>
      <point x="1273.16" y="1392.63"/>
      <point x="1260.99" y="1343.94" type="curve" smooth="yes"/>
      <point x="1186.82" y="1047.28" type="line" smooth="yes"/>
      <point x="1183.56" y="1034.24"/>
      <point x="1191.56" y="1024"/>
      <point x="1205" y="1024" type="curve" smooth="yes"/>
      <point x="1329" y="1024" type="line" smooth="yes"/>
      <point x="1376.56" y="1024"/>
      <point x="1408" y="992.562"/>
      <point x="1408" y="945" type="curve" smooth="yes"/>
      <point x="1408" y="943" type="line" smooth="yes"/>
      <point x="1408" y="895.438"/>
      <point x="1376.56" y="864"/>
      <point x="1329" y="864" type="curve" smooth="yes"/>
      <point x="1166" y="864" type="line" smooth="yes"/>
      <point x="1150.89" y="864"/>
      <point x="1139.84" y="855.379"/>
      <point x="1136.18" y="840.717" type="curve" smooth="yes"/>
      <point x="1051.82" y="503.283" type="line" smooth="yes"/>
      <point x="1048.56" y="490.243"/>
      <point x="1056.56" y="480"/>
      <point x="1070" y="480" type="curve" smooth="yes"/>
      <point x="1265" y="480" type="line" smooth="yes"/>
      <point x="1312.56" y="480"/>
      <point x="1344" y="448.562"/>
      <point x="1344" y="401" type="curve" smooth="yes"/>
      <point x="1344" y="399" type="line" smooth="yes"/>
      <point x="1344" y="351.438"/>
      <point x="1312.56" y="320"/>
      <point x="1265" y="320" type="curve" smooth="yes"/>
      <point x="1031" y="320" type="line" smooth="yes"/>
      <point x="1015.89" y="320"/>
      <point x="1004.86" y="311.37"/>
      <point x="1001.23" y="296.704" type="curve" smooth="yes"/>
      <point x="915.846" y="-47.8996" type="line" smooth="yes"/>
      <point x="904.032" y="-95.5833"/>
      <point x="864.012" y="-118.403"/>
      <point x="816.958" y="-104.287" type="curve" smooth="yes"/>
      <point x="815.042" y="-103.713" type="line" smooth="yes"/>
      <point x="766.952" y="-89.2855"/>
      <point x="743.764" y="-48.632"/>
      <point x="755.826" y="0.105437" type="curve" smooth="yes"/>
      <point x="829.234" y="296.703" type="line" smooth="yes"/>
      <point x="832.466" y="309.76"/>
      <point x="824.451" y="320"/>
      <point x="811" y="320" type="curve" smooth="yes"/>
    </contour>
    <contour>
      <point x="850" y="480" type="line" smooth="yes"/>
      <point x="865.114" y="480"/>
      <point x="876.155" y="488.621"/>
      <point x="879.821" y="503.283" type="curve" smooth="yes"/>
      <point x="964.179" y="840.717" type="line" smooth="yes"/>
      <point x="967.439" y="853.757"/>
      <point x="959.442" y="864"/>
      <point x="946" y="864" type="curve" smooth="yes"/>
      <point x="685" y="864" type="line" smooth="yes"/>
      <point x="669.886" y="864"/>
      <point x="658.845" y="855.379"/>
      <point x="655.179" y="840.717" type="curve" smooth="yes"/>
      <point x="570.821" y="503.283" type="line" smooth="yes"/>
      <point x="567.561" y="490.243"/>
      <point x="575.558" y="480"/>
      <point x="589" y="480" type="curve" smooth="yes"/>
    </contour>
  </outline>
</glyph>
<glyph name="dollar" format="1">
  <advance width="2018"/>
  <unicode hex="0024"/>
  <outline>
    <contour>
      <point x="832" y="-36" type="line" smooth="yes"/>
      <point x="554" y="-36"/>
      <point x="365" y="-2"/>
      <point x="265" y="66" type="curve" smooth="yes"/>
      <point x="187.874" y="118.197"/>
      <point x="148.377" y="187.387"/>
      <point x="134.688" y="289.174" type="curve" smooth="yes"/>
      <point x="127.767" y="340.643"/>
      <point x="165.683" y="384"/>
      <point x="216.936" y="384" type="curve"/>
      <point x="210.903" y="384" type="line"/>
      <point x="280.735" y="384"/>
      <point x="314.211" y="357.467"/>
      <point x="330.157" y="289.48" type="curve" smooth="yes"/>
      <point x="344.378" y="228.849"/>
      <point x="376.225" y="190.233"/>
      <point x="433" y="166" type="curve" smooth="yes"/>
      <point x="473" y="149"/>
      <point x="525" y="138"/>
      <point x="590" y="134" type="curve" smooth="yes"/>
      <point x="655" y="130"/>
      <point x="736" y="128"/>
      <point x="832" y="128" type="curve" smooth="yes"/>
      <point x="889" y="128" type="line" smooth="yes"/>
      <point x="903.407" y="128"/>
      <point x="913" y="137.593"/>
      <point x="913" y="152" type="curve" smooth="yes"/>
      <point x="913" y="696.5" type="line" smooth="yes"/>
      <point x="913" y="700.88"/>
      <point x="909.88" y="704"/>
      <point x="905.5" y="704" type="curve" smooth="yes"/>
      <point x="896" y="704" type="line" smooth="yes"/>
      <point x="568" y="704"/>
      <point x="352" y="742"/>
      <point x="248" y="816" type="curve" smooth="yes"/>
      <point x="152" y="884"/>
      <point x="128" y="978"/>
      <point x="128" y="1130" type="curve" smooth="yes"/>
      <point x="128" y="1291"/>
      <point x="170" y="1382"/>
      <point x="280" y="1453" type="curve" smooth="yes"/>
      <point x="389.088" y="1523.13"/>
      <point x="592.095" y="1561.95"/>
      <point x="889.02" y="1567.62" type="curve" smooth="yes"/>
      <point x="903.524" y="1567.89"/>
      <point x="913" y="1577.55"/>
      <point x="913" y="1592.06" type="curve" smooth="yes"/>
      <point x="913" y="1617" type="line" smooth="yes"/>
      <point x="913" y="1645.3"/>
      <point x="931.704" y="1664"/>
      <point x="960" y="1664" type="curve" smooth="yes"/>
      <point x="1058" y="1664" type="line" smooth="yes"/>
      <point x="1086.3" y="1664"/>
      <point x="1105" y="1645.3"/>
      <point x="1105" y="1617" type="curve" smooth="yes"/>
      <point x="1105" y="1590.5" type="line" smooth="yes"/>
      <point x="1105" y="1576.99"/>
      <point x="1113.99" y="1568"/>
      <point x="1127.5" y="1568" type="curve" smooth="yes"/>
      <point x="1152" y="1568" type="line" smooth="yes"/>
      <point x="1428" y="1568"/>
      <point x="1618" y="1534"/>
      <point x="1720" y="1468" type="curve" smooth="yes"/>
      <point x="1797.03" y="1417.43"/>
      <point x="1836.52" y="1348.08"/>
      <point x="1850.26" y="1246.78" type="curve" smooth="yes"/>
      <point x="1857.23" y="1195.4"/>
      <point x="1819.32" y="1152"/>
      <point x="1768.11" y="1152" type="curve"/>
      <point x="1774.1" y="1152" type="line"/>
      <point x="1704.27" y="1152"/>
      <point x="1670.79" y="1178.53"/>
      <point x="1654.84" y="1246.52" type="curve" smooth="yes"/>
      <point x="1640.62" y="1307.15"/>
      <point x="1608.78" y="1345.77"/>
      <point x="1552" y="1370" type="curve" smooth="yes"/>
      <point x="1512" y="1387"/>
      <point x="1459" y="1398"/>
      <point x="1394" y="1402" type="curve" smooth="yes"/>
      <point x="1329" y="1406"/>
      <point x="1248" y="1408"/>
      <point x="1152" y="1408" type="curve" smooth="yes"/>
      <point x="1127.5" y="1408" type="line" smooth="yes"/>
      <point x="1113.99" y="1408"/>
      <point x="1105" y="1399.01"/>
      <point x="1105" y="1385.5" type="curve" smooth="yes"/>
      <point x="1105" y="888" type="line" smooth="yes"/>
      <point x="1105" y="873.593"/>
      <point x="1114.59" y="864"/>
      <point x="1129" y="864" type="curve" smooth="yes"/>
      <point x="1160" y="864" type="line" smooth="yes"/>
      <point x="1457" y="864"/>
      <point x="1652" y="826"/>
      <point x="1745" y="749" type="curve" smooth="yes"/>
      <point x="1834" y="675"/>
      <point x="1856" y="577"/>
      <point x="1856" y="424" type="curve" smooth="yes"/>
      <point x="1856" y="322"/>
      <point x="1837" y="241"/>
      <point x="1799" y="180" type="curve" smooth="yes"/>
      <point x="1731" y="72"/>
      <point x="1587" y="5"/>
      <point x="1367" y="-21" type="curve" smooth="yes"/>
      <point x="1298.12" y="-29.2661"/>
      <point x="1218.27" y="-34.158"/>
      <point x="1129" y="-35.6756" type="curve" smooth="yes"/>
      <point x="1114.48" y="-35.9223"/>
      <point x="1105" y="-45.568"/>
      <point x="1105" y="-60.0848" type="curve" smooth="yes"/>
      <point x="1105" y="-83" type="line" smooth="yes"/>
      <point x="1105" y="-110.092"/>
      <point x="1087.09" y="-128"/>
      <point x="1060" y="-128" type="curve" smooth="yes"/>
      <point x="958" y="-128" type="line" smooth="yes"/>
      <point x="930.908" y="-128"/>
      <point x="913" y="-110.092"/>
      <point x="913" y="-83" type="curve" smooth="yes"/>
      <point x="913" y="-60" type="line" smooth="yes"/>
      <point x="913" y="-45.5934"/>
      <point x="903.407" y="-36"/>
      <point x="889" y="-36" type="curve" smooth="yes"/>
    </contour>
    <contour>
      <point x="913" y="1384.04" type="line" smooth="yes"/>
      <point x="913" y="1398.36"/>
      <point x="903.296" y="1407.89"/>
      <point x="888.979" y="1407.62" type="curve" smooth="yes"/>
      <point x="674.08" y="1403.63"/>
      <point x="527.087" y="1384.69"/>
      <point x="448" y="1349" type="curve" smooth="yes"/>
      <point x="363" y="1311"/>
      <point x="320" y="1243"/>
      <point x="320" y="1144" type="curve" smooth="yes"/>
      <point x="320" y="1061"/>
      <point x="329" y="1006"/>
      <point x="348" y="980" type="curve" smooth="yes"/>
      <point x="395" y="916"/>
      <point x="441" y="903"/>
      <point x="546" y="882" type="curve" smooth="yes"/>
      <point x="607" y="870"/>
      <point x="723" y="864"/>
      <point x="896" y="864" type="curve" smooth="yes"/>
      <point x="905.5" y="864" type="line" smooth="yes"/>
      <point x="909.88" y="864"/>
      <point x="913" y="867.12"/>
      <point x="913" y="871.5" type="curve" smooth="yes"/>
    </contour>
    <contour>
      <point x="1105" y="151.878" type="line" smooth="yes"/>
      <point x="1105" y="137.592"/>
      <point x="1114.69" y="128.026"/>
      <point x="1128.98" y="128.212" type="curve" smooth="yes"/>
      <point x="1327.1" y="130.793"/>
      <point x="1465.14" y="153.648"/>
      <point x="1544" y="195" type="curve" smooth="yes"/>
      <point x="1626" y="238"/>
      <point x="1664" y="306"/>
      <point x="1664" y="424" type="curve" smooth="yes"/>
      <point x="1664" y="535"/>
      <point x="1644" y="603"/>
      <point x="1572" y="645" type="curve" smooth="yes"/>
      <point x="1505" y="684"/>
      <point x="1368" y="704"/>
      <point x="1160" y="704" type="curve" smooth="yes"/>
      <point x="1129" y="704" type="line" smooth="yes"/>
      <point x="1114.59" y="704"/>
      <point x="1105" y="694.407"/>
      <point x="1105" y="680" type="curve" smooth="yes"/>
    </contour>
  </outline>
</glyph>
<glyph name="ampersand" format="1">
  <advance width="2432"/>
  <unicode hex="0026"/>
  <outline>
    <contour>
      <point x="1066" y="1568" type="curve" smooth="yes"/>
      <point x="1160" y="1568" type="line" smooth="yes"/>
      <point x="1397" y="1568"/>
      <point x="1646" y="1560"/>
      <point x="1735" y="1421" type="curve" smooth="yes"/>
      <point x="1763.84" y="1376.22"/>
      <point x="1781.74" y="1307.24"/>
      <point x="1788.69" y="1214.93" type="curve" smooth="yes"/>
      <point x="1792.75" y="1161.07"/>
      <point x="1754.65" y="1120"/>
      <point x="1700.84" y="1120" type="curve"/>
      <point x="1701.13" y="1120" type="line"/>
      <point x="1638.94" y="1120"/>
      <point x="1602.36" y="1153.06"/>
      <point x="1596.09" y="1214.94" type="curve" smooth="yes"/>
      <point x="1583.13" y="1342.97"/>
      <point x="1534.52" y="1380.52"/>
      <point x="1401" y="1397" type="curve" smooth="yes"/>
      <point x="1342" y="1404"/>
      <point x="1240" y="1408"/>
      <point x="1096" y="1408" type="curve" smooth="yes"/>
      <point x="952" y="1408"/>
      <point x="847" y="1407"/>
      <point x="782" y="1405" type="curve" smooth="yes"/>
      <point x="637" y="1401"/>
      <point x="512" y="1378"/>
      <point x="512" y="1239" type="curve" smooth="yes"/>
      <point x="512" y="1175"/>
      <point x="519" y="1152"/>
      <point x="546" y="1117" type="curve" smooth="yes"/>
      <point x="571" y="1084"/>
      <point x="614" y="1053"/>
      <point x="672" y="1024" type="curve" smooth="yes"/>
      <point x="2228.13" y="230.68" type="line" smooth="yes"/>
      <point x="2274.68" y="206.947"/>
      <point x="2291.78" y="161.445"/>
      <point x="2272.37" y="112.928" type="curve" smooth="yes"/>
      <point x="2271.63" y="111.072" type="line" smooth="yes"/>
      <point x="2252.96" y="64.4058"/>
      <point x="2208.79" y="47.6243"/>
      <point x="2163.85" y="70.124" type="curve" smooth="yes"/>
      <point x="659.661" y="823.157" type="line" smooth="yes"/>
      <point x="647.393" y="829.299"/>
      <point x="629.734" y="833.082"/>
      <point x="616.027" y="832.504" type="curve" smooth="yes"/>
      <point x="424.291" y="824.428"/>
      <point x="320" y="717.706"/>
      <point x="320" y="515" type="curve" smooth="yes"/>
      <point x="320" y="360"/>
      <point x="350" y="271"/>
      <point x="464" y="232" type="curve" smooth="yes"/>
      <point x="501" y="219"/>
      <point x="547" y="210"/>
      <point x="604" y="204" type="curve" smooth="yes"/>
      <point x="680" y="196"/>
      <point x="801" y="192"/>
      <point x="967" y="192" type="curve" smooth="yes"/>
      <point x="1133" y="192"/>
      <point x="1250" y="193"/>
      <point x="1316" y="194" type="curve" smooth="yes"/>
      <point x="1476" y="196"/>
      <point x="1624" y="203"/>
      <point x="1699" y="286" type="curve" smooth="yes"/>
      <point x="1740" y="331"/>
      <point x="1760" y="406"/>
      <point x="1760" y="512" type="curve" smooth="yes"/>
      <point x="1760" y="673" type="line" smooth="yes"/>
      <point x="1760" y="730.195"/>
      <point x="1797.81" y="768"/>
      <point x="1855" y="768" type="curve" smooth="yes"/>
      <point x="1921" y="768" type="line" smooth="yes"/>
      <point x="1939.66" y="768"/>
      <point x="1952" y="755.663"/>
      <point x="1952" y="737" type="curve" smooth="yes"/>
      <point x="1952" y="704" type="line" smooth="yes"/>
      <point x="1952" y="486"/>
      <point x="1934" y="334"/>
      <point x="1899" y="248" type="curve" smooth="yes"/>
      <point x="1858" y="148"/>
      <point x="1776" y="81"/>
      <point x="1653" y="46" type="curve" smooth="yes"/>
      <point x="1544" y="15"/>
      <point x="1356" y="0"/>
      <point x="1088" y="0" type="curve" smooth="yes"/>
      <point x="810" y="0"/>
      <point x="630" y="5"/>
      <point x="546" y="16" type="curve" smooth="yes"/>
      <point x="395" y="36"/>
      <point x="293" y="65"/>
      <point x="220" y="152" type="curve" smooth="yes"/>
      <point x="159" y="225"/>
      <point x="128" y="345"/>
      <point x="128" y="512" type="curve" smooth="yes"/>
      <point x="128" y="720"/>
      <point x="214" y="862"/>
      <point x="360" y="929" type="curve" smooth="yes"/>
      <point x="395.046" y="945.355"/>
      <point x="427.06" y="955.038"/>
      <point x="456.041" y="958.521" type="curve" smooth="yes"/>
      <point x="465.774" y="959.691"/>
      <point x="467.87" y="968.088"/>
      <point x="459.803" y="973.712" type="curve" smooth="yes"/>
      <point x="373.56" y="1033.84"/>
      <point x="320" y="1094.45"/>
      <point x="320" y="1219" type="curve" smooth="yes"/>
      <point x="320" y="1511"/>
      <point x="564" y="1569"/>
      <point x="854" y="1569" type="curve" smooth="yes"/>
      <point x="916" y="1569"/>
      <point x="980" y="1568"/>
    </contour>
  </outline>
</glyph>
<glyph name="quotesingle" format="1">
  <advance width="448"/>
  <unicode hex="0027"/>
  <outline>
    <contour>
      <point x="225" y="1536" type="line" smooth="yes"/>
      <point x="281.073" y="1536"/>
      <point x="316.767" y="1497.21"/>
      <point x="312.111" y="1441.33" type="curve" smooth="yes"/>
      <point x="293.232" y="1214.78" type="line" smooth="yes"/>
      <point x="290.027" y="1176.32"/>
      <point x="263.596" y="1152"/>
      <point x="225" y="1152" type="curve" smooth="yes"/>
      <point x="223" y="1152" type="line" smooth="yes"/>
      <point x="184.404" y="1152"/>
      <point x="157.973" y="1176.32"/>
      <point x="154.768" y="1214.78" type="curve" smooth="yes"/>
      <point x="135.889" y="1441.33" type="line" smooth="yes"/>
      <point x="131.233" y="1497.21"/>
      <point x="166.927" y="1536"/>
      <point x="223" y="1536" type="curve" smooth="yes"/>
    </contour>
  </outline>
</glyph>
<glyph name="parenleft" format="1">
  <advance width="768"/>
  <unicode hex="0028"/>
  <outline>
    <contour>
      <point x="192" y="208" type="curve" smooth="yes"/>
      <point x="155" y="306"/>
      <point x="134" y="427"/>
      <point x="130" y="573" type="curve" smooth="yes"/>
      <point x="128" y="639"/>
      <point x="128" y="704"/>
      <point x="128" y="768" type="curve" smooth="yes"/>
      <point x="128" y="942"/>
      <point x="133" y="1065"/>
      <point x="144" y="1138" type="curve" smooth="yes"/>
      <point x="166" y="1280"/>
      <point x="202" y="1387"/>
      <point x="280" y="1470" type="curve" smooth="yes"/>
      <point x="347.746" y="1541.88"/>
      <point x="441.429" y="1583.72"/>
      <point x="561.05" y="1596.1" type="curve" smooth="yes"/>
      <point x="604.915" y="1600.64"/>
      <point x="640" y="1568.99"/>
      <point x="640" y="1525.26" type="curve"/>
      <point x="640" y="1526.15" type="line"/>
      <point x="640" y="1472.23"/>
      <point x="614.498" y="1442.6"/>
      <point x="561.172" y="1434.58" type="curve" smooth="yes"/>
      <point x="497.078" y="1424.93"/>
      <point x="448.148" y="1402.33"/>
      <point x="414" y="1366" type="curve" smooth="yes"/>
      <point x="356" y="1305"/>
      <point x="325" y="1174"/>
      <point x="322" y="974" type="curve" smooth="yes"/>
      <point x="321" y="912"/>
      <point x="320" y="843"/>
      <point x="320" y="768" type="curve" smooth="yes"/>
      <point x="320" y="586"/>
      <point x="323" y="466"/>
      <point x="330" y="408" type="curve" smooth="yes"/>
      <point x="350.035" y="232.91"/>
      <point x="400.422" y="126.113"/>
      <point x="561.142" y="101.488" type="curve" smooth="yes"/>
      <point x="614.845" y="93.2604"/>
      <point x="640" y="63.9578"/>
      <point x="640" y="10.4063" type="curve"/>
      <point x="640" y="11.0943" type="line"/>
      <point x="640" y="-32.8246"/>
      <point x="604.74" y="-64.6135"/>
      <point x="561.056" y="-60.0788" type="curve" smooth="yes"/>
      <point x="376.202" y="-40.8898"/>
      <point x="252.729" y="48.697"/>
    </contour>
  </outline>
</glyph>
<glyph name="parenright" format="1">
  <advance width="768"/>
  <unicode hex="0029"/>
  <outline>
    <contour>
      <point x="354" y="170" type="curve" smooth="yes"/>
      <point x="412" y="231"/>
      <point x="443" y="362"/>
      <point x="446" y="562" type="curve" smooth="yes"/>
      <point x="447" y="624"/>
      <point x="448" y="693"/>
      <point x="448" y="768" type="curve" smooth="yes"/>
      <point x="448" y="950"/>
      <point x="445" y="1070"/>
      <point x="438" y="1128" type="curve" smooth="yes"/>
      <point x="417.965" y="1303.09"/>
      <point x="367.578" y="1409.89"/>
      <point x="206.858" y="1434.51" type="curve" smooth="yes"/>
      <point x="153.155" y="1442.74"/>
      <point x="128" y="1472.04"/>
      <point x="128" y="1525.59" type="curve"/>
      <point x="128" y="1524.91" type="line"/>
      <point x="128" y="1568.82"/>
      <point x="163.26" y="1600.61"/>
      <point x="206.944" y="1596.08" type="curve" smooth="yes"/>
      <point x="391.798" y="1576.89"/>
      <point x="515.271" y="1487.3"/>
      <point x="576" y="1328" type="curve" smooth="yes"/>
      <point x="613" y="1230"/>
      <point x="634" y="1109"/>
      <point x="638" y="963" type="curve" smooth="yes"/>
      <point x="640" y="897"/>
      <point x="640" y="832"/>
      <point x="640" y="768" type="curve" smooth="yes"/>
      <point x="640" y="594"/>
      <point x="635" y="471"/>
      <point x="624" y="398" type="curve" smooth="yes"/>
      <point x="602" y="256"/>
      <point x="566" y="149"/>
      <point x="488" y="66" type="curve" smooth="yes"/>
      <point x="420.254" y="-5.87695"/>
      <point x="326.571" y="-47.7213"/>
      <point x="206.95" y="-60.0969" type="curve" smooth="yes"/>
      <point x="163.085" y="-64.635"/>
      <point x="128" y="-32.9926"/>
      <point x="128" y="10.7352" type="curve"/>
      <point x="128" y="9.84663" type="line"/>
      <point x="128" y="63.773"/>
      <point x="153.502" y="93.3998"/>
      <point x="206.828" y="101.424" type="curve" smooth="yes"/>
      <point x="270.922" y="111.069"/>
      <point x="319.852" y="133.672"/>
    </contour>
  </outline>
</glyph>
<glyph name="asterisk" format="1">
  <advance width="1415"/>
  <unicode hex="002A"/>
  <outline>
    <contour>
      <point x="341.185" y="440.08" type="line" smooth="yes"/>
      <point x="296.045" y="472.199"/>
      <point x="290.434" y="524.121"/>
      <point x="327.67" y="565.142" type="curve" smooth="yes"/>
      <point x="611.869" y="878.229" type="line" smooth="yes"/>
      <point x="620.411" y="887.64"/>
      <point x="617.35" y="899.749"/>
      <point x="605.362" y="903.969" type="curve" smooth="yes"/>
      <point x="222.327" y="1038.8" type="line" smooth="yes"/>
      <point x="167.99" y="1057.92"/>
      <point x="148.765" y="1108.96"/>
      <point x="176.98" y="1159.18" type="curve" smooth="yes"/>
      <point x="179.02" y="1162.82" type="line" smooth="yes"/>
      <point x="208.331" y="1214.99"/>
      <point x="262.478" y="1229.41"/>
      <point x="313.854" y="1198.73" type="curve" smooth="yes"/>
      <point x="639.395" y="1004.31" type="line" smooth="yes"/>
      <point x="649.422" y="998.318"/>
      <point x="658.917" y="1004.27"/>
      <point x="657.891" y="1015.91" type="curve" smooth="yes"/>
      <point x="620.35" y="1441.37" type="line" smooth="yes"/>
      <point x="615.427" y="1497.16"/>
      <point x="650.996" y="1536"/>
      <point x="707" y="1536" type="curve" smooth="yes"/>
      <point x="709" y="1536" type="line" smooth="yes"/>
      <point x="765.004" y="1536"/>
      <point x="800.573" y="1497.16"/>
      <point x="795.65" y="1441.37" type="curve" smooth="yes"/>
      <point x="758.109" y="1015.91" type="line" smooth="yes"/>
      <point x="757.083" y="1004.28"/>
      <point x="766.576" y="998.331"/>
      <point x="776.592" y="1004.33" type="curve" smooth="yes"/>
      <point x="1101.2" y="1198.64" type="line" smooth="yes"/>
      <point x="1152.53" y="1229.37"/>
      <point x="1206.68" y="1214.98"/>
      <point x="1235.98" y="1162.82" type="curve" smooth="yes"/>
      <point x="1238.02" y="1159.18" type="line" smooth="yes"/>
      <point x="1266.24" y="1108.95"/>
      <point x="1247.03" y="1057.9"/>
      <point x="1192.69" y="1038.74" type="curve" smooth="yes"/>
      <point x="810.633" y="903.983" type="line" smooth="yes"/>
      <point x="798.645" y="899.755"/>
      <point x="795.587" y="887.642"/>
      <point x="804.131" y="878.229" type="curve" smooth="yes"/>
      <point x="1088.33" y="565.142" type="line" smooth="yes"/>
      <point x="1125.57" y="524.121"/>
      <point x="1119.96" y="472.199"/>
      <point x="1074.81" y="440.08" type="curve" smooth="yes"/>
      <point x="1073.19" y="438.92" type="line" smooth="yes"/>
      <point x="1027.24" y="406.23"/>
      <point x="975.33" y="416.297"/>
      <point x="944.935" y="463.788" type="curve" smooth="yes"/>
      <point x="720.937" y="813.785" type="line" smooth="yes"/>
      <point x="714.189" y="824.329"/>
      <point x="701.811" y="824.329"/>
      <point x="695.063" y="813.785" type="curve" smooth="yes"/>
      <point x="471.065" y="463.788" type="line" smooth="yes"/>
      <point x="440.67" y="416.297"/>
      <point x="388.757" y="406.23"/>
      <point x="342.815" y="438.92" type="curve" smooth="yes"/>
    </contour>
  </outline>
</glyph>
<glyph name="plus" format="1">
  <advance width="1344"/>
  <unicode hex="002B"/>
  <outline>
    <contour>
      <point x="552" y="960" type="line" smooth="yes"/>
      <point x="566.407" y="960"/>
      <point x="576" y="969.593"/>
      <point x="576" y="984" type="curve" smooth="yes"/>
      <point x="576" y="1313" type="line" smooth="yes"/>
      <point x="576" y="1370.19"/>
      <point x="613.805" y="1408"/>
      <point x="671" y="1408" type="curve" smooth="yes"/>
      <point x="673" y="1408" type="line" smooth="yes"/>
      <point x="730.195" y="1408"/>
      <point x="768" y="1370.19"/>
      <point x="768" y="1313" type="curve" smooth="yes"/>
      <point x="768" y="984" type="line" smooth="yes"/>
      <point x="768" y="969.593"/>
      <point x="777.593" y="960"/>
      <point x="792" y="960" type="curve" smooth="yes"/>
      <point x="1137" y="960" type="line" smooth="yes"/>
      <point x="1184.56" y="960"/>
      <point x="1216" y="928.562"/>
      <point x="1216" y="881" type="curve" smooth="yes"/>
      <point x="1216" y="879" type="line" smooth="yes"/>
      <point x="1216" y="831.438"/>
      <point x="1184.56" y="800"/>
      <point x="1137" y="800" type="curve" smooth="yes"/>
      <point x="792" y="800" type="line" smooth="yes"/>
      <point x="777.593" y="800"/>
      <point x="768" y="790.407"/>
      <point x="768" y="776" type="curve" smooth="yes"/>
      <point x="768" y="415" type="line" smooth="yes"/>
      <point x="768" y="357.805"/>
      <point x="730.195" y="320"/>
      <point x="673" y="320" type="curve" smooth="yes"/>
      <point x="671" y="320" type="line" smooth="yes"/>
      <point x="613.805" y="320"/>
      <point x="576" y="357.805"/>
      <point x="576" y="415" type="curve" smooth="yes"/>
      <point x="576" y="776" type="line" smooth="yes"/>
      <point x="576" y="790.407"/>
      <point x="566.407" y="800"/>
      <point x="552" y="800" type="curve" smooth="yes"/>
      <point x="207" y="800" type="line" smooth="yes"/>
      <point x="159.438" y="800"/>
      <point x="128" y="831.438"/>
      <point x="128" y="879" type="curve" smooth="yes"/>
      <point x="128" y="881" type="line" smooth="yes"/>
      <point x="128" y="928.562"/>
      <point x="159.438" y="960"/>
      <point x="207" y="960" type="curve" smooth="yes"/>
    </contour>
  </outline>
</glyph>
<glyph name="period" format="1">
  <advance width="448"/>
  <unicode hex="002E"/>
  <outline>
    <contour>
      <point x="223" y="-1.16341e-14" type="line" smooth="yes"/>
      <point x="165.805" y="-4.62983e-15"/>
      <point x="128" y="37.8055"/>
      <point x="128" y="95" type="curve" smooth="yes"/>
      <point x="128" y="97" type="line" smooth="yes"/>
      <point x="128" y="154.195"/>
      <point x="165.805" y="192"/>
      <point x="223" y="192" type="curve" smooth="yes"/>
      <point x="225" y="192" type="line" smooth="yes"/>
      <point x="282.195" y="192"/>
      <point x="320" y="154.195"/>
      <point x="320" y="97" type="curve" smooth="yes"/>
      <point x="320" y="95" type="line" smooth="yes"/>
      <point x="320" y="37.8055"/>
      <point x="282.195" y="4.62983e-15"/>
      <point x="225" y="1.16341e-14" type="curve" smooth="yes"/>
    </contour>
  </outline>
</glyph>
<glyph name="zero" format="1">
  <advance width="2048"/>
  <unicode hex="0030"/>
  <outline>
    <contour>
      <point x="1712" y="1482" type="curve" smooth="yes"/>
      <point x="1857" y="1401"/>
      <point x="1909" y="1239"/>
      <point x="1916" y="1016" type="curve" smooth="yes"/>
      <point x="1918" y="941"/>
      <point x="1920" y="859"/>
      <point x="1920" y="768" type="curve" smooth="yes"/>
      <point x="1920" y="712" type="line" smooth="yes"/>
      <point x="1920" y="495"/>
      <point x="1917" y="297"/>
      <point x="1832" y="164" type="curve" smooth="yes"/>
      <point x="1804" y="120"/>
      <point x="1764" y="83"/>
      <point x="1712" y="54" type="curve" smooth="yes"/>
      <point x="1609" y="-4"/>
      <point x="1444" y="-32"/>
      <point x="1217" y="-32" type="curve" smooth="yes"/>
      <point x="832" y="-32" type="line" smooth="yes"/>
      <point x="605" y="-32"/>
      <point x="440" y="-4"/>
      <point x="337" y="54" type="curve" smooth="yes"/>
      <point x="192" y="135"/>
      <point x="138" y="296"/>
      <point x="132" y="520" type="curve" smooth="yes"/>
      <point x="130" y="595"/>
      <point x="129" y="677"/>
      <point x="129" y="768" type="curve" smooth="yes"/>
      <point x="129" y="843" type="line" smooth="yes"/>
      <point x="129" y="1053"/>
      <point x="133" y="1243"/>
      <point x="216" y="1372" type="curve" smooth="yes"/>
      <point x="244" y="1416"/>
      <point x="285" y="1453"/>
      <point x="337" y="1482" type="curve" smooth="yes"/>
      <point x="440" y="1540"/>
      <point x="605" y="1568"/>
      <point x="832" y="1568" type="curve" smooth="yes"/>
      <point x="1217" y="1568" type="line" smooth="yes"/>
      <point x="1444" y="1568"/>
      <point x="1609" y="1540"/>
    </contour>
    <contour>
      <point x="1576" y="166" type="curve" smooth="yes"/>
      <point x="1654" y="198"/>
      <point x="1691" y="253"/>
      <point x="1709" y="346" type="curve" smooth="yes"/>
      <point x="1722" y="410"/>
      <point x="1728" y="551"/>
      <point x="1728" y="768" type="curve" smooth="yes"/>
      <point x="1728" y="985"/>
      <point x="1723" y="1121"/>
      <point x="1712" y="1177" type="curve" smooth="yes"/>
      <point x="1692" y="1280"/>
      <point x="1659" y="1336"/>
      <point x="1576" y="1370" type="curve" smooth="yes"/>
      <point x="1514" y="1395"/>
      <point x="1394" y="1408"/>
      <point x="1217" y="1408" type="curve" smooth="yes"/>
      <point x="832" y="1408" type="line" smooth="yes"/>
      <point x="655" y="1408"/>
      <point x="535" y="1395"/>
      <point x="472" y="1370" type="curve" smooth="yes"/>
      <point x="394" y="1338"/>
      <point x="357" y="1283"/>
      <point x="339" y="1190" type="curve" smooth="yes"/>
      <point x="327" y="1129"/>
      <point x="321" y="988"/>
      <point x="321" y="768" type="curve" smooth="yes"/>
      <point x="321" y="551"/>
      <point x="327" y="415"/>
      <point x="338" y="359" type="curve" smooth="yes"/>
      <point x="358" y="255"/>
      <point x="388" y="200"/>
      <point x="472" y="166" type="curve" smooth="yes"/>
      <point x="535" y="141"/>
      <point x="655" y="128"/>
      <point x="832" y="128" type="curve" smooth="yes"/>
      <point x="1217" y="128" type="line" smooth="yes"/>
      <point x="1394" y="128"/>
      <point x="1513" y="141"/>
    </contour>
  </outline>
</glyph>
<glyph name="one" format="1">
  <advance width="992"/>
  <unicode hex="0031"/>
  <outline>
    <contour>
      <point x="764" y="1536" type="line" smooth="yes"/>
      <point x="824.205" y="1536"/>
      <point x="864" y="1496.2"/>
      <point x="864" y="1436" type="curve" smooth="yes"/>
      <point x="864" y="95" type="line" smooth="yes"/>
      <point x="864" y="37.8055"/>
      <point x="826.195" y="4.62983e-15"/>
      <point x="769" y="1.16341e-14" type="curve" smooth="yes"/>
      <point x="767" y="-1.16341e-14" type="line" smooth="yes"/>
      <point x="709.805" y="-4.62983e-15"/>
      <point x="672" y="37.8055"/>
      <point x="672" y="95" type="curve" smooth="yes"/>
      <point x="672" y="1352" type="line" smooth="yes"/>
      <point x="672" y="1363.13"/>
      <point x="662.231" y="1367.63"/>
      <point x="653.778" y="1360.38" type="curve" smooth="yes"/>
      <point x="283.981" y="1043.41" type="line" smooth="yes"/>
      <point x="248.418" y="1012.93"/>
      <point x="204.704" y="1017.73"/>
      <point x="176.6" y="1055.2" type="curve" smooth="yes"/>
      <point x="175.4" y="1056.8" type="line" smooth="yes"/>
      <point x="146.433" y="1095.42"/>
      <point x="151.216" y="1140.12"/>
      <point x="187.699" y="1171.74" type="curve" smooth="yes"/>
      <point x="532.431" y="1470.51" type="line" smooth="yes"/>
      <point x="581.23" y="1512.8"/>
      <point x="643.425" y="1536"/>
      <point x="708" y="1536" type="curve" smooth="yes"/>
    </contour>
  </outline>
</glyph>
<glyph name="two" format="1">
  <advance width="1984"/>
  <unicode hex="0032"/>
  <outline>
    <contour>
      <point x="448" y="704" type="curve" smooth="yes"/>
      <point x="1472" y="800" type="line" smooth="yes"/>
      <point x="1536" y="805"/>
      <point x="1584" y="814"/>
      <point x="1616" y="852" type="curve" smooth="yes"/>
      <point x="1648" y="890"/>
      <point x="1663" y="969"/>
      <point x="1663" y="1087" type="curve" smooth="yes"/>
      <point x="1663" y="1301"/>
      <point x="1609" y="1372"/>
      <point x="1417" y="1396" type="curve" smooth="yes"/>
      <point x="1354" y="1404"/>
      <point x="1243" y="1408"/>
      <point x="1085" y="1408" type="curve" smooth="yes"/>
      <point x="927" y="1408"/>
      <point x="808" y="1406"/>
      <point x="728" y="1402" type="curve" smooth="yes"/>
      <point x="554" y="1393"/>
      <point x="397" y="1377"/>
      <point x="346" y="1256" type="curve" smooth="yes"/>
      <point x="321" y="1198"/>
      <point x="320" y="1127"/>
      <point x="320" y="1044" type="curve" smooth="yes"/>
      <point x="320" y="1017" type="line" smooth="yes"/>
      <point x="320" y="1001.99"/>
      <point x="310.007" y="992"/>
      <point x="295" y="992" type="curve" smooth="yes"/>
      <point x="219.592" y="992" type="line" smooth="yes"/>
      <point x="165.478" y="992"/>
      <point x="127.33" y="1032.92"/>
      <point x="131.124" y="1086.9" type="curve" smooth="yes"/>
      <point x="150.981" y="1369.45"/>
      <point x="267.46" y="1503.6"/>
      <point x="536" y="1547" type="curve" smooth="yes"/>
      <point x="623" y="1561"/>
      <point x="785" y="1568"/>
      <point x="1024" y="1568" type="curve" smooth="yes"/>
      <point x="1242" y="1568"/>
      <point x="1390" y="1562"/>
      <point x="1469" y="1548" type="curve" smooth="yes"/>
      <point x="1610" y="1524"/>
      <point x="1699" y="1495"/>
      <point x="1768" y="1412" type="curve" smooth="yes"/>
      <point x="1826" y="1342"/>
      <point x="1856" y="1234"/>
      <point x="1856" y="1088" type="curve" smooth="yes"/>
      <point x="1856" y="811"/>
      <point x="1779" y="663"/>
      <point x="1536" y="640" type="curve" smooth="yes"/>
      <point x="512" y="544" type="line" smooth="yes"/>
      <point x="424" y="536"/>
      <point x="370" y="518"/>
      <point x="343" y="454" type="curve" smooth="yes"/>
      <point x="331" y="425"/>
      <point x="324" y="386"/>
      <point x="322" y="339" type="curve" smooth="yes"/>
      <point x="320.227" y="297.324"/>
      <point x="320.026" y="245.427"/>
      <point x="320.003" y="184.005" type="curve" smooth="yes"/>
      <point x="319.998" y="169.6"/>
      <point x="329.594" y="160"/>
      <point x="343.999" y="160" type="curve" smooth="yes"/>
      <point x="1745" y="160" type="line" smooth="yes"/>
      <point x="1792.56" y="160"/>
      <point x="1824" y="128.562"/>
      <point x="1824" y="81" type="curve" smooth="yes"/>
      <point x="1824" y="79" type="line" smooth="yes"/>
      <point x="1824" y="31.4382"/>
      <point x="1792.56" y="3.85007e-15"/>
      <point x="1745" y="9.67471e-15" type="curve" smooth="yes"/>
      <point x="223" y="-1.16341e-14" type="line" smooth="yes"/>
      <point x="165.805" y="-4.62983e-15"/>
      <point x="128" y="37.8055"/>
      <point x="128" y="95" type="curve" smooth="yes"/>
      <point x="128" y="192" type="line" smooth="yes"/>
      <point x="128" y="501"/>
      <point x="182" y="679"/>
    </contour>
  </outline>
</glyph>
<glyph name="three" format="1">
  <advance width="1984"/>
  <unicode hex="0033"/>
  <outline>
    <contour>
      <point x="1856" y="428" type="curve" smooth="yes"/>
      <point x="1856" y="234"/>
      <point x="1790" y="101"/>
      <point x="1656" y="40" type="curve" smooth="yes"/>
      <point x="1611" y="19"/>
      <point x="1558" y="4"/>
      <point x="1496" y="-7" type="curve" smooth="yes"/>
      <point x="1400" y="-24"/>
      <point x="1242" y="-32"/>
      <point x="1024" y="-32" type="curve" smooth="yes"/>
      <point x="784" y="-32"/>
      <point x="626" y="-27"/>
      <point x="550" y="-16" type="curve" smooth="yes"/>
      <point x="408" y="4"/>
      <point x="306" y="36"/>
      <point x="232" y="118" type="curve" smooth="yes"/>
      <point x="176.27" y="179.303"/>
      <point x="143.358" y="268.495"/>
      <point x="132.256" y="385.072" type="curve" smooth="yes"/>
      <point x="127.203" y="438.13"/>
      <point x="165.274" y="480"/>
      <point x="218.215" y="480" type="curve" smooth="yes"/>
      <point x="220.012" y="480" type="line" smooth="yes"/>
      <point x="280.52" y="480"/>
      <point x="318.578" y="443.661"/>
      <point x="321.375" y="383.219" type="curve" smooth="yes"/>
      <point x="325.5" y="294.062"/>
      <point x="342" y="228.25"/>
      <point x="408" y="190" type="curve" smooth="yes"/>
      <point x="436" y="174"/>
      <point x="476" y="161"/>
      <point x="528" y="152" type="curve" smooth="yes"/>
      <point x="618" y="136"/>
      <point x="745" y="128"/>
      <point x="908" y="128" type="curve" smooth="yes"/>
      <point x="1071" y="128"/>
      <point x="1184" y="129"/>
      <point x="1249" y="130" type="curve" smooth="yes"/>
      <point x="1401" y="132"/>
      <point x="1546" y="139"/>
      <point x="1611" y="223" type="curve" smooth="yes"/>
      <point x="1646" y="268"/>
      <point x="1663" y="343"/>
      <point x="1663" y="449" type="curve" smooth="yes"/>
      <point x="1663" y="554"/>
      <point x="1648" y="625"/>
      <point x="1616" y="661" type="curve" smooth="yes"/>
      <point x="1591" y="690"/>
      <point x="1543" y="704"/>
      <point x="1472" y="704" type="curve" smooth="yes"/>
      <point x="847" y="704" type="line" smooth="yes"/>
      <point x="799.438" y="704"/>
      <point x="768" y="735.438"/>
      <point x="768" y="783" type="curve" smooth="yes"/>
      <point x="768" y="785" type="line" smooth="yes"/>
      <point x="768" y="832.562"/>
      <point x="799.438" y="864"/>
      <point x="847" y="864" type="curve" smooth="yes"/>
      <point x="1472" y="864" type="line" smooth="yes"/>
      <point x="1628" y="864"/>
      <point x="1663" y="924"/>
      <point x="1663" y="1087" type="curve" smooth="yes"/>
      <point x="1663" y="1301"/>
      <point x="1609" y="1372"/>
      <point x="1417" y="1396" type="curve" smooth="yes"/>
      <point x="1354" y="1404"/>
      <point x="1243" y="1408"/>
      <point x="1085" y="1408" type="curve" smooth="yes"/>
      <point x="927" y="1408"/>
      <point x="808" y="1407"/>
      <point x="728" y="1404" type="curve" smooth="yes"/>
      <point x="599" y="1399"/>
      <point x="486" y="1393"/>
      <point x="408" y="1352" type="curve" smooth="yes"/>
      <point x="344.76" y="1318.91"/>
      <point x="326.942" y="1262.57"/>
      <point x="321.94" y="1182.97" type="curve" smooth="yes"/>
      <point x="318.161" y="1122.83"/>
      <point x="281.077" y="1088"/>
      <point x="220.972" y="1088" type="curve" smooth="yes"/>
      <point x="218.064" y="1088" type="line" smooth="yes"/>
      <point x="165.307" y="1088"/>
      <point x="127.116" y="1130.37"/>
      <point x="132.571" y="1182.84" type="curve" smooth="yes"/>
      <point x="157.464" y="1422.26"/>
      <point x="284.878" y="1520.83"/>
      <point x="536" y="1552" type="curve" smooth="yes"/>
      <point x="624" y="1563"/>
      <point x="786" y="1568"/>
      <point x="1024" y="1568" type="curve" smooth="yes"/>
      <point x="1242" y="1568"/>
      <point x="1390" y="1562"/>
      <point x="1469" y="1548" type="curve" smooth="yes"/>
      <point x="1610" y="1524"/>
      <point x="1699" y="1495"/>
      <point x="1768" y="1412" type="curve" smooth="yes"/>
      <point x="1826" y="1342"/>
      <point x="1856" y="1234"/>
      <point x="1856" y="1088" type="curve" smooth="yes"/>
      <point x="1856" y="918.264"/>
      <point x="1814.25" y="842.463"/>
      <point x="1717.77" y="794.082" type="curve" smooth="yes"/>
      <point x="1707.71" y="789.036"/>
      <point x="1707.58" y="779.011"/>
      <point x="1717.48" y="773.702" type="curve" smooth="yes"/>
      <point x="1824.21" y="716.525"/>
      <point x="1856" y="601.844"/>
    </contour>
  </outline>
</glyph>
<glyph name="four" format="1">
  <advance width="2048"/>
  <unicode hex="0034"/>
  <outline>
    <contour>
      <point x="1664" y="95" type="line" smooth="yes"/>
      <point x="1664" y="37.8055"/>
      <point x="1626.19" y="4.62983e-15"/>
      <point x="1569" y="1.16341e-14" type="curve" smooth="yes"/>
      <point x="1567" y="-1.16341e-14" type="line" smooth="yes"/>
      <point x="1509.81" y="-4.62983e-15"/>
      <point x="1472" y="37.8055"/>
      <point x="1472" y="95" type="curve" smooth="yes"/>
      <point x="1472" y="296" type="line" smooth="yes"/>
      <point x="1472" y="310.407"/>
      <point x="1462.41" y="320"/>
      <point x="1448" y="320" type="curve" smooth="yes"/>
      <point x="223" y="320" type="line" smooth="yes"/>
      <point x="165.805" y="320"/>
      <point x="128" y="357.805"/>
      <point x="128" y="415" type="curve" smooth="yes"/>
      <point x="128" y="417" type="line" smooth="yes"/>
      <point x="128" y="478.786"/>
      <point x="153.936" y="532.749"/>
      <point x="202.183" y="571.346" type="curve" smooth="yes"/>
      <point x="1329.91" y="1473.53" type="line" smooth="yes"/>
      <point x="1380.16" y="1513.73"/>
      <point x="1443.66" y="1536"/>
      <point x="1508" y="1536" type="curve" smooth="yes"/>
      <point x="1564" y="1536" type="line" smooth="yes"/>
      <point x="1624.2" y="1536"/>
      <point x="1664" y="1496.2"/>
      <point x="1664" y="1436" type="curve" smooth="yes"/>
      <point x="1664" y="504" type="line" smooth="yes"/>
      <point x="1664" y="489.593"/>
      <point x="1673.59" y="480"/>
      <point x="1688" y="480" type="curve" smooth="yes"/>
      <point x="1841" y="480" type="line" smooth="yes"/>
      <point x="1888.56" y="480"/>
      <point x="1920" y="448.562"/>
      <point x="1920" y="401" type="curve" smooth="yes"/>
      <point x="1920" y="399" type="line" smooth="yes"/>
      <point x="1920" y="351.438"/>
      <point x="1888.56" y="320"/>
      <point x="1841" y="320" type="curve" smooth="yes"/>
      <point x="1688" y="320" type="line" smooth="yes"/>
      <point x="1673.59" y="320"/>
      <point x="1664" y="310.407"/>
      <point x="1664" y="296" type="curve" smooth="yes"/>
    </contour>
    <contour>
      <point x="1472" y="1384" type="line" smooth="yes"/>
      <point x="1472" y="1395.31"/>
      <point x="1462.12" y="1400.04"/>
      <point x="1453.31" y="1392.94" type="curve" smooth="yes"/>
      <point x="338.69" y="495.056" type="line" smooth="yes"/>
      <point x="331.076" y="488.922"/>
      <point x="334.222" y="480"/>
      <point x="344" y="480" type="curve" smooth="yes"/>
      <point x="1448" y="480" type="line" smooth="yes"/>
      <point x="1462.41" y="480"/>
      <point x="1472" y="489.593"/>
      <point x="1472" y="504" type="curve" smooth="yes"/>
    </contour>
  </outline>
</glyph>
<glyph name="five" format="1">
  <advance width="1984"/>
  <unicode hex="0035"/>
  <outline>
    <contour>
      <point x="1760" y="928" type="curve" smooth="yes"/>
      <point x="1843" y="834"/>
      <point x="1856" y="686"/>
      <point x="1856" y="498" type="curve" smooth="yes"/>
      <point x="1856" y="281"/>
      <point x="1797" y="126"/>
      <point x="1656" y="52" type="curve" smooth="yes"/>
      <point x="1611" y="28"/>
      <point x="1558" y="10"/>
      <point x="1496" y="-2" type="curve" smooth="yes"/>
      <point x="1398" y="-22"/>
      <point x="1240" y="-32"/>
      <point x="1024" y="-32" type="curve" smooth="yes"/>
      <point x="784" y="-32"/>
      <point x="626" y="-27"/>
      <point x="550" y="-16" type="curve" smooth="yes"/>
      <point x="408" y="4"/>
      <point x="306" y="36"/>
      <point x="232" y="118" type="curve" smooth="yes"/>
      <point x="176.27" y="179.303"/>
      <point x="143.358" y="268.495"/>
      <point x="132.256" y="385.072" type="curve" smooth="yes"/>
      <point x="127.203" y="438.13"/>
      <point x="165.274" y="480"/>
      <point x="218.215" y="480" type="curve" smooth="yes"/>
      <point x="220.012" y="480" type="line" smooth="yes"/>
      <point x="280.52" y="480"/>
      <point x="318.578" y="443.661"/>
      <point x="321.375" y="383.219" type="curve" smooth="yes"/>
      <point x="325.5" y="294.062"/>
      <point x="342" y="228.25"/>
      <point x="408" y="190" type="curve" smooth="yes"/>
      <point x="436" y="174"/>
      <point x="476" y="161"/>
      <point x="528" y="152" type="curve" smooth="yes"/>
      <point x="618" y="136"/>
      <point x="745" y="128"/>
      <point x="908" y="128" type="curve" smooth="yes"/>
      <point x="1071" y="128"/>
      <point x="1184" y="129"/>
      <point x="1249" y="130" type="curve" smooth="yes"/>
      <point x="1411" y="133"/>
      <point x="1548" y="148"/>
      <point x="1612" y="244" type="curve" smooth="yes"/>
      <point x="1647" y="297"/>
      <point x="1664" y="376"/>
      <point x="1664" y="482" type="curve" smooth="yes"/>
      <point x="1664" y="711"/>
      <point x="1658" y="855"/>
      <point x="1475" y="884" type="curve" smooth="yes"/>
      <point x="1425" y="892"/>
      <point x="1360" y="896"/>
      <point x="1280" y="896" type="curve" smooth="yes"/>
      <point x="768" y="896" type="line" smooth="yes"/>
      <point x="539" y="896"/>
      <point x="401" y="865"/>
      <point x="354" y="802" type="curve" smooth="yes"/>
      <point x="346.236" y="791.648"/>
      <point x="339.544" y="780.761"/>
      <point x="333.785" y="769.338" type="curve" smooth="yes"/>
      <point x="321.621" y="745.212"/>
      <point x="306.661" y="736"/>
      <point x="280.855" y="736" type="curve" smooth="yes"/>
      <point x="223" y="736" type="line" smooth="yes"/>
      <point x="165.805" y="736"/>
      <point x="128" y="773.805"/>
      <point x="128" y="831" type="curve" smooth="yes"/>
      <point x="128" y="1436" type="line" smooth="yes"/>
      <point x="128" y="1496.2"/>
      <point x="167.795" y="1536"/>
      <point x="228" y="1536" type="curve" smooth="yes"/>
      <point x="1713" y="1536" type="line" smooth="yes"/>
      <point x="1760.56" y="1536"/>
      <point x="1792" y="1504.56"/>
      <point x="1792" y="1457" type="curve" smooth="yes"/>
      <point x="1792" y="1455" type="line" smooth="yes"/>
      <point x="1792" y="1407.44"/>
      <point x="1760.56" y="1376"/>
      <point x="1713" y="1376" type="curve" smooth="yes"/>
      <point x="344" y="1376" type="line" smooth="yes"/>
      <point x="329.593" y="1376"/>
      <point x="320" y="1366.41"/>
      <point x="320" y="1352" type="curve" smooth="yes"/>
      <point x="320" y="920.497" type="line" smooth="yes"/>
      <point x="320" y="911.84"/>
      <point x="327.329" y="909.548"/>
      <point x="332.261" y="916.661" type="curve" smooth="yes"/>
      <point x="375.63" y="979.205"/>
      <point x="465.717" y="1021.4"/>
      <point x="604" y="1044" type="curve" smooth="yes"/>
      <point x="650" y="1052"/>
      <point x="705" y="1056"/>
      <point x="768" y="1056" type="curve" smooth="yes"/>
      <point x="1280" y="1056" type="line" smooth="yes"/>
      <point x="1524" y="1056"/>
      <point x="1684" y="1013"/>
    </contour>
  </outline>
</glyph>
<glyph name="six" format="1">
  <advance width="1984"/>
  <unicode hex="0036"/>
  <outline>
    <contour>
      <point x="832" y="928" type="curve" smooth="yes"/>
      <point x="1153" y="928" type="line" smooth="yes"/>
      <point x="1428" y="928"/>
      <point x="1617" y="888"/>
      <point x="1720" y="808" type="curve" smooth="yes"/>
      <point x="1819" y="731"/>
      <point x="1856" y="618"/>
      <point x="1856" y="448" type="curve" smooth="yes"/>
      <point x="1856" y="278"/>
      <point x="1819" y="165"/>
      <point x="1720" y="88" type="curve" smooth="yes"/>
      <point x="1617" y="8"/>
      <point x="1428" y="-32"/>
      <point x="1153" y="-32" type="curve" smooth="yes"/>
      <point x="832" y="-32" type="line" smooth="yes"/>
      <point x="606" y="-32"/>
      <point x="440" y="-4"/>
      <point x="336" y="54" type="curve" smooth="yes"/>
      <point x="191" y="134"/>
      <point x="139" y="297"/>
      <point x="132" y="520" type="curve" smooth="yes"/>
      <point x="130" y="595"/>
      <point x="128" y="679"/>
      <point x="128" y="772" type="curve" smooth="yes"/>
      <point x="128" y="824" type="line" smooth="yes"/>
      <point x="128" y="1052"/>
      <point x="132" y="1255"/>
      <point x="232" y="1384" type="curve" smooth="yes"/>
      <point x="265" y="1427"/>
      <point x="312" y="1461"/>
      <point x="374" y="1488" type="curve" smooth="yes"/>
      <point x="495" y="1541"/>
      <point x="691" y="1568"/>
      <point x="960" y="1568" type="curve" smooth="yes"/>
      <point x="1293" y="1568"/>
      <point x="1520" y="1529"/>
      <point x="1640" y="1452" type="curve" smooth="yes"/>
      <point x="1730.4" y="1393.95"/>
      <point x="1774.71" y="1316.63"/>
      <point x="1787.21" y="1198.38" type="curve" smooth="yes"/>
      <point x="1791.8" y="1154.93"/>
      <point x="1760.36" y="1120"/>
      <point x="1716.99" y="1120" type="curve"/>
      <point x="1719.82" y="1120" type="line"/>
      <point x="1664.8" y="1120"/>
      <point x="1635.93" y="1144.12"/>
      <point x="1626.14" y="1198.26" type="curve" smooth="yes"/>
      <point x="1614.79" y="1261.07"/>
      <point x="1586.37" y="1293.63"/>
      <point x="1536" y="1324" type="curve" smooth="yes"/>
      <point x="1507" y="1341"/>
      <point x="1468" y="1356"/>
      <point x="1418" y="1369" type="curve" smooth="yes"/>
      <point x="1316" y="1395"/>
      <point x="1189" y="1408"/>
      <point x="1035" y="1408" type="curve" smooth="yes"/>
      <point x="881" y="1408"/>
      <point x="770" y="1406"/>
      <point x="698" y="1403" type="curve" smooth="yes"/>
      <point x="515" y="1394"/>
      <point x="391" y="1365"/>
      <point x="348" y="1223" type="curve" smooth="yes"/>
      <point x="329.779" y="1163.54"/>
      <point x="320.755" y="1040.63"/>
      <point x="320.046" y="856.025" type="curve" smooth="yes"/>
      <point x="319.999" y="843.867"/>
      <point x="329.798" y="837.923"/>
      <point x="340.553" y="843.581" type="curve" smooth="yes"/>
      <point x="447.54" y="899.86"/>
      <point x="611.63" y="928"/>
    </contour>
    <contour>
      <point x="528" y="756" type="curve" smooth="yes"/>
      <point x="447" y="743"/>
      <point x="396" y="729"/>
      <point x="360" y="682" type="curve" smooth="yes"/>
      <point x="334" y="647"/>
      <point x="320" y="597"/>
      <point x="320" y="531" type="curve" smooth="yes"/>
      <point x="320" y="320"/>
      <point x="350" y="202"/>
      <point x="512" y="156" type="curve" smooth="yes"/>
      <point x="578" y="137"/>
      <point x="685" y="128"/>
      <point x="832" y="128" type="curve" smooth="yes"/>
      <point x="1153" y="128" type="line" smooth="yes"/>
      <point x="1304" y="128"/>
      <point x="1406" y="135"/>
      <point x="1460" y="148" type="curve" smooth="yes"/>
      <point x="1620" y="188"/>
      <point x="1664" y="244"/>
      <point x="1664" y="448" type="curve" smooth="yes"/>
      <point x="1664" y="538"/>
      <point x="1656" y="600"/>
      <point x="1638" y="632" type="curve" smooth="yes"/>
      <point x="1603" y="696"/>
      <point x="1562" y="723"/>
      <point x="1484" y="742" type="curve" smooth="yes"/>
      <point x="1413" y="759"/>
      <point x="1303" y="768"/>
      <point x="1153" y="768" type="curve" smooth="yes"/>
      <point x="832" y="768" type="line" smooth="yes"/>
      <point x="678" y="768"/>
      <point x="576" y="764"/>
    </contour>
  </outline>
</glyph>
<glyph name="seven" format="1">
  <advance width="1984"/>
  <unicode hex="0037"/>
  <outline>
    <contour>
      <point x="548" y="-1.22465e-14" type="line" smooth="yes"/>
      <point x="502.078" y="-6.62266e-15"/>
      <point x="483.272" y="40.9918"/>
      <point x="513.224" y="75.8011" type="curve" smooth="yes"/>
      <point x="1616.35" y="1357.81" type="line" smooth="yes"/>
      <point x="1623.6" y="1366.24"/>
      <point x="1619.12" y="1376"/>
      <point x="1608" y="1376" type="curve" smooth="yes"/>
      <point x="207" y="1376" type="line" smooth="yes"/>
      <point x="159.438" y="1376"/>
      <point x="128" y="1407.44"/>
      <point x="128" y="1455" type="curve" smooth="yes"/>
      <point x="128" y="1457" type="line" smooth="yes"/>
      <point x="128" y="1504.56"/>
      <point x="159.438" y="1536"/>
      <point x="207" y="1536" type="curve" smooth="yes"/>
      <point x="1761" y="1536" type="line" smooth="yes"/>
      <point x="1818.19" y="1536"/>
      <point x="1856" y="1498.19"/>
      <point x="1856" y="1441" type="curve" smooth="yes"/>
      <point x="1856" y="1439" type="line" smooth="yes"/>
      <point x="1856" y="1377.68"/>
      <point x="1834.08" y="1318.43"/>
      <point x="1794.17" y="1271.87" type="curve" smooth="yes"/>
      <point x="769.079" y="75.9257" type="line" smooth="yes"/>
      <point x="726.764" y="26.5578"/>
      <point x="669.021" y="4.28365e-15"/>
      <point x="604" y="1.22465e-14" type="curve" smooth="yes"/>
    </contour>
  </outline>
</glyph>
<glyph name="eight" format="1">
  <advance width="1984"/>
  <unicode hex="0038"/>
  <outline>
    <contour>
      <point x="1856" y="427" type="curve" smooth="yes"/>
      <point x="1856" y="198"/>
      <point x="1765" y="81"/>
      <point x="1591" y="22" type="curve" smooth="yes"/>
      <point x="1486" y="-14"/>
      <point x="1340" y="-32"/>
      <point x="1152" y="-32" type="curve" smooth="yes"/>
      <point x="831" y="-32" type="line" smooth="yes"/>
      <point x="558" y="-32"/>
      <point x="369" y="8"/>
      <point x="264" y="88" type="curve" smooth="yes"/>
      <point x="175" y="156"/>
      <point x="128" y="265"/>
      <point x="128" y="408" type="curve" smooth="yes"/>
      <point x="128" y="522"/>
      <point x="138" y="591"/>
      <point x="179" y="661" type="curve" smooth="yes"/>
      <point x="215.816" y="723.588"/>
      <point x="277.2" y="772.621"/>
      <point x="361.592" y="807.32" type="curve" smooth="yes"/>
      <point x="371.261" y="811.296"/>
      <point x="371.321" y="820.783"/>
      <point x="361.719" y="824.872" type="curve" smooth="yes"/>
      <point x="254.132" y="870.697"/>
      <point x="189.677" y="943.74"/>
      <point x="170" y="1044" type="curve" smooth="yes"/>
      <point x="163" y="1078"/>
      <point x="160" y="1121"/>
      <point x="160" y="1174" type="curve" smooth="yes"/>
      <point x="160" y="1305"/>
      <point x="209" y="1403"/>
      <point x="296" y="1462" type="curve" smooth="yes"/>
      <point x="401" y="1533"/>
      <point x="589" y="1568"/>
      <point x="863" y="1568" type="curve" smooth="yes"/>
      <point x="1121" y="1568" type="line" smooth="yes"/>
      <point x="1395" y="1568"/>
      <point x="1583" y="1533"/>
      <point x="1688" y="1462" type="curve" smooth="yes"/>
      <point x="1775" y="1403"/>
      <point x="1824" y="1305"/>
      <point x="1824" y="1174" type="curve" smooth="yes"/>
      <point x="1824" y="977.158"/>
      <point x="1762.51" y="883.402"/>
      <point x="1622.33" y="824.801" type="curve" smooth="yes"/>
      <point x="1612.7" y="820.776"/>
      <point x="1612.73" y="811.253"/>
      <point x="1622.39" y="807.29" type="curve" smooth="yes"/>
      <point x="1785.44" y="740.331"/>
      <point x="1856" y="629.942"/>
    </contour>
    <contour>
      <point x="1458" y="149" type="curve" smooth="yes"/>
      <point x="1547" y="172"/>
      <point x="1595" y="190"/>
      <point x="1630" y="250" type="curve" smooth="yes"/>
      <point x="1652" y="289"/>
      <point x="1664" y="338"/>
      <point x="1664" y="398" type="curve" smooth="yes"/>
      <point x="1664" y="539"/>
      <point x="1657" y="613"/>
      <point x="1576" y="668" type="curve" smooth="yes"/>
      <point x="1552" y="684"/>
      <point x="1522" y="697"/>
      <point x="1484" y="707" type="curve" smooth="yes"/>
      <point x="1411" y="726"/>
      <point x="1300" y="736"/>
      <point x="1152" y="736" type="curve" smooth="yes"/>
      <point x="831" y="736" type="line" smooth="yes"/>
      <point x="683" y="736"/>
      <point x="581" y="729"/>
      <point x="526" y="714" type="curve" smooth="yes"/>
      <point x="436" y="690"/>
      <point x="387" y="671"/>
      <point x="352" y="610" type="curve" smooth="yes"/>
      <point x="330" y="573"/>
      <point x="320" y="524"/>
      <point x="320" y="464" type="curve" smooth="yes"/>
      <point x="320" y="324"/>
      <point x="327" y="246"/>
      <point x="408" y="193" type="curve" smooth="yes"/>
      <point x="431" y="178"/>
      <point x="462" y="166"/>
      <point x="500" y="156" type="curve" smooth="yes"/>
      <point x="572" y="138"/>
      <point x="682" y="128"/>
      <point x="831" y="128" type="curve" smooth="yes"/>
      <point x="1152" y="128" type="line" smooth="yes"/>
      <point x="1302" y="128"/>
      <point x="1403" y="135"/>
    </contour>
    <contour>
      <point x="1548" y="948" type="curve" smooth="yes"/>
      <point x="1611" y="984"/>
      <point x="1632" y="1046"/>
      <point x="1632" y="1139" type="curve" smooth="yes"/>
      <point x="1632" y="1253"/>
      <point x="1617" y="1316"/>
      <point x="1544" y="1355" type="curve" smooth="yes"/>
      <point x="1520" y="1368"/>
      <point x="1490" y="1378"/>
      <point x="1452" y="1386" type="curve" smooth="yes"/>
      <point x="1382" y="1401"/>
      <point x="1272" y="1408"/>
      <point x="1120" y="1408" type="curve" smooth="yes"/>
      <point x="863" y="1408" type="line" smooth="yes"/>
      <point x="711" y="1408"/>
      <point x="608" y="1402"/>
      <point x="555" y="1391" type="curve" smooth="yes"/>
      <point x="424" y="1363"/>
      <point x="352" y="1328"/>
      <point x="352" y="1180" type="curve" smooth="yes"/>
      <point x="352" y="1053"/>
      <point x="361" y="989"/>
      <point x="440" y="946" type="curve" smooth="yes"/>
      <point x="463" y="933"/>
      <point x="494" y="923"/>
      <point x="532" y="916" type="curve" smooth="yes"/>
      <point x="601" y="903"/>
      <point x="711" y="896"/>
      <point x="863" y="896" type="curve" smooth="yes"/>
      <point x="1152" y="896" type="line" smooth="yes"/>
      <point x="1356" y="896"/>
      <point x="1488" y="913"/>
    </contour>
  </outline>
</glyph>
<glyph name="nine" format="1">
  <advance width="1984"/>
  <unicode hex="0039"/>
  <outline>
    <contour>
      <point x="1152" y="608" type="curve" smooth="yes"/>
      <point x="831" y="608" type="line" smooth="yes"/>
      <point x="556" y="608"/>
      <point x="367" y="648"/>
      <point x="264" y="728" type="curve" smooth="yes"/>
      <point x="165" y="805"/>
      <point x="128" y="918"/>
      <point x="128" y="1088" type="curve" smooth="yes"/>
      <point x="128" y="1258"/>
      <point x="165" y="1371"/>
      <point x="264" y="1448" type="curve" smooth="yes"/>
      <point x="367" y="1528"/>
      <point x="556" y="1568"/>
      <point x="831" y="1568" type="curve" smooth="yes"/>
      <point x="1152" y="1568" type="line" smooth="yes"/>
      <point x="1378" y="1568"/>
      <point x="1544" y="1540"/>
      <point x="1648" y="1482" type="curve" smooth="yes"/>
      <point x="1793" y="1402"/>
      <point x="1845" y="1239"/>
      <point x="1852" y="1016" type="curve" smooth="yes"/>
      <point x="1854" y="941"/>
      <point x="1856" y="857"/>
      <point x="1856" y="764" type="curve" smooth="yes"/>
      <point x="1856" y="712" type="line" smooth="yes"/>
      <point x="1856" y="484"/>
      <point x="1852" y="281"/>
      <point x="1752" y="152" type="curve" smooth="yes"/>
      <point x="1719" y="109"/>
      <point x="1672" y="75"/>
      <point x="1610" y="48" type="curve" smooth="yes"/>
      <point x="1489" y="-5"/>
      <point x="1293" y="-32"/>
      <point x="1024" y="-32" type="curve" smooth="yes"/>
      <point x="691" y="-32"/>
      <point x="464" y="7"/>
      <point x="344" y="84" type="curve" smooth="yes"/>
      <point x="253.601" y="142.054"/>
      <point x="209.286" y="219.367"/>
      <point x="196.794" y="337.616" type="curve" smooth="yes"/>
      <point x="192.203" y="381.067"/>
      <point x="223.64" y="416"/>
      <point x="267.013" y="416" type="curve"/>
      <point x="264.175" y="416" type="line"/>
      <point x="319.199" y="416"/>
      <point x="348.068" y="391.882"/>
      <point x="357.856" y="337.735" type="curve" smooth="yes"/>
      <point x="369.209" y="274.934"/>
      <point x="397.631" y="242.37"/>
      <point x="448" y="212" type="curve" smooth="yes"/>
      <point x="477" y="195"/>
      <point x="516" y="180"/>
      <point x="566" y="167" type="curve" smooth="yes"/>
      <point x="668" y="141"/>
      <point x="795" y="128"/>
      <point x="949" y="128" type="curve" smooth="yes"/>
      <point x="1103" y="128"/>
      <point x="1214" y="130"/>
      <point x="1286" y="133" type="curve" smooth="yes"/>
      <point x="1469" y="142"/>
      <point x="1593" y="171"/>
      <point x="1636" y="313" type="curve" smooth="yes"/>
      <point x="1654.22" y="372.457"/>
      <point x="1663.24" y="495.37"/>
      <point x="1663.95" y="679.975" type="curve" smooth="yes"/>
      <point x="1664" y="692.133"/>
      <point x="1654.2" y="698.077"/>
      <point x="1643.45" y="692.419" type="curve" smooth="yes"/>
      <point x="1536.46" y="636.14"/>
      <point x="1372.37" y="608"/>
    </contour>
    <contour>
      <point x="1409" y="775" type="curve" smooth="yes"/>
      <point x="1523" y="783"/>
      <point x="1610" y="806"/>
      <point x="1643" y="885" type="curve" smooth="yes"/>
      <point x="1657" y="919"/>
      <point x="1664" y="971"/>
      <point x="1664" y="1040" type="curve" smooth="yes"/>
      <point x="1664" y="1176"/>
      <point x="1643" y="1279"/>
      <point x="1566" y="1336" type="curve" smooth="yes"/>
      <point x="1474" y="1404"/>
      <point x="1328" y="1408"/>
      <point x="1152" y="1408" type="curve" smooth="yes"/>
      <point x="831" y="1408" type="line" smooth="yes"/>
      <point x="680" y="1408"/>
      <point x="578" y="1401"/>
      <point x="524" y="1388" type="curve" smooth="yes"/>
      <point x="364" y="1348"/>
      <point x="320" y="1292"/>
      <point x="320" y="1088" type="curve" smooth="yes"/>
      <point x="320" y="998"/>
      <point x="328" y="936"/>
      <point x="346" y="904" type="curve" smooth="yes"/>
      <point x="381" y="840"/>
      <point x="422" y="813"/>
      <point x="500" y="794" type="curve" smooth="yes"/>
      <point x="571" y="777"/>
      <point x="681" y="768"/>
      <point x="831" y="768" type="curve" smooth="yes"/>
      <point x="1152" y="768" type="line" smooth="yes"/>
      <point x="1257" y="768"/>
      <point x="1342" y="770"/>
    </contour>
  </outline>
</glyph>
<glyph name="colon" format="1">
  <advance width="448"/>
  <unicode hex="003A"/>
  <outline>
    <contour>
      <point x="223" y="768" type="line" smooth="yes"/>
      <point x="165.805" y="768"/>
      <point x="128" y="805.805"/>
      <point x="128" y="863" type="curve" smooth="yes"/>
      <point x="128" y="865" type="line" smooth="yes"/>
      <point x="128" y="922.195"/>
      <point x="165.805" y="960"/>
      <point x="223" y="960" type="curve" smooth="yes"/>
      <point x="225" y="960" type="line" smooth="yes"/>
      <point x="282.195" y="960"/>
      <point x="320" y="922.195"/>
      <point x="320" y="865" type="curve" smooth="yes"/>
      <point x="320" y="863" type="line" smooth="yes"/>
      <point x="320" y="805.805"/>
      <point x="282.195" y="768"/>
      <point x="225" y="768" type="curve" smooth="yes"/>
    </contour>
    <contour>
      <point x="223" y="192" type="line" smooth="yes"/>
      <point x="165.805" y="192"/>
      <point x="128" y="229.805"/>
      <point x="128" y="287" type="curve" smooth="yes"/>
      <point x="128" y="289" type="line" smooth="yes"/>
      <point x="128" y="346.195"/>
      <point x="165.805" y="384"/>
      <point x="223" y="384" type="curve" smooth="yes"/>
      <point x="225" y="384" type="line" smooth="yes"/>
      <point x="282.195" y="384"/>
      <point x="320" y="346.195"/>
      <point x="320" y="289" type="curve" smooth="yes"/>
      <point x="320" y="287" type="line" smooth="yes"/>
      <point x="320" y="229.805"/>
      <point x="282.195" y="192"/>
      <point x="225" y="192" type="curve" smooth="yes"/>
    </contour>
  </outline>
</glyph>
<glyph name="semicolon" format="1">
  <advance width="448"/>
  <unicode hex="003B"/>
  <outline>
    <contour>
      <point x="225" y="512" type="line" smooth="yes"/>
      <point x="277.203" y="512"/>
      <point x="306.466" y="471.399"/>
      <point x="289.958" y="421.875" type="curve" smooth="yes"/>
      <point x="211.922" y="187.767" type="line" smooth="yes"/>
      <point x="199.248" y="149.743"/>
      <point x="169.081" y="128"/>
      <point x="129" y="128" type="curve" smooth="yes"/>
      <point x="127" y="128" type="line" smooth="yes"/>
      <point x="90.6233" y="128"/>
      <point x="68.3768" y="154.261"/>
      <point x="74.3571" y="190.143" type="curve" smooth="yes"/>
      <point x="112.382" y="418.293" type="line" smooth="yes"/>
      <point x="122.095" y="476.569"/>
      <point x="163.92" y="512"/>
      <point x="223" y="512" type="curve" smooth="yes"/>
    </contour>
    <contour>
      <point x="223" y="768" type="line" smooth="yes"/>
      <point x="165.805" y="768"/>
      <point x="128" y="805.805"/>
      <point x="128" y="863" type="curve" smooth="yes"/>
      <point x="128" y="865" type="line" smooth="yes"/>
      <point x="128" y="922.195"/>
      <point x="165.805" y="960"/>
      <point x="223" y="960" type="curve" smooth="yes"/>
      <point x="225" y="960" type="line" smooth="yes"/>
      <point x="282.195" y="960"/>
      <point x="320" y="922.195"/>
      <point x="320" y="865" type="curve" smooth="yes"/>
      <point x="320" y="863" type="line" smooth="yes"/>
      <point x="320" y="805.805"/>
      <point x="282.195" y="768"/>
      <point x="225" y="768" type="curve" smooth="yes"/>
    </contour>
  </outline>
</glyph>
<glyph name="less" format="1">
  <advance width="1152"/>
  <unicode hex="003C"/>
  <outline>
    <contour>
      <point x="1024" y="1316" type="line" smooth="yes"/>
      <point x="1024" y="1251.45"/>
      <point x="992.431" y="1199.88"/>
      <point x="934.939" y="1170.52" type="curve" smooth="yes"/>
      <point x="293.375" y="842.915" type="line" smooth="yes"/>
      <point x="282.974" y="837.604"/>
      <point x="282.974" y="826.396"/>
      <point x="293.375" y="821.085" type="curve" smooth="yes"/>
      <point x="934.939" y="493.478" type="line" smooth="yes"/>
      <point x="992.431" y="464.12"/>
      <point x="1024" y="412.553"/>
      <point x="1024" y="348" type="curve" smooth="yes"/>
      <point x="1024" y="292" type="line" smooth="yes"/>
      <point x="1024" y="242"/>
      <point x="981.261" y="217.949"/>
      <point x="938.521" y="243.898" type="curve" smooth="yes"/>
      <point x="209.205" y="686.697" type="line" smooth="yes"/>
      <point x="156.553" y="718.664"/>
      <point x="128" y="769.404"/>
      <point x="128" y="831" type="curve" smooth="yes"/>
      <point x="128" y="833" type="line" smooth="yes"/>
      <point x="128" y="894.596"/>
      <point x="156.553" y="945.336"/>
      <point x="209.205" y="977.303" type="curve" smooth="yes"/>
      <point x="938.521" y="1420.1" type="line" smooth="yes"/>
      <point x="981.261" y="1446.05"/>
      <point x="1024" y="1422"/>
      <point x="1024" y="1372" type="curve" smooth="yes"/>
    </contour>
  </outline>
</glyph>
<glyph name="equal" format="1">
  <advance width="1472"/>
  <unicode hex="003D"/>
  <outline>
    <contour>
      <point x="1265" y="1024" type="line" smooth="yes"/>
      <point x="1312.56" y="1024"/>
      <point x="1344" y="992.562"/>
      <point x="1344" y="945" type="curve" smooth="yes"/>
      <point x="1344" y="943" type="line" smooth="yes"/>
      <point x="1344" y="895.438"/>
      <point x="1312.56" y="864"/>
      <point x="1265" y="864" type="curve" smooth="yes"/>
      <point x="207" y="864" type="line" smooth="yes"/>
      <point x="159.438" y="864"/>
      <point x="128" y="895.438"/>
      <point x="128" y="943" type="curve" smooth="yes"/>
      <point x="128" y="945" type="line" smooth="yes"/>
      <point x="128" y="992.562"/>
      <point x="159.438" y="1024"/>
      <point x="207" y="1024" type="curve" smooth="yes"/>
    </contour>
    <contour>
      <point x="1265" y="480" type="line" smooth="yes"/>
      <point x="1312.56" y="480"/>
      <point x="1344" y="448.562"/>
      <point x="1344" y="401" type="curve" smooth="yes"/>
      <point x="1344" y="399" type="line" smooth="yes"/>
      <point x="1344" y="351.438"/>
      <point x="1312.56" y="320"/>
      <point x="1265" y="320" type="curve" smooth="yes"/>
      <point x="207" y="320" type="line" smooth="yes"/>
      <point x="159.438" y="320"/>
      <point x="128" y="351.438"/>
      <point x="128" y="399" type="curve" smooth="yes"/>
      <point x="128" y="401" type="line" smooth="yes"/>
      <point x="128" y="448.562"/>
      <point x="159.438" y="480"/>
      <point x="207" y="480" type="curve" smooth="yes"/>
    </contour>
  </outline>
</glyph>
<glyph name="greater" format="1">
  <advance width="1152"/>
  <unicode hex="003E"/>
  <outline>
    <contour>
      <point x="1024" y="831" type="line" smooth="yes"/>
      <point x="1024" y="769.404"/>
      <point x="995.447" y="718.664"/>
      <point x="942.795" y="686.697" type="curve" smooth="yes"/>
      <point x="213.479" y="243.898" type="line" smooth="yes"/>
      <point x="170.739" y="217.949"/>
      <point x="128" y="242"/>
      <point x="128" y="292" type="curve" smooth="yes"/>
      <point x="128" y="348" type="line" smooth="yes"/>
      <point x="128" y="412.553"/>
      <point x="159.569" y="464.12"/>
      <point x="217.061" y="493.478" type="curve" smooth="yes"/>
      <point x="858.625" y="821.085" type="line" smooth="yes"/>
      <point x="869.026" y="826.396"/>
      <point x="869.026" y="837.604"/>
      <point x="858.625" y="842.915" type="curve" smooth="yes"/>
      <point x="217.061" y="1170.52" type="line" smooth="yes"/>
      <point x="159.569" y="1199.88"/>
      <point x="128" y="1251.45"/>
      <point x="128" y="1316" type="curve" smooth="yes"/>
      <point x="128" y="1372" type="line" smooth="yes"/>
      <point x="128" y="1422"/>
      <point x="170.739" y="1446.05"/>
      <point x="213.479" y="1420.1" type="curve" smooth="yes"/>
      <point x="942.795" y="977.303" type="line" smooth="yes"/>
      <point x="995.447" y="945.336"/>
      <point x="1024" y="894.596"/>
      <point x="1024" y="833" type="curve" smooth="yes"/>
    </contour>
  </outline>
</glyph>
<glyph name="question" format="1">
  <advance width="1856"/>
  <unicode hex="003F"/>
  <outline>
    <contour>
      <point x="1292" y="736" type="curve" smooth="yes"/>
      <point x="1093" y="736"/>
      <point x="946" y="728"/>
      <point x="910" y="571" type="curve" smooth="yes"/>
      <point x="902.81" y="540.802"/>
      <point x="898.722" y="488.892"/>
      <point x="896.992" y="416.014" type="curve" smooth="yes"/>
      <point x="895.608" y="357.704"/>
      <point x="858.022" y="321"/>
      <point x="799.737" y="321" type="curve" smooth="yes"/>
      <point x="736" y="321" type="line" smooth="yes"/>
      <point x="716.734" y="321"/>
      <point x="704" y="333.734"/>
      <point x="704" y="353" type="curve" smooth="yes"/>
      <point x="704" y="387" type="line" smooth="yes"/>
      <point x="704" y="496"/>
      <point x="709" y="572"/>
      <point x="720" y="616" type="curve" smooth="yes"/>
      <point x="772" y="826"/>
      <point x="940" y="896"/>
      <point x="1216" y="896" type="curve" smooth="yes"/>
      <point x="1438" y="896"/>
      <point x="1535" y="943"/>
      <point x="1535" y="1152" type="curve" smooth="yes"/>
      <point x="1535" y="1273"/>
      <point x="1507" y="1340"/>
      <point x="1424" y="1374" type="curve" smooth="yes"/>
      <point x="1384" y="1390"/>
      <point x="1331" y="1401"/>
      <point x="1266" y="1404" type="curve" smooth="yes"/>
      <point x="1201" y="1407"/>
      <point x="1115" y="1408"/>
      <point x="1008" y="1408" type="curve" smooth="yes"/>
      <point x="831" y="1408"/>
      <point x="667" y="1408"/>
      <point x="528" y="1388" type="curve" smooth="yes"/>
      <point x="411" y="1371"/>
      <point x="333" y="1343"/>
      <point x="324" y="1228" type="curve" smooth="yes"/>
      <point x="322.904" y="1211.56"/>
      <point x="321.809" y="1193.63"/>
      <point x="321.042" y="1174.03" type="curve" smooth="yes"/>
      <point x="319.777" y="1141.71"/>
      <point x="299.286" y="1122"/>
      <point x="266.969" y="1122" type="curve" smooth="yes"/>
      <point x="217.016" y="1122" type="line" smooth="yes"/>
      <point x="165.257" y="1122"/>
      <point x="127.066" y="1165.5"/>
      <point x="133.771" y="1216.83" type="curve" smooth="yes"/>
      <point x="146.164" y="1311.69"/>
      <point x="178.611" y="1384.9"/>
      <point x="232" y="1436" type="curve" smooth="yes"/>
      <point x="318" y="1519"/>
      <point x="494" y="1562"/>
      <point x="758" y="1566" type="curve" smooth="yes"/>
      <point x="840" y="1567"/>
      <point x="923" y="1568"/>
      <point x="1008" y="1568" type="curve" smooth="yes"/>
      <point x="1034" y="1568" type="line" smooth="yes"/>
      <point x="1288" y="1568"/>
      <point x="1526" y="1566"/>
      <point x="1645" y="1432" type="curve" smooth="yes"/>
      <point x="1700" y="1370"/>
      <point x="1728" y="1277"/>
      <point x="1728" y="1153" type="curve" smooth="yes"/>
      <point x="1728" y="890"/>
      <point x="1572" y="736"/>
    </contour>
    <contour>
      <point x="799" y="-1.16341e-14" type="line" smooth="yes"/>
      <point x="741.805" y="-4.62983e-15"/>
      <point x="704" y="37.8055"/>
      <point x="704" y="95" type="curve" smooth="yes"/>
      <point x="704" y="97" type="line" smooth="yes"/>
      <point x="704" y="154.195"/>
      <point x="741.805" y="192"/>
      <point x="799" y="192" type="curve" smooth="yes"/>
      <point x="801" y="192" type="line" smooth="yes"/>
      <point x="858.195" y="192"/>
      <point x="896" y="154.195"/>
      <point x="896" y="97" type="curve" smooth="yes"/>
      <point x="896" y="95" type="line" smooth="yes"/>
      <point x="896" y="37.8055"/>
      <point x="858.195" y="4.62983e-15"/>
      <point x="801" y="1.16341e-14" type="curve" smooth="yes"/>
    </contour>
  </outline>
</glyph>
<glyph name="at" format="1">
  <advance width="2240"/>
  <unicode hex="0040"/>
  <outline>
    <contour>
      <point x="1082" y="288" type="curve" smooth="yes"/>
      <point x="1123" y="288" type="line" smooth="yes"/>
      <point x="1242" y="288"/>
      <point x="1349" y="289"/>
      <point x="1418" y="332" type="curve" smooth="yes"/>
      <point x="1476" y="368"/>
      <point x="1504" y="448"/>
      <point x="1504" y="573" type="curve" smooth="yes"/>
      <point x="1504" y="762"/>
      <point x="1451" y="840"/>
      <point x="1298" y="856" type="curve" smooth="yes"/>
      <point x="1249" y="861"/>
      <point x="1190" y="864"/>
      <point x="1123" y="864" type="curve" smooth="yes"/>
      <point x="1080" y="864" type="line" smooth="yes"/>
      <point x="987" y="864"/>
      <point x="911" y="862"/>
      <point x="840" y="846" type="curve" smooth="yes"/>
      <point x="717" y="818"/>
      <point x="704" y="747"/>
      <point x="704" y="576" type="curve" smooth="yes"/>
      <point x="704" y="484"/>
      <point x="710" y="424"/>
      <point x="722" y="397" type="curve" smooth="yes"/>
      <point x="746" y="343"/>
      <point x="777" y="320"/>
      <point x="840" y="306" type="curve" smooth="yes"/>
      <point x="911" y="290"/>
      <point x="989" y="288"/>
    </contour>
    <contour>
      <point x="1920" y="480" type="curve" smooth="yes"/>
      <point x="1920" y="768" type="line" smooth="yes"/>
      <point x="1920" y="1037"/>
      <point x="1857" y="1138"/>
      <point x="1635" y="1185" type="curve" smooth="yes"/>
      <point x="1537" y="1206"/>
      <point x="1403" y="1216"/>
      <point x="1232" y="1216" type="curve" smooth="yes"/>
      <point x="1061" y="1216"/>
      <point x="933" y="1214"/>
      <point x="846" y="1211" type="curve" smooth="yes"/>
      <point x="621" y="1202"/>
      <point x="453" y="1167"/>
      <point x="380" y="1012" type="curve" smooth="yes"/>
      <point x="341" y="929"/>
      <point x="321" y="784"/>
      <point x="321" y="576" type="curve" smooth="yes"/>
      <point x="321" y="379"/>
      <point x="340" y="238"/>
      <point x="380" y="154" type="curve" smooth="yes"/>
      <point x="451" y="4"/>
      <point x="623" y="-43"/>
      <point x="846" y="-56" type="curve" smooth="yes"/>
      <point x="928.694" y="-60.7525"/>
      <point x="1217.37" y="-63.6981"/>
      <point x="1712.04" y="-63.9781" type="curve" smooth="yes"/>
      <point x="1759.6" y="-64.005"/>
      <point x="1791" y="-95.4231"/>
      <point x="1791" y="-142.982" type="curve" smooth="yes"/>
      <point x="1791" y="-145" type="line" smooth="yes"/>
      <point x="1791" y="-192.562"/>
      <point x="1759.56" y="-224"/>
      <point x="1712" y="-224" type="curve" smooth="yes"/>
      <point x="1152" y="-224" type="line" smooth="yes"/>
      <point x="860" y="-224"/>
      <point x="638" y="-196"/>
      <point x="488" y="-138" type="curve" smooth="yes"/>
      <point x="345" y="-83"/>
      <point x="247" y="6"/>
      <point x="194" y="127" type="curve" smooth="yes"/>
      <point x="150" y="227"/>
      <point x="128" y="377"/>
      <point x="128" y="576" type="curve" smooth="yes"/>
      <point x="128" y="804"/>
      <point x="150" y="968"/>
      <point x="194" y="1068" type="curve" smooth="yes"/>
      <point x="245" y="1184"/>
      <point x="343" y="1265"/>
      <point x="488" y="1310" type="curve" smooth="yes"/>
      <point x="628" y="1354"/>
      <point x="849" y="1376"/>
      <point x="1152" y="1376" type="curve" smooth="yes"/>
      <point x="1530" y="1376"/>
      <point x="1786" y="1331"/>
      <point x="1920" y="1240" type="curve" smooth="yes"/>
      <point x="1967" y="1208"/>
      <point x="2006" y="1169"/>
      <point x="2034" y="1124" type="curve" smooth="yes"/>
      <point x="2062" y="1079"/>
      <point x="2088" y="865"/>
      <point x="2112" y="480" type="curve"/>
      <point x="2112" y="346"/>
      <point x="2092" y="255"/>
      <point x="2053" y="208" type="curve" smooth="yes"/>
      <point x="2009" y="155"/>
      <point x="1921" y="128"/>
      <point x="1791" y="128" type="curve" smooth="yes"/>
      <point x="1662.46" y="128"/>
      <point x="1577.94" y="179.056"/>
      <point x="1567.99" y="296.035" type="curve" smooth="yes"/>
      <point x="1567.27" y="304.459"/>
      <point x="1560.18" y="306.095"/>
      <point x="1555.86" y="298.864" type="curve" smooth="yes"/>
      <point x="1525.37" y="247.814"/>
      <point x="1477.46" y="213.616"/>
      <point x="1428" y="188" type="curve" smooth="yes"/>
      <point x="1349" y="147"/>
      <point x="1241" y="128"/>
      <point x="1120" y="128" type="curve" smooth="yes"/>
      <point x="865" y="128"/>
      <point x="639" y="141"/>
      <point x="556" y="307" type="curve" smooth="yes"/>
      <point x="527" y="366"/>
      <point x="512" y="455"/>
      <point x="512" y="576" type="curve" smooth="yes"/>
      <point x="512" y="815"/>
      <point x="559" y="929"/>
      <point x="734" y="984" type="curve" smooth="yes"/>
      <point x="819" y="1011"/>
      <point x="947" y="1024"/>
      <point x="1117" y="1024" type="curve" smooth="yes"/>
      <point x="1254" y="1024"/>
      <point x="1360" y="997"/>
      <point x="1435" y="944" type="curve" smooth="yes"/>
      <point x="1459.34" y="926.503"/>
      <point x="1478.48" y="906.691"/>
      <point x="1492.41" y="885.004" type="curve" smooth="yes"/>
      <point x="1496.91" y="877.996"/>
      <point x="1504" y="880.078"/>
      <point x="1504" y="888.407" type="curve" smooth="yes"/>
      <point x="1504" y="929" type="line" smooth="yes"/>
      <point x="1504" y="966.929"/>
      <point x="1529.07" y="992"/>
      <point x="1567" y="992" type="curve" smooth="yes"/>
      <point x="1601" y="992" type="line" smooth="yes"/>
      <point x="1658.19" y="992"/>
      <point x="1696" y="954.195"/>
      <point x="1696" y="897" type="curve" smooth="yes"/>
      <point x="1696" y="480" type="line" smooth="yes"/>
      <point x="1696" y="397"/>
      <point x="1700" y="347"/>
      <point x="1708" y="329" type="curve" smooth="yes"/>
      <point x="1725" y="293"/>
      <point x="1745" y="288"/>
      <point x="1796" y="288" type="curve" smooth="yes"/>
      <point x="1915" y="288"/>
      <point x="1920" y="338"/>
    </contour>
  </outline>
</glyph>
<glyph name="A" format="1">
  <advance width="2176"/>
  <unicode hex="0041"/>
  <outline>
    <contour>
      <point x="504" y="352" type="line" smooth="yes"/>
      <point x="488.479" y="352"/>
      <point x="475.94" y="344.557"/>
      <point x="468.508" y="330.931" type="curve" smooth="yes"/>
      <point x="335.885" y="87.7896" type="line" smooth="yes"/>
      <point x="304.917" y="31.0138"/>
      <point x="252.673" y="4.32637e-15"/>
      <point x="188" y="1.22465e-14" type="curve" smooth="yes"/>
      <point x="164" y="-1.22465e-14" type="line" smooth="yes"/>
      <point x="113.556" y="-6.06891e-15"/>
      <point x="88.97" y="42.8058"/>
      <point x="114.387" y="86.3779" type="curve" smooth="yes"/>
      <point x="909.613" y="1449.62" type="line" smooth="yes"/>
      <point x="942.254" y="1505.58"/>
      <point x="995.219" y="1536"/>
      <point x="1060" y="1536" type="curve" smooth="yes"/>
      <point x="1116" y="1536" type="line" smooth="yes"/>
      <point x="1180.78" y="1536"/>
      <point x="1233.75" y="1505.58"/>
      <point x="1266.39" y="1449.62" type="curve" smooth="yes"/>
      <point x="2061.61" y="86.3779" type="line" smooth="yes"/>
      <point x="2087.03" y="42.8058"/>
      <point x="2062.44" y="6.06891e-15"/>
      <point x="2012" y="1.22465e-14" type="curve" smooth="yes"/>
      <point x="1988" y="-1.22465e-14" type="line" smooth="yes"/>
      <point x="1923.33" y="-4.32637e-15"/>
      <point x="1871.08" y="31.0138"/>
      <point x="1840.11" y="87.7896" type="curve" smooth="yes"/>
      <point x="1707.49" y="330.931" type="line" smooth="yes"/>
      <point x="1700.06" y="344.557"/>
      <point x="1687.52" y="352"/>
      <point x="1672" y="352" type="curve" smooth="yes"/>
    </contour>
    <contour>
      <point x="1099.91" y="1387.16" type="line" smooth="yes"/>
      <point x="1093.95" y="1397.58"/>
      <point x="1082.05" y="1397.58"/>
      <point x="1076.09" y="1387.16" type="curve" smooth="yes"/>
      <point x="587.907" y="532.838" type="line" smooth="yes"/>
      <point x="581.924" y="522.367"/>
      <point x="587.94" y="512"/>
      <point x="600" y="512" type="curve" smooth="yes"/>
      <point x="1576" y="512" type="line" smooth="yes"/>
      <point x="1588.06" y="512"/>
      <point x="1594.08" y="522.367"/>
      <point x="1588.09" y="532.838" type="curve" smooth="yes"/>
    </contour>
  </outline>
</glyph>
<glyph name="B" format="1">
  <advance width="2112"/>
  <unicode hex="0042"/>
  <outline>
    <contour>
      <point x="1920" y="1186" type="curve" smooth="yes"/>
      <point x="1920" y="992.565"/>
      <point x="1844.64" y="857.241"/>
      <point x="1687.86" y="834.536" type="curve" smooth="yes"/>
      <point x="1683.51" y="833.906"/>
      <point x="1683.57" y="830.503"/>
      <point x="1687.94" y="830.036" type="curve" smooth="yes"/>
      <point x="1777.14" y="820.495"/>
      <point x="1835.07" y="788.328"/>
      <point x="1882" y="746" type="curve" smooth="yes"/>
      <point x="1940" y="694"/>
      <point x="1984" y="595"/>
      <point x="1984" y="498" type="curve" smooth="yes"/>
      <point x="1984" y="321"/>
      <point x="1970" y="203"/>
      <point x="1880" y="119" type="curve" smooth="yes"/>
      <point x="1851" y="92"/>
      <point x="1814" y="70"/>
      <point x="1766" y="52" type="curve" smooth="yes"/>
      <point x="1672" y="17"/>
      <point x="1530" y="0"/>
      <point x="1343" y="0" type="curve" smooth="yes"/>
      <point x="292" y="-1.22465e-14" type="line" smooth="yes"/>
      <point x="231.795" y="-4.87351e-15"/>
      <point x="192" y="39.7952"/>
      <point x="192" y="100" type="curve" smooth="yes"/>
      <point x="192" y="1436" type="line" smooth="yes"/>
      <point x="192" y="1496.2"/>
      <point x="231.795" y="1536"/>
      <point x="292" y="1536" type="curve" smooth="yes"/>
      <point x="1473" y="1536" type="line" smooth="yes"/>
      <point x="1784" y="1536"/>
      <point x="1920" y="1466"/>
    </contour>
    <contour>
      <point x="1595" y="175" type="curve" smooth="yes"/>
      <point x="1680" y="192"/>
      <point x="1726" y="210"/>
      <point x="1758" y="268" type="curve" smooth="yes"/>
      <point x="1780" y="309"/>
      <point x="1792" y="379"/>
      <point x="1792" y="478" type="curve" smooth="yes"/>
      <point x="1792" y="651"/>
      <point x="1746" y="696"/>
      <point x="1612" y="719" type="curve" smooth="yes"/>
      <point x="1547" y="730"/>
      <point x="1436" y="736"/>
      <point x="1279" y="736" type="curve" smooth="yes"/>
      <point x="408" y="736" type="line" smooth="yes"/>
      <point x="393.593" y="736"/>
      <point x="384" y="726.407"/>
      <point x="384" y="712" type="curve" smooth="yes"/>
      <point x="384" y="184" type="line" smooth="yes"/>
      <point x="384" y="169.593"/>
      <point x="393.593" y="160"/>
      <point x="408" y="160" type="curve" smooth="yes"/>
      <point x="1279" y="160" type="line" smooth="yes"/>
      <point x="1440" y="160"/>
      <point x="1545" y="165"/>
    </contour>
    <contour>
      <point x="1551" y="911" type="curve" smooth="yes"/>
      <point x="1628" y="928"/>
      <point x="1669" y="944"/>
      <point x="1698" y="996" type="curve" smooth="yes"/>
      <point x="1718" y="1031"/>
      <point x="1728" y="1080"/>
      <point x="1728" y="1143" type="curve" smooth="yes"/>
      <point x="1728" y="1250"/>
      <point x="1723" y="1305"/>
      <point x="1664" y="1340" type="curve" smooth="yes"/>
      <point x="1623" y="1364"/>
      <point x="1538" y="1376"/>
      <point x="1409" y="1376" type="curve" smooth="yes"/>
      <point x="408" y="1376" type="line" smooth="yes"/>
      <point x="393.593" y="1376"/>
      <point x="384" y="1366.41"/>
      <point x="384" y="1352" type="curve" smooth="yes"/>
      <point x="384" y="920" type="line" smooth="yes"/>
      <point x="384" y="905.593"/>
      <point x="393.593" y="896"/>
      <point x="408" y="896" type="curve" smooth="yes"/>
      <point x="1279" y="896" type="line" smooth="yes"/>
      <point x="1415" y="896"/>
      <point x="1506" y="901"/>
    </contour>
  </outline>
</glyph>
<glyph name="D" format="1">
  <advance width="2176"/>
  <unicode hex="0044"/>
  <outline>
    <contour>
      <point x="1684" y="188" type="curve" smooth="yes"/>
      <point x="1778" y="223"/>
      <point x="1815" y="266"/>
      <point x="1836" y="366" type="curve" smooth="yes"/>
      <point x="1849" y="427"/>
      <point x="1856" y="561"/>
      <point x="1856" y="768" type="curve" smooth="yes"/>
      <point x="1856" y="975"/>
      <point x="1850" y="1105"/>
      <point x="1839" y="1158" type="curve" smooth="yes"/>
      <point x="1818" y="1257"/>
      <point x="1786" y="1309"/>
      <point x="1703" y="1340" type="curve" smooth="yes"/>
      <point x="1640" y="1364"/>
      <point x="1520" y="1376"/>
      <point x="1343" y="1376" type="curve" smooth="yes"/>
      <point x="408" y="1376" type="line" smooth="yes"/>
      <point x="393.593" y="1376"/>
      <point x="384" y="1366.41"/>
      <point x="384" y="1352" type="curve" smooth="yes"/>
      <point x="384" y="184" type="line" smooth="yes"/>
      <point x="384" y="169.593"/>
      <point x="393.593" y="160"/>
      <point x="408" y="160" type="curve" smooth="yes"/>
      <point x="1343" y="160" type="line" smooth="yes"/>
      <point x="1520" y="160"/>
      <point x="1634" y="169"/>
    </contour>
    <contour>
      <point x="192" y="1436" type="line" smooth="yes"/>
      <point x="192" y="1496.2"/>
      <point x="231.795" y="1536"/>
      <point x="292" y="1536" type="curve" smooth="yes"/>
      <point x="1343" y="1536" type="line" smooth="yes"/>
      <point x="1570" y="1536"/>
      <point x="1735" y="1508"/>
      <point x="1838" y="1453" type="curve" smooth="yes"/>
      <point x="1984" y="1375"/>
      <point x="2037" y="1223"/>
      <point x="2044" y="1006" type="curve" smooth="yes"/>
      <point x="2046" y="934"/>
      <point x="2048" y="855"/>
      <point x="2048" y="768" type="curve" smooth="yes"/>
      <point x="2048" y="716" type="line" smooth="yes"/>
      <point x="2048" y="505"/>
      <point x="2045" y="314"/>
      <point x="1960" y="188" type="curve" smooth="yes"/>
      <point x="1932" y="146"/>
      <point x="1890" y="111"/>
      <point x="1838" y="83" type="curve" smooth="yes"/>
      <point x="1735" y="28"/>
      <point x="1570" y="0"/>
      <point x="1343" y="0" type="curve" smooth="yes"/>
      <point x="292" y="-1.22465e-14" type="line" smooth="yes"/>
      <point x="231.795" y="-4.87351e-15"/>
      <point x="192" y="39.7952"/>
      <point x="192" y="100" type="curve" smooth="yes"/>
    </contour>
  </outline>
</glyph>
<glyph name="E" format="1">
  <advance width="1792"/>
  <unicode hex="0045"/>
  <outline>
    <contour>
      <point x="192" y="1436" type="line" smooth="yes"/>
      <point x="192" y="1496.2"/>
      <point x="231.795" y="1536"/>
      <point x="292" y="1536" type="curve" smooth="yes"/>
      <point x="1621" y="1536" type="line" smooth="yes"/>
      <point x="1668.56" y="1536"/>
      <point x="1700" y="1504.56"/>
      <point x="1700" y="1457" type="curve" smooth="yes"/>
      <point x="1700" y="1455" type="line" smooth="yes"/>
      <point x="1700" y="1407.44"/>
      <point x="1668.56" y="1376"/>
      <point x="1621" y="1376" type="curve" smooth="yes"/>
      <point x="408" y="1376" type="line" smooth="yes"/>
      <point x="393.593" y="1376"/>
      <point x="384" y="1366.41"/>
      <point x="384" y="1352" type="curve" smooth="yes"/>
      <point x="384" y="888" type="line" smooth="yes"/>
      <point x="384" y="873.593"/>
      <point x="393.593" y="864"/>
      <point x="408" y="864" type="curve" smooth="yes"/>
      <point x="1566" y="864" type="line" smooth="yes"/>
      <point x="1613.56" y="864"/>
      <point x="1645" y="832.562"/>
      <point x="1645" y="785" type="curve" smooth="yes"/>
      <point x="1645" y="783" type="line" smooth="yes"/>
      <point x="1645" y="735.438"/>
      <point x="1613.56" y="704"/>
      <point x="1566" y="704" type="curve" smooth="yes"/>
      <point x="408" y="704" type="line" smooth="yes"/>
      <point x="393.593" y="704"/>
      <point x="384" y="694.407"/>
      <point x="384" y="680" type="curve" smooth="yes"/>
      <point x="384" y="184" type="line" smooth="yes"/>
      <point x="384" y="169.593"/>
      <point x="393.593" y="160"/>
      <point x="408" y="160" type="curve" smooth="yes"/>
      <point x="1649" y="160" type="line" smooth="yes"/>
      <point x="1696.56" y="160"/>
      <point x="1728" y="128.562"/>
      <point x="1728" y="81" type="curve" smooth="yes"/>
      <point x="1728" y="79" type="line" smooth="yes"/>
      <point x="1728" y="31.4382"/>
      <point x="1696.56" y="3.85007e-15"/>
      <point x="1649" y="9.67471e-15" type="curve" smooth="yes"/>
      <point x="292" y="-1.22465e-14" type="line" smooth="yes"/>
      <point x="231.795" y="-4.87351e-15"/>
      <point x="192" y="39.7952"/>
      <point x="192" y="100" type="curve" smooth="yes"/>
    </contour>
  </outline>
</glyph>
<glyph name="F" format="1">
  <advance width="1728"/>
  <unicode hex="0046"/>
  <outline>
    <contour>
      <point x="192" y="1436" type="line" smooth="yes"/>
      <point x="192" y="1496.2"/>
      <point x="231.795" y="1536"/>
      <point x="292" y="1536" type="curve" smooth="yes"/>
      <point x="1585" y="1536" type="line" smooth="yes"/>
      <point x="1632.56" y="1536"/>
      <point x="1664" y="1504.56"/>
      <point x="1664" y="1457" type="curve" smooth="yes"/>
      <point x="1664" y="1455" type="line" smooth="yes"/>
      <point x="1664" y="1407.44"/>
      <point x="1632.56" y="1376"/>
      <point x="1585" y="1376" type="curve" smooth="yes"/>
      <point x="408" y="1376" type="line" smooth="yes"/>
      <point x="393.593" y="1376"/>
      <point x="384" y="1366.41"/>
      <point x="384" y="1352" type="curve" smooth="yes"/>
      <point x="384" y="888" type="line" smooth="yes"/>
      <point x="384" y="873.593"/>
      <point x="393.593" y="864"/>
      <point x="408" y="864" type="curve" smooth="yes"/>
      <point x="1521" y="864" type="line" smooth="yes"/>
      <point x="1568.56" y="864"/>
      <point x="1600" y="832.562"/>
      <point x="1600" y="785" type="curve" smooth="yes"/>
      <point x="1600" y="783" type="line" smooth="yes"/>
      <point x="1600" y="735.438"/>
      <point x="1568.56" y="704"/>
      <point x="1521" y="704" type="curve" smooth="yes"/>
      <point x="408" y="704" type="line" smooth="yes"/>
      <point x="393.593" y="704"/>
      <point x="384" y="694.407"/>
      <point x="384" y="680" type="curve" smooth="yes"/>
      <point x="384" y="95" type="line" smooth="yes"/>
      <point x="384" y="37.8055"/>
      <point x="346.195" y="4.62983e-15"/>
      <point x="289" y="1.16341e-14" type="curve" smooth="yes"/>
      <point x="287" y="-1.16341e-14" type="line" smooth="yes"/>
      <point x="229.805" y="-4.62983e-15"/>
      <point x="192" y="37.8055"/>
      <point x="192" y="95" type="curve" smooth="yes"/>
    </contour>
  </outline>
</glyph>
<glyph name="G" format="1">
  <advance width="2177"/>
  <unicode hex="0047"/>
  <outline>
    <contour>
      <point x="1166" y="608" type="line" smooth="yes"/>
      <point x="1118.44" y="608"/>
      <point x="1087" y="639.438"/>
      <point x="1087" y="687" type="curve" smooth="yes"/>
      <point x="1087" y="689" type="line" smooth="yes"/>
      <point x="1087" y="736.562"/>
      <point x="1118.44" y="768"/>
      <point x="1166" y="768" type="curve" smooth="yes"/>
      <point x="1914" y="768" type="line" smooth="yes"/>
      <point x="1954.94" y="768"/>
      <point x="1968.63" y="730.193"/>
      <point x="1937.18" y="703.982" type="curve" smooth="yes"/>
      <point x="1898.82" y="672.018" type="line" smooth="yes"/>
      <point x="1849.3" y="630.747"/>
      <point x="1786.47" y="608"/>
      <point x="1722" y="608" type="curve" smooth="yes"/>
    </contour>
    <contour>
      <point x="1171" y="1484" type="line" smooth="yes"/>
      <point x="1171" y="1434.63"/>
      <point x="1138.37" y="1402"/>
      <point x="1089" y="1402" type="curve" smooth="yes"/>
      <point x="871" y="1402" type="line" smooth="yes"/>
      <point x="421.862" y="1402"/>
      <point x="330.02" y="1377.18"/>
      <point x="320.823" y="885.08" type="curve" smooth="yes"/>
      <point x="319.666" y="823.177"/>
      <point x="284.358" y="780.575"/>
      <point x="223.984" y="767.997" type="curve" smooth="yes"/>
      <point x="146.601" y="751.875" type="line" smooth="yes"/>
      <point x="136.065" y="749.68"/>
      <point x="128" y="756.238"/>
      <point x="128" y="767" type="curve" smooth="yes"/>
      <point x="128" y="788" type="line" smooth="yes"/>
      <point x="128" y="1467"/>
      <point x="271" y="1568"/>
      <point x="871" y="1568" type="curve" smooth="yes"/>
      <point x="1089" y="1568" type="line" smooth="yes"/>
      <point x="1138.37" y="1568"/>
      <point x="1171" y="1535.37"/>
      <point x="1171" y="1486" type="curve" smooth="yes"/>
    </contour>
    <contour>
      <point x="301.399" y="784.125" type="line" smooth="yes"/>
      <point x="311.935" y="786.32"/>
      <point x="320" y="779.762"/>
      <point x="320" y="769" type="curve" smooth="yes"/>
      <point x="320" y="748" type="line" smooth="yes"/>
      <point x="320" y="182"/>
      <point x="394" y="134"/>
      <point x="871" y="134" type="curve" smooth="yes"/>
      <point x="1089" y="134" type="line" smooth="yes"/>
      <point x="1138.37" y="134"/>
      <point x="1171" y="101.368"/>
      <point x="1171" y="52" type="curve" smooth="yes"/>
      <point x="1171" y="50" type="line" smooth="yes"/>
      <point x="1171" y="0.63208"/>
      <point x="1138.37" y="-32"/>
      <point x="1089" y="-32" type="curve" smooth="yes"/>
      <point x="871" y="-32" type="line" smooth="yes"/>
      <point x="301.725" y="-32"/>
      <point x="143.844" y="76.9248"/>
      <point x="129.167" y="650.937" type="curve" smooth="yes"/>
      <point x="127.649" y="710.303"/>
      <point x="163.342" y="755.363"/>
      <point x="221.479" y="767.475" type="curve" smooth="yes"/>
    </contour>
    <contour>
      <point x="1946.01" y="711.344" type="line" smooth="yes"/>
      <point x="1977.56" y="737.632"/>
      <point x="2014" y="720.563"/>
      <point x="2014" y="679.5" type="curve" smooth="yes"/>
      <point x="2014" y="589" type="line" smooth="yes"/>
      <point x="2014" y="69"/>
      <point x="1822" y="-32"/>
      <point x="1274" y="-32" type="curve" smooth="yes"/>
      <point x="1056" y="-32" type="line" smooth="yes"/>
      <point x="1006.63" y="-32"/>
      <point x="974" y="0.63208"/>
      <point x="974" y="50" type="curve" smooth="yes"/>
      <point x="974" y="52" type="line" smooth="yes"/>
      <point x="974" y="101.368"/>
      <point x="1006.63" y="134"/>
      <point x="1056" y="134" type="curve" smooth="yes"/>
      <point x="1274" y="134" type="line" smooth="yes"/>
      <point x="1715" y="134"/>
      <point x="1822" y="173"/>
      <point x="1822" y="589" type="curve" smooth="yes"/>
      <point x="1822" y="599.5" type="line" smooth="yes"/>
      <point x="1822" y="605.028"/>
      <point x="1824.28" y="609.903"/>
      <point x="1828.53" y="613.442" type="curve" smooth="yes"/>
    </contour>
    <contour>
      <point x="1056" y="1402" type="line" smooth="yes"/>
      <point x="1006.63" y="1402"/>
      <point x="974" y="1434.63"/>
      <point x="974" y="1484" type="curve" smooth="yes"/>
      <point x="974" y="1486" type="line" smooth="yes"/>
      <point x="974" y="1535.37"/>
      <point x="1006.63" y="1568"/>
      <point x="1056" y="1568" type="curve" smooth="yes"/>
      <point x="1274" y="1568" type="line" smooth="yes"/>
      <point x="1786.85" y="1568"/>
      <point x="1987.9" y="1479.54"/>
      <point x="2011.59" y="1041.98" type="curve" smooth="yes"/>
      <point x="2014.55" y="987.19"/>
      <point x="1976.48" y="947"/>
      <point x="1921.73" y="947" type="curve" smooth="yes"/>
      <point x="1920.17" y="947" type="line" smooth="yes"/>
      <point x="1860.18" y="947"/>
      <point x="1822.99" y="982.067"/>
      <point x="1819.47" y="1041.95" type="curve" smooth="yes"/>
      <point x="1800.24" y="1369.14"/>
      <point x="1666.89" y="1402"/>
      <point x="1274" y="1402" type="curve" smooth="yes"/>
    </contour>
  </outline>
</glyph>
<glyph name="H" format="1">
  <advance width="2184"/>
  <unicode hex="0048"/>
  <outline>
    <contour>
      <point x="1893" y="1536" type="line" smooth="yes"/>
      <point x="1950.19" y="1536"/>
      <point x="1988" y="1498.19"/>
      <point x="1988" y="1441" type="curve" smooth="yes"/>
      <point x="1988" y="95" type="line" smooth="yes"/>
      <point x="1988" y="37.8055"/>
      <point x="1950.19" y="4.62983e-15"/>
      <point x="1893" y="1.16341e-14" type="curve" smooth="yes"/>
      <point x="1891" y="-1.16341e-14" type="line" smooth="yes"/>
      <point x="1833.81" y="-4.62983e-15"/>
      <point x="1796" y="37.8055"/>
      <point x="1796" y="95" type="curve" smooth="yes"/>
      <point x="1796" y="680" type="line" smooth="yes"/>
      <point x="1796" y="694.407"/>
      <point x="1786.41" y="704"/>
      <point x="1772" y="704" type="curve" smooth="yes"/>
      <point x="412" y="704" type="line" smooth="yes"/>
      <point x="397.593" y="704"/>
      <point x="388" y="694.407"/>
      <point x="388" y="680" type="curve" smooth="yes"/>
      <point x="388" y="95" type="line" smooth="yes"/>
      <point x="388" y="37.8055"/>
      <point x="350.195" y="4.62983e-15"/>
      <point x="293" y="1.16341e-14" type="curve" smooth="yes"/>
      <point x="291" y="-1.16341e-14" type="line" smooth="yes"/>
      <point x="233.805" y="-4.62983e-15"/>
      <point x="196" y="37.8055"/>
      <point x="196" y="95" type="curve" smooth="yes"/>
      <point x="196" y="1441" type="line" smooth="yes"/>
      <point x="196" y="1498.19"/>
      <point x="233.805" y="1536"/>
      <point x="291" y="1536" type="curve" smooth="yes"/>
      <point x="293" y="1536" type="line" smooth="yes"/>
      <point x="350.195" y="1536"/>
      <point x="388" y="1498.19"/>
      <point x="388" y="1441" type="curve" smooth="yes"/>
      <point x="388" y="888" type="line" smooth="yes"/>
      <point x="388" y="873.593"/>
      <point x="397.593" y="864"/>
      <point x="412" y="864" type="curve" smooth="yes"/>
      <point x="1772" y="864" type="line" smooth="yes"/>
      <point x="1786.41" y="864"/>
      <point x="1796" y="873.593"/>
      <point x="1796" y="888" type="curve" smooth="yes"/>
      <point x="1796" y="1441" type="line" smooth="yes"/>
      <point x="1796" y="1498.19"/>
      <point x="1833.81" y="1536"/>
      <point x="1891" y="1536" type="curve" smooth="yes"/>
    </contour>
  </outline>
</glyph>
<glyph name="J" format="1">
  <advance width="1715"/>
  <unicode hex="004A"/>
  <outline>
    <contour>
      <point x="1344" y="448" type="curve" smooth="yes"/>
      <point x="1344" y="1441" type="line" smooth="yes"/>
      <point x="1344" y="1498.19"/>
      <point x="1381.81" y="1536"/>
      <point x="1439" y="1536" type="curve" smooth="yes"/>
      <point x="1441" y="1536" type="line" smooth="yes"/>
      <point x="1498.19" y="1536"/>
      <point x="1536" y="1498.19"/>
      <point x="1536" y="1441" type="curve" smooth="yes"/>
      <point x="1536" y="448" type="line" smooth="yes"/>
      <point x="1536" y="286"/>
      <point x="1499" y="171"/>
      <point x="1424" y="104" type="curve" smooth="yes"/>
      <point x="1347" y="35"/>
      <point x="1214" y="0"/>
      <point x="1024" y="0" type="curve" smooth="yes"/>
      <point x="576" y="0" type="line" smooth="yes"/>
      <point x="321" y="0"/>
      <point x="179" y="56"/>
      <point x="144" y="270" type="curve" smooth="yes"/>
      <point x="133" y="335"/>
      <point x="128" y="416"/>
      <point x="128" y="512" type="curve" smooth="yes"/>
      <point x="128" y="545" type="line" smooth="yes"/>
      <point x="128" y="563.663"/>
      <point x="140.337" y="576"/>
      <point x="159" y="576" type="curve" smooth="yes"/>
      <point x="289" y="576" type="line" smooth="yes"/>
      <point x="307.663" y="576"/>
      <point x="320" y="563.663"/>
      <point x="320" y="545" type="curve" smooth="yes"/>
      <point x="320" y="512" type="line" smooth="yes"/>
      <point x="320" y="359"/>
      <point x="339" y="260"/>
      <point x="376" y="214" type="curve" smooth="yes"/>
      <point x="417" y="163"/>
      <point x="483" y="156"/>
      <point x="576" y="156" type="curve" smooth="yes"/>
      <point x="1024" y="156" type="line" smooth="yes"/>
      <point x="1255" y="156"/>
      <point x="1344" y="223"/>
    </contour>
  </outline>
</glyph>
<glyph name="K" format="1">
  <advance width="2016"/>
  <unicode hex="004B"/>
  <outline>
    <contour>
      <point x="1820" y="1536" type="line" smooth="yes"/>
      <point x="1857.93" y="1536"/>
      <point x="1868.94" y="1500.71"/>
      <point x="1837.74" y="1479.14" type="curve" smooth="yes"/>
      <point x="851.743" y="797.646" type="line" smooth="yes"/>
      <point x="841.098" y="790.288"/>
      <point x="841.06" y="777.658"/>
      <point x="851.662" y="770.237" type="curve" smooth="yes"/>
      <point x="1870.08" y="57.3462" type="line" smooth="yes"/>
      <point x="1901.32" y="35.4749"/>
      <point x="1890.14" y="7.57577e-15"/>
      <point x="1852" y="1.22465e-14" type="curve" smooth="yes"/>
      <point x="1764" y="-1.22465e-14" type="line" smooth="yes"/>
      <point x="1700.22" y="-4.43514e-15"/>
      <point x="1634.16" y="20.5172"/>
      <point x="1581.6" y="56.6529" type="curve" smooth="yes"/>
      <point x="659.777" y="690.403" type="line" smooth="yes"/>
      <point x="647.162" y="699.076"/>
      <point x="631.308" y="704"/>
      <point x="616" y="704" type="curve" smooth="yes"/>
      <point x="408" y="704" type="line" smooth="yes"/>
      <point x="393.593" y="704"/>
      <point x="384" y="694.407"/>
      <point x="384" y="680" type="curve" smooth="yes"/>
      <point x="384" y="95" type="line" smooth="yes"/>
      <point x="384" y="37.8055"/>
      <point x="346.195" y="4.62983e-15"/>
      <point x="289" y="1.16341e-14" type="curve" smooth="yes"/>
      <point x="287" y="-1.16341e-14" type="line" smooth="yes"/>
      <point x="229.805" y="-4.62983e-15"/>
      <point x="192" y="37.8055"/>
      <point x="192" y="95" type="curve" smooth="yes"/>
      <point x="192" y="1441" type="line" smooth="yes"/>
      <point x="192" y="1498.19"/>
      <point x="229.805" y="1536"/>
      <point x="287" y="1536" type="curve" smooth="yes"/>
      <point x="289" y="1536" type="line" smooth="yes"/>
      <point x="346.195" y="1536"/>
      <point x="384" y="1498.19"/>
      <point x="384" y="1441" type="curve" smooth="yes"/>
      <point x="384" y="888" type="line" smooth="yes"/>
      <point x="384" y="873.593"/>
      <point x="393.593" y="864"/>
      <point x="408" y="864" type="curve" smooth="yes"/>
      <point x="616" y="864" type="line" smooth="yes"/>
      <point x="631.293" y="864"/>
      <point x="647.209" y="868.883"/>
      <point x="659.87" y="877.46" type="curve" smooth="yes"/>
      <point x="1549.21" y="1479.92" type="line" smooth="yes"/>
      <point x="1601.96" y="1515.65"/>
      <point x="1668.28" y="1536"/>
      <point x="1732" y="1536" type="curve" smooth="yes"/>
    </contour>
  </outline>
</glyph>
<glyph name="L" format="1">
  <advance width="1664"/>
  <unicode hex="004C"/>
  <outline>
    <contour>
      <point x="192" y="1441" type="line" smooth="yes"/>
      <point x="192" y="1498.19"/>
      <point x="229.805" y="1536"/>
      <point x="287" y="1536" type="curve" smooth="yes"/>
      <point x="289" y="1536" type="line" smooth="yes"/>
      <point x="346.195" y="1536"/>
      <point x="384" y="1498.19"/>
      <point x="384" y="1441" type="curve" smooth="yes"/>
      <point x="384" y="184" type="line" smooth="yes"/>
      <point x="384" y="169.593"/>
      <point x="393.593" y="160"/>
      <point x="408" y="160" type="curve" smooth="yes"/>
      <point x="1521" y="160" type="line" smooth="yes"/>
      <point x="1568.56" y="160"/>
      <point x="1600" y="128.562"/>
      <point x="1600" y="81" type="curve" smooth="yes"/>
      <point x="1600" y="79" type="line" smooth="yes"/>
      <point x="1600" y="31.4382"/>
      <point x="1568.56" y="3.85007e-15"/>
      <point x="1521" y="9.67471e-15" type="curve" smooth="yes"/>
      <point x="292" y="-1.22465e-14" type="line" smooth="yes"/>
      <point x="231.795" y="-4.87351e-15"/>
      <point x="192" y="39.7952"/>
      <point x="192" y="100" type="curve" smooth="yes"/>
    </contour>
  </outline>
</glyph>
<glyph name="M" format="1">
  <advance width="2808"/>
  <unicode hex="004D"/>
  <outline>
    <contour>
      <point x="388" y="95" type="line" smooth="yes"/>
      <point x="388" y="37.8055"/>
      <point x="350.195" y="4.62983e-15"/>
      <point x="293" y="1.16341e-14" type="curve" smooth="yes"/>
      <point x="291" y="-1.16341e-14" type="line" smooth="yes"/>
      <point x="233.805" y="-4.62983e-15"/>
      <point x="196" y="37.8055"/>
      <point x="196" y="95" type="curve" smooth="yes"/>
      <point x="196" y="1436" type="line" smooth="yes"/>
      <point x="196" y="1496.2"/>
      <point x="235.795" y="1536"/>
      <point x="296" y="1536" type="curve" smooth="yes"/>
      <point x="402" y="1536" type="line" smooth="yes"/>
      <point x="467.016" y="1536"/>
      <point x="522.651" y="1507.76"/>
      <point x="561.029" y="1455.28" type="curve" smooth="yes"/>
      <point x="1396.83" y="312.373" type="line" smooth="yes"/>
      <point x="1404.57" y="301.792"/>
      <point x="1417.36" y="301.839"/>
      <point x="1425.02" y="312.477" type="curve" smooth="yes"/>
      <point x="2247.57" y="1454.85" type="line" smooth="yes"/>
      <point x="2285.55" y="1507.6"/>
      <point x="2340.99" y="1536"/>
      <point x="2406" y="1536" type="curve" smooth="yes"/>
      <point x="2512" y="1536" type="line" smooth="yes"/>
      <point x="2572.2" y="1536"/>
      <point x="2612" y="1496.2"/>
      <point x="2612" y="1436" type="curve" smooth="yes"/>
      <point x="2612" y="95" type="line" smooth="yes"/>
      <point x="2612" y="37.8055"/>
      <point x="2574.19" y="4.62983e-15"/>
      <point x="2517" y="1.16341e-14" type="curve" smooth="yes"/>
      <point x="2515" y="-1.16341e-14" type="line" smooth="yes"/>
      <point x="2457.81" y="-4.62983e-15"/>
      <point x="2420" y="37.8055"/>
      <point x="2420" y="95" type="curve" smooth="yes"/>
      <point x="2420" y="1338" type="line" smooth="yes"/>
      <point x="2420" y="1347.37"/>
      <point x="2411.43" y="1350.15"/>
      <point x="2405.94" y="1342.55" type="curve" smooth="yes"/>
      <point x="1564.26" y="178.788" type="line" smooth="yes"/>
      <point x="1527.69" y="128.218"/>
      <point x="1474.41" y="101"/>
      <point x="1412" y="101" type="curve" smooth="yes"/>
      <point x="1410" y="101" type="line" smooth="yes"/>
      <point x="1347.58" y="101"/>
      <point x="1294.12" y="128.069"/>
      <point x="1257.18" y="178.378" type="curve" smooth="yes"/>
      <point x="402.205" y="1342.66" type="line" smooth="yes"/>
      <point x="396.624" y="1350.26"/>
      <point x="388" y="1347.43"/>
      <point x="388" y="1338" type="curve" smooth="yes"/>
    </contour>
  </outline>
</glyph>
<glyph name="N" format="1">
  <advance width="2321"/>
  <unicode hex="004E"/>
  <outline>
    <contour>
      <point x="384" y="95" type="line" smooth="yes"/>
      <point x="384" y="37.8055"/>
      <point x="346.195" y="4.62983e-15"/>
      <point x="289" y="1.16341e-14" type="curve" smooth="yes"/>
      <point x="287" y="-1.16341e-14" type="line" smooth="yes"/>
      <point x="229.805" y="-4.62983e-15"/>
      <point x="192" y="37.8055"/>
      <point x="192" y="95" type="curve" smooth="yes"/>
      <point x="192" y="1437" type="line" smooth="yes"/>
      <point x="192" y="1496.6"/>
      <point x="231.397" y="1536"/>
      <point x="291" y="1536" type="curve" smooth="yes"/>
      <point x="293" y="1536" type="line" smooth="yes"/>
      <point x="356.852" y="1536"/>
      <point x="418.888" y="1513.36"/>
      <point x="467.735" y="1472.24" type="curve" smooth="yes"/>
      <point x="1935" y="237" type="line"/>
      <point x="1935" y="237"/>
      <point x="1935" y="237"/>
      <point x="1935" y="237" type="curve"/>
      <point x="1937" y="237" type="line"/>
      <point x="1937" y="237"/>
      <point x="1937" y="237"/>
      <point x="1937" y="237" type="curve"/>
      <point x="1937" y="1441" type="line" smooth="yes"/>
      <point x="1937" y="1498.19"/>
      <point x="1974.81" y="1536"/>
      <point x="2032" y="1536" type="curve" smooth="yes"/>
      <point x="2034" y="1536" type="line" smooth="yes"/>
      <point x="2091.19" y="1536"/>
      <point x="2129" y="1498.19"/>
      <point x="2129" y="1441" type="curve" smooth="yes"/>
      <point x="2129" y="99" type="line" smooth="yes"/>
      <point x="2129" y="39.3973"/>
      <point x="2089.6" y="4.82477e-15"/>
      <point x="2030" y="1.2124e-14" type="curve" smooth="yes"/>
      <point x="2028" y="-1.2124e-14" type="line" smooth="yes"/>
      <point x="1964.13" y="-4.30159e-15"/>
      <point x="1902.22" y="22.7331"/>
      <point x="1853.53" y="64.0732" type="curve" smooth="yes"/>
      <point x="386" y="1310" type="line"/>
      <point x="386" y="1310"/>
      <point x="386" y="1310"/>
      <point x="386" y="1310" type="curve"/>
      <point x="384" y="1310" type="line"/>
      <point x="384" y="1310"/>
      <point x="384" y="1310"/>
      <point x="384" y="1310" type="curve"/>
    </contour>
  </outline>
</glyph>
<glyph name="O" format="1">
  <advance width="2145"/>
  <unicode hex="004F"/>
  <outline>
    <contour>
      <point x="1171" y="1484" type="line" smooth="yes"/>
      <point x="1171" y="1434.63"/>
      <point x="1138.37" y="1402"/>
      <point x="1089" y="1402" type="curve" smooth="yes"/>
      <point x="871" y="1402" type="line" smooth="yes"/>
      <point x="421.862" y="1402"/>
      <point x="330.02" y="1377.18"/>
      <point x="320.823" y="885.08" type="curve" smooth="yes"/>
      <point x="319.666" y="823.177"/>
      <point x="284.358" y="780.575"/>
      <point x="223.984" y="767.997" type="curve" smooth="yes"/>
      <point x="146.601" y="751.875" type="line" smooth="yes"/>
      <point x="136.065" y="749.68"/>
      <point x="128" y="756.238"/>
      <point x="128" y="767" type="curve" smooth="yes"/>
      <point x="128" y="788" type="line" smooth="yes"/>
      <point x="128" y="1467"/>
      <point x="271" y="1568"/>
      <point x="871" y="1568" type="curve" smooth="yes"/>
      <point x="1089" y="1568" type="line" smooth="yes"/>
      <point x="1138.37" y="1568"/>
      <point x="1171" y="1535.37"/>
      <point x="1171" y="1486" type="curve" smooth="yes"/>
    </contour>
    <contour>
      <point x="2017" y="767" type="line" smooth="yes"/>
      <point x="2017" y="756.238"/>
      <point x="2008.94" y="749.68"/>
      <point x="1998.4" y="751.875" type="curve" smooth="yes"/>
      <point x="1921.25" y="767.947" type="line" smooth="yes"/>
      <point x="1860.73" y="780.556"/>
      <point x="1825.33" y="823.266"/>
      <point x="1824.18" y="885.08" type="curve" smooth="yes"/>
      <point x="1814.98" y="1377.18"/>
      <point x="1723.14" y="1402"/>
      <point x="1274" y="1402" type="curve" smooth="yes"/>
      <point x="1056" y="1402" type="line" smooth="yes"/>
      <point x="1006.63" y="1402"/>
      <point x="974" y="1434.63"/>
      <point x="974" y="1484" type="curve" smooth="yes"/>
      <point x="974" y="1486" type="line" smooth="yes"/>
      <point x="974" y="1535.37"/>
      <point x="1006.63" y="1568"/>
      <point x="1056" y="1568" type="curve" smooth="yes"/>
      <point x="1274" y="1568" type="line" smooth="yes"/>
      <point x="1874" y="1568"/>
      <point x="2017" y="1467"/>
      <point x="2017" y="788" type="curve" smooth="yes"/>
    </contour>
    <contour>
      <point x="301.399" y="784.125" type="line" smooth="yes"/>
      <point x="311.935" y="786.32"/>
      <point x="320" y="779.762"/>
      <point x="320" y="769" type="curve" smooth="yes"/>
      <point x="320" y="748" type="line" smooth="yes"/>
      <point x="320" y="182"/>
      <point x="394" y="134"/>
      <point x="871" y="134" type="curve" smooth="yes"/>
      <point x="1089" y="134" type="line" smooth="yes"/>
      <point x="1138.37" y="134"/>
      <point x="1171" y="101.368"/>
      <point x="1171" y="52" type="curve" smooth="yes"/>
      <point x="1171" y="50" type="line" smooth="yes"/>
      <point x="1171" y="0.63208"/>
      <point x="1138.37" y="-32"/>
      <point x="1089" y="-32" type="curve" smooth="yes"/>
      <point x="871" y="-32" type="line" smooth="yes"/>
      <point x="301.725" y="-32"/>
      <point x="143.844" y="76.9248"/>
      <point x="129.167" y="650.937" type="curve" smooth="yes"/>
      <point x="127.649" y="710.303"/>
      <point x="163.342" y="755.363"/>
      <point x="221.479" y="767.475" type="curve" smooth="yes"/>
    </contour>
    <contour>
      <point x="974" y="52" type="line" smooth="yes"/>
      <point x="974" y="101.368"/>
      <point x="1006.63" y="134"/>
      <point x="1056" y="134" type="curve" smooth="yes"/>
      <point x="1274" y="134" type="line" smooth="yes"/>
      <point x="1751" y="134"/>
      <point x="1825" y="182"/>
      <point x="1825" y="748" type="curve" smooth="yes"/>
      <point x="1825" y="769" type="line" smooth="yes"/>
      <point x="1825" y="779.762"/>
      <point x="1833.06" y="786.32"/>
      <point x="1843.6" y="784.125" type="curve" smooth="yes"/>
      <point x="1923.52" y="767.475" type="line" smooth="yes"/>
      <point x="1981.66" y="755.363"/>
      <point x="2017.35" y="710.303"/>
      <point x="2015.83" y="650.937" type="curve" smooth="yes"/>
      <point x="2001.16" y="76.9248"/>
      <point x="1843.27" y="-32"/>
      <point x="1274" y="-32" type="curve" smooth="yes"/>
      <point x="1056" y="-32" type="line" smooth="yes"/>
      <point x="1006.63" y="-32"/>
      <point x="974" y="0.63208"/>
      <point x="974" y="50" type="curve" smooth="yes"/>
    </contour>
  </outline>
</glyph>
<glyph name="P" format="1">
  <advance width="1984"/>
  <unicode hex="0050"/>
  <outline>
    <contour>
      <point x="1346" y="1536" type="line" smooth="yes"/>
      <point x="1611" y="1536"/>
      <point x="1778" y="1499"/>
      <point x="1848" y="1424" type="curve" smooth="yes"/>
      <point x="1890" y="1378"/>
      <point x="1914" y="1312"/>
      <point x="1918" y="1225" type="curve" smooth="yes"/>
      <point x="1920" y="1184"/>
      <point x="1920" y="1137"/>
      <point x="1920" y="1086" type="curve" smooth="yes"/>
      <point x="1920" y="927"/>
      <point x="1914" y="808"/>
      <point x="1832" y="730" type="curve" smooth="yes"/>
      <point x="1804" y="703"/>
      <point x="1762" y="681"/>
      <point x="1710" y="663" type="curve" smooth="yes"/>
      <point x="1603" y="626"/>
      <point x="1439" y="608"/>
      <point x="1215" y="608" type="curve" smooth="yes"/>
      <point x="408" y="608" type="line" smooth="yes"/>
      <point x="393.593" y="608"/>
      <point x="384" y="598.407"/>
      <point x="384" y="584" type="curve" smooth="yes"/>
      <point x="384" y="95" type="line" smooth="yes"/>
      <point x="384" y="37.8055"/>
      <point x="346.195" y="4.62983e-15"/>
      <point x="289" y="1.16341e-14" type="curve" smooth="yes"/>
      <point x="287" y="-1.16341e-14" type="line" smooth="yes"/>
      <point x="229.805" y="-4.62983e-15"/>
      <point x="192" y="37.8055"/>
      <point x="192" y="95" type="curve" smooth="yes"/>
      <point x="192" y="1436" type="line" smooth="yes"/>
      <point x="192" y="1496.2"/>
      <point x="231.795" y="1536"/>
      <point x="292" y="1536" type="curve" smooth="yes"/>
    </contour>
    <contour>
      <point x="1215" y="768" type="line" smooth="yes"/>
      <point x="1389" y="768"/>
      <point x="1502" y="773"/>
      <point x="1554" y="784" type="curve" smooth="yes"/>
      <point x="1640" y="802"/>
      <point x="1683" y="818"/>
      <point x="1708" y="881" type="curve" smooth="yes"/>
      <point x="1721" y="913"/>
      <point x="1728" y="966"/>
      <point x="1728" y="1041" type="curve" smooth="yes"/>
      <point x="1728" y="1116"/>
      <point x="1728" y="1169"/>
      <point x="1726" y="1200" type="curve" smooth="yes"/>
      <point x="1720" y="1305"/>
      <point x="1672" y="1342"/>
      <point x="1575" y="1360" type="curve" smooth="yes"/>
      <point x="1515" y="1371"/>
      <point x="1395" y="1376"/>
      <point x="1215" y="1376" type="curve" smooth="yes"/>
      <point x="408" y="1376" type="line" smooth="yes"/>
      <point x="393.593" y="1376"/>
      <point x="384" y="1366.41"/>
      <point x="384" y="1352" type="curve" smooth="yes"/>
      <point x="384" y="792" type="line" smooth="yes"/>
      <point x="384" y="777.593"/>
      <point x="393.593" y="768"/>
      <point x="408" y="768" type="curve" smooth="yes"/>
    </contour>
  </outline>
</glyph>
<glyph name="Q" format="1">
  <advance width="2145"/>
  <unicode hex="0051"/>
  <outline>
    <contour>
      <point x="2095.87" y="-153.275" type="line" smooth="yes"/>
      <point x="2066.93" y="-188.782"/>
      <point x="2024.42" y="-193.531"/>
      <point x="1988.35" y="-165.285" type="curve" smooth="yes"/>
      <point x="1166.65" y="478.285" type="line" smooth="yes"/>
      <point x="1130.89" y="506.285"/>
      <point x="1126.18" y="548.526"/>
      <point x="1154.87" y="583.725" type="curve" smooth="yes"/>
      <point x="1156.13" y="585.275" type="line" smooth="yes"/>
      <point x="1185.07" y="620.782"/>
      <point x="1227.58" y="625.531"/>
      <point x="1263.65" y="597.285" type="curve" smooth="yes"/>
      <point x="2085.35" y="-46.2847" type="line" smooth="yes"/>
      <point x="2121.11" y="-74.2854"/>
      <point x="2125.82" y="-116.526"/>
      <point x="2097.13" y="-151.725" type="curve" smooth="yes"/>
    </contour>
    <component base="O"/>
  </outline>
</glyph>
<glyph name="R" format="1">
  <advance width="2112"/>
  <unicode hex="0052"/>
  <outline>
    <contour>
      <point x="1952" y="288" type="curve" smooth="yes"/>
      <point x="1952" y="95" type="line" smooth="yes"/>
      <point x="1952" y="37.8055"/>
      <point x="1914.19" y="4.62983e-15"/>
      <point x="1857" y="1.16341e-14" type="curve" smooth="yes"/>
      <point x="1855" y="-1.16341e-14" type="line" smooth="yes"/>
      <point x="1797.81" y="-4.62983e-15"/>
      <point x="1760" y="37.8055"/>
      <point x="1760" y="95" type="curve" smooth="yes"/>
      <point x="1760" y="288" type="line" smooth="yes"/>
      <point x="1760" y="492"/>
      <point x="1752" y="556"/>
      <point x="1607" y="587" type="curve" smooth="yes"/>
      <point x="1540" y="601"/>
      <point x="1420" y="608"/>
      <point x="1247" y="608" type="curve" smooth="yes"/>
      <point x="408" y="608" type="line" smooth="yes"/>
      <point x="393.593" y="608"/>
      <point x="384" y="598.407"/>
      <point x="384" y="584" type="curve" smooth="yes"/>
      <point x="384" y="95" type="line" smooth="yes"/>
      <point x="384" y="37.8055"/>
      <point x="346.195" y="4.62983e-15"/>
      <point x="289" y="1.16341e-14" type="curve" smooth="yes"/>
      <point x="287" y="-1.16341e-14" type="line" smooth="yes"/>
      <point x="229.805" y="-4.62983e-15"/>
      <point x="192" y="37.8055"/>
      <point x="192" y="95" type="curve" smooth="yes"/>
      <point x="192" y="1436" type="line" smooth="yes"/>
      <point x="192" y="1496.2"/>
      <point x="231.795" y="1536"/>
      <point x="292" y="1536" type="curve" smooth="yes"/>
      <point x="1279" y="1536" type="line" smooth="yes"/>
      <point x="1604" y="1536"/>
      <point x="1810" y="1499"/>
      <point x="1896" y="1424" type="curve" smooth="yes"/>
      <point x="1980" y="1350"/>
      <point x="1984" y="1238"/>
      <point x="1984" y="1078" type="curve" smooth="yes"/>
      <point x="1984" y="850.142"/>
      <point x="1922.07" y="714.718"/>
      <point x="1730.67" y="676.172" type="curve" smooth="yes"/>
      <point x="1724.27" y="674.884"/>
      <point x="1724.29" y="669.207"/>
      <point x="1730.71" y="667.968" type="curve" smooth="yes"/>
      <point x="1912.4" y="632.892"/>
      <point x="1952" y="522.141"/>
    </contour>
    <contour>
      <point x="1279" y="768" type="line" smooth="yes"/>
      <point x="1452" y="768"/>
      <point x="1566" y="773"/>
      <point x="1618" y="784" type="curve" smooth="yes"/>
      <point x="1704" y="802"/>
      <point x="1747" y="818"/>
      <point x="1772" y="881" type="curve" smooth="yes"/>
      <point x="1785" y="913"/>
      <point x="1792" y="966"/>
      <point x="1792" y="1041" type="curve" smooth="yes"/>
      <point x="1792" y="1116"/>
      <point x="1792" y="1169"/>
      <point x="1790" y="1200" type="curve" smooth="yes"/>
      <point x="1784" y="1305"/>
      <point x="1736" y="1342"/>
      <point x="1639" y="1360" type="curve" smooth="yes"/>
      <point x="1579" y="1371"/>
      <point x="1459" y="1376"/>
      <point x="1279" y="1376" type="curve" smooth="yes"/>
      <point x="408" y="1376" type="line" smooth="yes"/>
      <point x="393.593" y="1376"/>
      <point x="384" y="1366.41"/>
      <point x="384" y="1352" type="curve" smooth="yes"/>
      <point x="384" y="792" type="line" smooth="yes"/>
      <point x="384" y="777.593"/>
      <point x="393.593" y="768"/>
      <point x="408" y="768" type="curve" smooth="yes"/>
    </contour>
  </outline>
</glyph>
<glyph name="S" format="1">
  <advance width="2142"/>
  <unicode hex="0053"/>
  <outline>
    <contour>
      <point x="1181" y="1484" type="line" smooth="yes"/>
      <point x="1181" y="1434.63"/>
      <point x="1148.37" y="1402"/>
      <point x="1099" y="1402" type="curve" smooth="yes"/>
      <point x="876" y="1402" type="line" smooth="yes"/>
      <point x="466.544" y="1402"/>
      <point x="354.038" y="1391.68"/>
      <point x="330.385" y="1226.84" type="curve" smooth="yes"/>
      <point x="321.19" y="1162.75"/>
      <point x="285.708" y="1132"/>
      <point x="221.778" y="1132" type="curve"/>
      <point x="223.237" y="1132" type="line"/>
      <point x="170.187" y="1132"/>
      <point x="131.975" y="1174.11"/>
      <point x="137.116" y="1226.91" type="curve" smooth="yes"/>
      <point x="163.43" y="1497.16"/>
      <point x="324.594" y="1568"/>
      <point x="866" y="1568" type="curve" smooth="yes"/>
      <point x="1099" y="1568" type="line" smooth="yes"/>
      <point x="1148.37" y="1568"/>
      <point x="1181" y="1535.37"/>
      <point x="1181" y="1486" type="curve" smooth="yes"/>
    </contour>
    <contour>
      <point x="976" y="52" type="line" smooth="yes"/>
      <point x="976" y="101.368"/>
      <point x="1008.63" y="134"/>
      <point x="1058" y="134" type="curve" smooth="yes"/>
      <point x="1296" y="134" type="line" smooth="yes"/>
      <point x="1709.42" y="134"/>
      <point x="1805.09" y="167.051"/>
      <point x="1823.25" y="349.039" type="curve" smooth="yes"/>
      <point x="1829.43" y="411.01"/>
      <point x="1865.88" y="444"/>
      <point x="1927.72" y="444" type="curve" smooth="yes"/>
      <point x="1927.89" y="444" type="line" smooth="yes"/>
      <point x="1981.7" y="444"/>
      <point x="2019.88" y="402.728"/>
      <point x="2015.69" y="349.079" type="curve" smooth="yes"/>
      <point x="1993.45" y="64.0391"/>
      <point x="1849.6" y="-32"/>
      <point x="1306" y="-32" type="curve" smooth="yes"/>
      <point x="1058" y="-32" type="line" smooth="yes"/>
      <point x="1008.63" y="-32"/>
      <point x="976" y="0.63208"/>
      <point x="976" y="50" type="curve" smooth="yes"/>
    </contour>
    <contour>
      <point x="1091" y="134" type="line" smooth="yes"/>
      <point x="1140.37" y="134"/>
      <point x="1173" y="101.368"/>
      <point x="1173" y="52" type="curve" smooth="yes"/>
      <point x="1173" y="50" type="line" smooth="yes"/>
      <point x="1173" y="0.63208"/>
      <point x="1140.37" y="-32"/>
      <point x="1091" y="-32" type="curve" smooth="yes"/>
      <point x="853" y="-32" type="line" smooth="yes"/>
      <point x="340.253" y="-32"/>
      <point x="156.686" y="38.9136"/>
      <point x="135.19" y="473.999" type="curve" smooth="yes"/>
      <point x="132.472" y="529.011"/>
      <point x="170.534" y="569"/>
      <point x="225.496" y="569" type="curve" smooth="yes"/>
      <point x="227.236" y="569" type="line" smooth="yes"/>
      <point x="286.84" y="569"/>
      <point x="324.126" y="533.569"/>
      <point x="327.164" y="474.043" type="curve" smooth="yes"/>
      <point x="343.706" y="149.998"/>
      <point x="460.266" y="134"/>
      <point x="853" y="134" type="curve" smooth="yes"/>
    </contour>
    <contour>
      <point x="1061" y="1402" type="line" smooth="yes"/>
      <point x="1011.63" y="1402"/>
      <point x="979" y="1434.63"/>
      <point x="979" y="1484" type="curve" smooth="yes"/>
      <point x="979" y="1486" type="line" smooth="yes"/>
      <point x="979" y="1535.37"/>
      <point x="1011.63" y="1568"/>
      <point x="1061" y="1568" type="curve" smooth="yes"/>
      <point x="1284" y="1568" type="line" smooth="yes"/>
      <point x="1766.58" y="1568"/>
      <point x="1965.77" y="1540.89"/>
      <point x="1989.55" y="1112" type="curve" smooth="yes"/>
      <point x="1992.58" y="1057.24"/>
      <point x="1954.51" y="1017"/>
      <point x="1899.81" y="1017" type="curve" smooth="yes"/>
      <point x="1898.4" y="1017" type="line" smooth="yes"/>
      <point x="1838.26" y="1017"/>
      <point x="1801.08" y="1051.98"/>
      <point x="1797.41" y="1112.01" type="curve" smooth="yes"/>
      <point x="1778.07" y="1428.05"/>
      <point x="1646.98" y="1402"/>
      <point x="1284" y="1402" type="curve" smooth="yes"/>
    </contour>
    <contour>
      <point x="220.906" y="1132" type="line" smooth="yes"/>
      <point x="285.04" y="1132"/>
      <point x="320.96" y="1100.67"/>
      <point x="329.675" y="1037.13" type="curve" smooth="yes"/>
      <point x="347.941" y="903.951"/>
      <point x="432.722" y="877"/>
      <point x="796" y="877" type="curve" smooth="yes"/>
      <point x="1091.5" y="877" type="line" smooth="yes"/>
      <point x="1142.37" y="877"/>
      <point x="1176" y="843.373"/>
      <point x="1176" y="792.5" type="curve" smooth="yes"/>
      <point x="1176" y="790.5" type="line" smooth="yes"/>
      <point x="1176" y="739.627"/>
      <point x="1142.37" y="706"/>
      <point x="1091.5" y="706" type="curve" smooth="yes"/>
      <point x="766" y="706" type="line" smooth="yes"/>
      <point x="274.679" y="706"/>
      <point x="156.026" y="791.386"/>
      <point x="136.301" y="1037.01" type="curve" smooth="yes"/>
      <point x="131.855" y="1092.36"/>
      <point x="168.437" y="1132"/>
      <point x="219.906" y="1132" type="curve" smooth="yes"/>
    </contour>
    <contour>
      <point x="1929.48" y="444" type="line" smooth="yes"/>
      <point x="1866.6" y="444"/>
      <point x="1830.24" y="476.449"/>
      <point x="1823.11" y="538.928" type="curve" smooth="yes"/>
      <point x="1806.09" y="688.094"/>
      <point x="1719.69" y="706"/>
      <point x="1316" y="706" type="curve" smooth="yes"/>
      <point x="1060.5" y="706" type="line" smooth="yes"/>
      <point x="1009.63" y="706"/>
      <point x="976" y="739.627"/>
      <point x="976" y="790.5" type="curve" smooth="yes"/>
      <point x="976" y="792.5" type="line" smooth="yes"/>
      <point x="976" y="843.373"/>
      <point x="1009.63" y="877"/>
      <point x="1060.5" y="877" type="curve" smooth="yes"/>
      <point x="1386" y="877" type="line" smooth="yes"/>
      <point x="1888.24" y="877"/>
      <point x="1998.76" y="794.153"/>
      <point x="2016.22" y="539.008" type="curve" smooth="yes"/>
      <point x="2020.01" y="483.6"/>
      <point x="1983.02" y="444"/>
      <point x="1930.48" y="444" type="curve" smooth="yes"/>
    </contour>
  </outline>
</glyph>
<glyph name="T" format="1">
  <advance width="1984"/>
  <unicode hex="0054"/>
  <outline>
    <contour>
      <point x="1856" y="1455" type="line" smooth="yes"/>
      <point x="1856" y="1407.44"/>
      <point x="1824.56" y="1376"/>
      <point x="1777" y="1376" type="curve" smooth="yes"/>
      <point x="1112" y="1376" type="line" smooth="yes"/>
      <point x="1097.59" y="1376"/>
      <point x="1088" y="1366.41"/>
      <point x="1088" y="1352" type="curve" smooth="yes"/>
      <point x="1088" y="95" type="line" smooth="yes"/>
      <point x="1088" y="37.8055"/>
      <point x="1050.19" y="4.62983e-15"/>
      <point x="993" y="1.16341e-14" type="curve" smooth="yes"/>
      <point x="991" y="-1.16341e-14" type="line" smooth="yes"/>
      <point x="933.805" y="-4.62983e-15"/>
      <point x="896" y="37.8055"/>
      <point x="896" y="95" type="curve" smooth="yes"/>
      <point x="896" y="1352" type="line" smooth="yes"/>
      <point x="896" y="1366.41"/>
      <point x="886.407" y="1376"/>
      <point x="872" y="1376" type="curve" smooth="yes"/>
      <point x="207" y="1376" type="line" smooth="yes"/>
      <point x="159.438" y="1376"/>
      <point x="128" y="1407.44"/>
      <point x="128" y="1455" type="curve" smooth="yes"/>
      <point x="128" y="1457" type="line" smooth="yes"/>
      <point x="128" y="1504.56"/>
      <point x="159.438" y="1536"/>
      <point x="207" y="1536" type="curve" smooth="yes"/>
      <point x="1777" y="1536" type="line" smooth="yes"/>
      <point x="1824.56" y="1536"/>
      <point x="1856" y="1504.56"/>
      <point x="1856" y="1457" type="curve" smooth="yes"/>
    </contour>
  </outline>
</glyph>
<glyph name="U" format="1">
  <advance width="2120"/>
  <unicode hex="0055"/>
  <outline>
    <contour>
      <point x="328" y="885.061" type="line" smooth="yes"/>
      <point x="328" y="824.301"/>
      <point x="292.462" y="780.596"/>
      <point x="232.979" y="768.204" type="curve" smooth="yes"/>
      <point x="231.021" y="767.796" type="line" smooth="yes"/>
      <point x="176.796" y="756.499"/>
      <point x="136" y="789.672"/>
      <point x="136" y="845.061" type="curve" smooth="yes"/>
      <point x="136" y="1441" type="line" smooth="yes"/>
      <point x="136" y="1498.19"/>
      <point x="173.805" y="1536"/>
      <point x="231" y="1536" type="curve" smooth="yes"/>
      <point x="233" y="1536" type="line" smooth="yes"/>
      <point x="290.195" y="1536"/>
      <point x="328" y="1498.19"/>
      <point x="328" y="1441" type="curve" smooth="yes"/>
    </contour>
    <contour>
      <point x="309.399" y="784.125" type="line" smooth="yes"/>
      <point x="319.935" y="786.32"/>
      <point x="328" y="779.762"/>
      <point x="328" y="769" type="curve" smooth="yes"/>
      <point x="328" y="748" type="line" smooth="yes"/>
      <point x="328" y="181"/>
      <point x="404" y="134"/>
      <point x="879" y="134" type="curve" smooth="yes"/>
      <point x="1089" y="134" type="line" smooth="yes"/>
      <point x="1138.37" y="134"/>
      <point x="1171" y="101.368"/>
      <point x="1171" y="52" type="curve" smooth="yes"/>
      <point x="1171" y="50" type="line" smooth="yes"/>
      <point x="1171" y="0.63208"/>
      <point x="1138.37" y="-32"/>
      <point x="1089" y="-32" type="curve" smooth="yes"/>
      <point x="879" y="-32" type="line" smooth="yes"/>
      <point x="309.725" y="-32"/>
      <point x="151.844" y="76.9248"/>
      <point x="137.167" y="650.937" type="curve" smooth="yes"/>
      <point x="135.649" y="710.303"/>
      <point x="171.342" y="755.363"/>
      <point x="229.479" y="767.475" type="curve" smooth="yes"/>
    </contour>
    <contour>
      <point x="1887.02" y="768.204" type="line" smooth="yes"/>
      <point x="1827.54" y="780.596"/>
      <point x="1792" y="824.301"/>
      <point x="1792" y="885.061" type="curve" smooth="yes"/>
      <point x="1792" y="1441" type="line" smooth="yes"/>
      <point x="1792" y="1498.19"/>
      <point x="1829.81" y="1536"/>
      <point x="1887" y="1536" type="curve" smooth="yes"/>
      <point x="1889" y="1536" type="line" smooth="yes"/>
      <point x="1946.19" y="1536"/>
      <point x="1984" y="1498.19"/>
      <point x="1984" y="1441" type="curve" smooth="yes"/>
      <point x="1984" y="845.061" type="line" smooth="yes"/>
      <point x="1984" y="789.672"/>
      <point x="1943.2" y="756.499"/>
      <point x="1888.98" y="767.796" type="curve" smooth="yes"/>
    </contour>
    <contour>
      <point x="949" y="52" type="line" smooth="yes"/>
      <point x="949" y="101.368"/>
      <point x="981.632" y="134"/>
      <point x="1031" y="134" type="curve" smooth="yes"/>
      <point x="1241" y="134" type="line" smooth="yes"/>
      <point x="1716" y="134"/>
      <point x="1792" y="181"/>
      <point x="1792" y="748" type="curve" smooth="yes"/>
      <point x="1792" y="769" type="line" smooth="yes"/>
      <point x="1792" y="779.762"/>
      <point x="1800.06" y="786.32"/>
      <point x="1810.6" y="784.125" type="curve" smooth="yes"/>
      <point x="1890.52" y="767.475" type="line" smooth="yes"/>
      <point x="1948.66" y="755.363"/>
      <point x="1984.35" y="710.303"/>
      <point x="1982.83" y="650.937" type="curve" smooth="yes"/>
      <point x="1968.16" y="76.9248"/>
      <point x="1810.27" y="-32"/>
      <point x="1241" y="-32" type="curve" smooth="yes"/>
      <point x="1031" y="-32" type="line" smooth="yes"/>
      <point x="981.632" y="-32"/>
      <point x="949" y="0.63208"/>
      <point x="949" y="50" type="curve" smooth="yes"/>
    </contour>
  </outline>
</glyph>
<glyph name="V" format="1">
  <advance width="2048"/>
  <unicode hex="0056"/>
  <outline>
    <contour>
      <point x="1884" y="1536" type="line" smooth="yes"/>
      <point x="1935.18" y="1536"/>
      <point x="1960.75" y="1493.07"/>
      <point x="1936.37" y="1448.07" type="curve" smooth="yes"/>
      <point x="1199.63" y="87.9292" type="line" smooth="yes"/>
      <point x="1168.83" y="31.0737"/>
      <point x="1116.66" y="4.32784e-15"/>
      <point x="1052" y="1.22465e-14" type="curve" smooth="yes"/>
      <point x="996" y="-1.22465e-14" type="line" smooth="yes"/>
      <point x="931.339" y="-4.32784e-15"/>
      <point x="879.168" y="31.0737"/>
      <point x="848.372" y="87.9292" type="curve" smooth="yes"/>
      <point x="111.628" y="1448.07" type="line" smooth="yes"/>
      <point x="87.2518" y="1493.07"/>
      <point x="112.819" y="1536"/>
      <point x="164" y="1536" type="curve" smooth="yes"/>
      <point x="188" y="1536" type="line" smooth="yes"/>
      <point x="252.597" y="1536"/>
      <point x="304.401" y="1504.62"/>
      <point x="334.325" y="1447.38" type="curve" smooth="yes"/>
      <point x="1012.88" y="149.269" type="line" smooth="yes"/>
      <point x="1018.33" y="138.845"/>
      <point x="1029.67" y="138.845"/>
      <point x="1035.12" y="149.269" type="curve" smooth="yes"/>
      <point x="1713.67" y="1447.38" type="line" smooth="yes"/>
      <point x="1743.6" y="1504.62"/>
      <point x="1795.4" y="1536"/>
      <point x="1860" y="1536" type="curve" smooth="yes"/>
    </contour>
  </outline>
</glyph>
<glyph name="W" format="1">
  <advance width="3328"/>
  <unicode hex="0057"/>
  <outline>
    <contour>
      <point x="1708" y="1536" type="line" smooth="yes"/>
      <point x="1772.31" y="1536"/>
      <point x="1822.74" y="1503.5"/>
      <point x="1849.3" y="1444.93" type="curve" smooth="yes"/>
      <point x="2422.09" y="181.857" type="line" smooth="yes"/>
      <point x="2426.64" y="171.829"/>
      <point x="2437.25" y="171.881"/>
      <point x="2441.7" y="181.952" type="curve" smooth="yes"/>
      <point x="2999.58" y="1444.53" type="line" smooth="yes"/>
      <point x="3025.55" y="1503.31"/>
      <point x="3075.74" y="1536"/>
      <point x="3140" y="1536" type="curve" smooth="yes"/>
      <point x="3164" y="1536" type="line" smooth="yes"/>
      <point x="3216.68" y="1536"/>
      <point x="3244.28" y="1492.98"/>
      <point x="3222.33" y="1445.09" type="curve" smooth="yes"/>
      <point x="2601.67" y="90.9065" type="line" smooth="yes"/>
      <point x="2574.86" y="32.4202"/>
      <point x="2524.34" y="4.36749e-15"/>
      <point x="2460" y="1.22465e-14" type="curve" smooth="yes"/>
      <point x="2404" y="-1.22465e-14" type="line" smooth="yes"/>
      <point x="2339.69" y="-4.37088e-15"/>
      <point x="2289.29" y="32.5183"/>
      <point x="2262.78" y="91.1108" type="curve" smooth="yes"/>
      <point x="1705.89" y="1322.13" type="line" smooth="yes"/>
      <point x="1701.33" y="1332.21"/>
      <point x="1690.67" y="1332.21"/>
      <point x="1686.11" y="1322.13" type="curve" smooth="yes"/>
      <point x="1129.22" y="91.1108" type="line" smooth="yes"/>
      <point x="1102.71" y="32.5183"/>
      <point x="1052.31" y="4.37088e-15"/>
      <point x="988" y="1.22465e-14" type="curve" smooth="yes"/>
      <point x="932" y="-1.22465e-14" type="line" smooth="yes"/>
      <point x="867.487" y="-4.34591e-15"/>
      <point x="816.13" y="31.7406"/>
      <point x="787.279" y="89.4427" type="curve" smooth="yes"/>
      <point x="108.721" y="1446.56" type="line" smooth="yes"/>
      <point x="85.5017" y="1493"/>
      <point x="112.079" y="1536"/>
      <point x="164" y="1536" type="curve" smooth="yes"/>
      <point x="188" y="1536" type="line" smooth="yes"/>
      <point x="252.467" y="1536"/>
      <point x="303.593" y="1504.07"/>
      <point x="331.884" y="1446.14" type="curve" smooth="yes"/>
      <point x="949.468" y="181.566" type="line" smooth="yes"/>
      <point x="954.4" y="171.466"/>
      <point x="965.27" y="171.621"/>
      <point x="969.912" y="181.857" type="curve" smooth="yes"/>
      <point x="1542.7" y="1444.93" type="line" smooth="yes"/>
      <point x="1569.26" y="1503.5"/>
      <point x="1619.69" y="1536"/>
      <point x="1684" y="1536" type="curve" smooth="yes"/>
    </contour>
  </outline>
</glyph>
<glyph name="X" format="1">
  <advance width="2176"/>
  <unicode hex="0058"/>
  <outline>
    <contour>
      <point x="2037.56" y="66.7734" type="line" smooth="yes"/>
      <point x="2068.9" y="38.6646"/>
      <point x="2054.1" y="7.09121e-15"/>
      <point x="2012" y="1.22465e-14" type="curve" smooth="yes"/>
      <point x="1940" y="-1.22465e-14" type="line" smooth="yes"/>
      <point x="1875.34" y="-4.32806e-15"/>
      <point x="1813.69" y="23.5945"/>
      <point x="1765.55" y="66.7619" type="curve" smooth="yes"/>
      <point x="1092.87" y="669.977" type="line" smooth="yes"/>
      <point x="1081.9" y="679.81"/>
      <point x="1068.2" y="679.692"/>
      <point x="1057.41" y="669.672" type="curve" smooth="yes"/>
      <point x="409.29" y="68.0337" type="line" smooth="yes"/>
      <point x="361.846" y="23.9921"/>
      <point x="300.735" y="4.31872e-15"/>
      <point x="236" y="1.22465e-14" type="curve" smooth="yes"/>
      <point x="164" y="-1.22465e-14" type="line" smooth="yes"/>
      <point x="121.385" y="-7.0276e-15"/>
      <point x="106.067" y="39.0309"/>
      <point x="137.306" y="68.0161" type="curve" smooth="yes"/>
      <point x="919.406" y="793.676" type="line" smooth="yes"/>
      <point x="929.711" y="803.237"/>
      <point x="929.6" y="816.641"/>
      <point x="919.138" y="826.03" type="curve" smooth="yes"/>
      <point x="202.425" y="1469.21" type="line" smooth="yes"/>
      <point x="171.09" y="1497.33"/>
      <point x="185.897" y="1536"/>
      <point x="228" y="1536" type="curve" smooth="yes"/>
      <point x="300" y="1536" type="line" smooth="yes"/>
      <point x="364.663" y="1536"/>
      <point x="426.285" y="1512.38"/>
      <point x="474.385" y="1469.16" type="curve" smooth="yes"/>
      <point x="1052.15" y="950.04" type="line" smooth="yes"/>
      <point x="1063.1" y="940.198"/>
      <point x="1076.8" y="940.307"/>
      <point x="1087.6" y="950.321" type="curve" smooth="yes"/>
      <point x="1645.68" y="1467.99" type="line" smooth="yes"/>
      <point x="1693.14" y="1512.02"/>
      <point x="1754.27" y="1536"/>
      <point x="1819" y="1536" type="curve" smooth="yes"/>
      <point x="1891" y="1536" type="line" smooth="yes"/>
      <point x="1933.62" y="1536"/>
      <point x="1948.95" y="1496.96"/>
      <point x="1917.71" y="1467.96" type="curve" smooth="yes"/>
      <point x="1226.59" y="826.329" type="line" smooth="yes"/>
      <point x="1216.29" y="816.765"/>
      <point x="1216.4" y="803.361"/>
      <point x="1226.87" y="793.974" type="curve" smooth="yes"/>
    </contour>
  </outline>
</glyph>
<glyph name="Y" format="1">
  <advance width="2200"/>
  <unicode hex="0059"/>
  <outline>
    <contour>
      <point x="284" y="1536" type="line" smooth="yes"/>
      <point x="348.955" y="1536"/>
      <point x="407.951" y="1510.42"/>
      <point x="452.342" y="1463" type="curve" smooth="yes"/>
      <point x="1071.6" y="801.521" type="line" smooth="yes"/>
      <point x="1081.26" y="791.196"/>
      <point x="1094.74" y="791.196"/>
      <point x="1104.4" y="801.521" type="curve" smooth="yes"/>
      <point x="1723.66" y="1463" type="line" smooth="yes"/>
      <point x="1768.05" y="1510.42"/>
      <point x="1827.05" y="1536"/>
      <point x="1892" y="1536" type="curve" smooth="yes"/>
      <point x="1948" y="1536" type="line" smooth="yes"/>
      <point x="1992.32" y="1536"/>
      <point x="2009.35" y="1495.92"/>
      <point x="1978.59" y="1464.02" type="curve" smooth="yes"/>
      <point x="1200.66" y="657.276" type="line" smooth="yes"/>
      <point x="1189.86" y="646.08"/>
      <point x="1184" y="631.554"/>
      <point x="1184" y="616" type="curve" smooth="yes"/>
      <point x="1184" y="95" type="line" smooth="yes"/>
      <point x="1184" y="37.8055"/>
      <point x="1146.19" y="4.62983e-15"/>
      <point x="1089" y="1.16341e-14" type="curve" smooth="yes"/>
      <point x="1087" y="-1.16341e-14" type="line" smooth="yes"/>
      <point x="1029.81" y="-4.62983e-15"/>
      <point x="992" y="37.8055"/>
      <point x="992" y="95" type="curve" smooth="yes"/>
      <point x="992" y="616" type="line" smooth="yes"/>
      <point x="992" y="631.554"/>
      <point x="986.137" y="646.08"/>
      <point x="975.341" y="657.276" type="curve" smooth="yes"/>
      <point x="197.414" y="1464.02" type="line" smooth="yes"/>
      <point x="166.648" y="1495.92"/>
      <point x="183.678" y="1536"/>
      <point x="228" y="1536" type="curve" smooth="yes"/>
    </contour>
  </outline>
</glyph>
<glyph name="Z" format="1">
  <advance width="2046"/>
  <unicode hex="005A"/>
  <outline>
    <contour>
      <point x="128" y="81" type="line" smooth="yes"/>
      <point x="128" y="132.378"/>
      <point x="149.377" y="177.493"/>
      <point x="189.139" y="210.03" type="curve" smooth="yes"/>
      <point x="1595.43" y="1360.8" type="line" smooth="yes"/>
      <point x="1603.04" y="1367.03"/>
      <point x="1599.84" y="1376"/>
      <point x="1590" y="1376" type="curve" smooth="yes"/>
      <point x="271" y="1376" type="line" smooth="yes"/>
      <point x="223.438" y="1376"/>
      <point x="192" y="1407.44"/>
      <point x="192" y="1455" type="curve" smooth="yes"/>
      <point x="192" y="1457" type="line" smooth="yes"/>
      <point x="192" y="1504.56"/>
      <point x="223.438" y="1536"/>
      <point x="271" y="1536" type="curve" smooth="yes"/>
      <point x="1809" y="1536" type="line" smooth="yes"/>
      <point x="1856.56" y="1536"/>
      <point x="1888" y="1504.56"/>
      <point x="1888" y="1457" type="curve" smooth="yes"/>
      <point x="1888" y="1455" type="line" smooth="yes"/>
      <point x="1888" y="1403.62"/>
      <point x="1866.58" y="1358.56"/>
      <point x="1826.73" y="1326.13" type="curve" smooth="yes"/>
      <point x="412.614" y="175.15" type="line" smooth="yes"/>
      <point x="405.001" y="168.954"/>
      <point x="408.184" y="160"/>
      <point x="418" y="160" type="curve" smooth="yes"/>
      <point x="1841" y="160" type="line" smooth="yes"/>
      <point x="1888.56" y="160"/>
      <point x="1920" y="128.562"/>
      <point x="1920" y="81" type="curve" smooth="yes"/>
      <point x="1920" y="79" type="line" smooth="yes"/>
      <point x="1920" y="31.4382"/>
      <point x="1888.56" y="3.85007e-15"/>
      <point x="1841" y="9.67471e-15" type="curve" smooth="yes"/>
      <point x="207" y="-9.67471e-15" type="line" smooth="yes"/>
      <point x="159.438" y="-3.85007e-15"/>
      <point x="128" y="31.4382"/>
      <point x="128" y="79" type="curve" smooth="yes"/>
    </contour>
  </outline>
</glyph>
<glyph name="bracketleft" format="1">
  <advance width="832"/>
  <unicode hex="005B"/>
  <outline>
    <contour>
      <point x="625" y="1536" type="line" smooth="yes"/>
      <point x="672.562" y="1536"/>
      <point x="704" y="1504.56"/>
      <point x="704" y="1457" type="curve" smooth="yes"/>
      <point x="704" y="1455" type="line" smooth="yes"/>
      <point x="704" y="1407.44"/>
      <point x="672.562" y="1376"/>
      <point x="625" y="1376" type="curve" smooth="yes"/>
      <point x="344" y="1376" type="line" smooth="yes"/>
      <point x="329.593" y="1376"/>
      <point x="320" y="1366.41"/>
      <point x="320" y="1352" type="curve" smooth="yes"/>
      <point x="320" y="184" type="line" smooth="yes"/>
      <point x="320" y="169.593"/>
      <point x="329.593" y="160"/>
      <point x="344" y="160" type="curve" smooth="yes"/>
      <point x="625" y="160" type="line" smooth="yes"/>
      <point x="672.562" y="160"/>
      <point x="704" y="128.562"/>
      <point x="704" y="81" type="curve" smooth="yes"/>
      <point x="704" y="79" type="line" smooth="yes"/>
      <point x="704" y="31.4382"/>
      <point x="672.562" y="3.85007e-15"/>
      <point x="625" y="9.67471e-15" type="curve" smooth="yes"/>
      <point x="228" y="-1.22465e-14" type="line" smooth="yes"/>
      <point x="167.795" y="-4.87351e-15"/>
      <point x="128" y="39.7952"/>
      <point x="128" y="100" type="curve" smooth="yes"/>
      <point x="128" y="1436" type="line" smooth="yes"/>
      <point x="128" y="1496.2"/>
      <point x="167.795" y="1536"/>
      <point x="228" y="1536" type="curve" smooth="yes"/>
    </contour>
  </outline>
</glyph>
<glyph name="backslash" format="1">
  <advance width="1023"/>
  <unicode hex="005C"/>
  <outline>
    <contour>
      <point x="863" y="-1.16341e-14" type="line" smooth="yes"/>
      <point x="801.88" y="-4.14912e-15"/>
      <point x="753.884" y="30.7992"/>
      <point x="728.418" y="86.3612" type="curve" smooth="yes"/>
      <point x="103.582" y="1449.64" type="line" smooth="yes"/>
      <point x="82.7296" y="1495.14"/>
      <point x="108.952" y="1536"/>
      <point x="159" y="1536" type="curve" smooth="yes"/>
      <point x="161" y="1536" type="line" smooth="yes"/>
      <point x="222.12" y="1536"/>
      <point x="270.116" y="1505.2"/>
      <point x="295.582" y="1449.64" type="curve" smooth="yes"/>
      <point x="920.418" y="86.3612" type="line" smooth="yes"/>
      <point x="941.27" y="40.8646"/>
      <point x="915.048" y="5.50507e-15"/>
      <point x="865" y="1.16341e-14" type="curve" smooth="yes"/>
    </contour>
  </outline>
</glyph>
<glyph name="bracketright" format="1">
  <advance width="832"/>
  <unicode hex="005D"/>
  <outline>
    <contour>
      <point x="207" y="-9.67471e-15" type="line" smooth="yes"/>
      <point x="159.438" y="-3.85007e-15"/>
      <point x="128" y="31.4382"/>
      <point x="128" y="79" type="curve" smooth="yes"/>
      <point x="128" y="81" type="line" smooth="yes"/>
      <point x="128" y="128.562"/>
      <point x="159.438" y="160"/>
      <point x="207" y="160" type="curve" smooth="yes"/>
      <point x="488" y="160" type="line" smooth="yes"/>
      <point x="502.407" y="160"/>
      <point x="512" y="169.593"/>
      <point x="512" y="184" type="curve" smooth="yes"/>
      <point x="512" y="1352" type="line" smooth="yes"/>
      <point x="512" y="1366.41"/>
      <point x="502.407" y="1376"/>
      <point x="488" y="1376" type="curve" smooth="yes"/>
      <point x="207" y="1376" type="line" smooth="yes"/>
      <point x="159.438" y="1376"/>
      <point x="128" y="1407.44"/>
      <point x="128" y="1455" type="curve" smooth="yes"/>
      <point x="128" y="1457" type="line" smooth="yes"/>
      <point x="128" y="1504.56"/>
      <point x="159.438" y="1536"/>
      <point x="207" y="1536" type="curve" smooth="yes"/>
      <point x="604" y="1536" type="line" smooth="yes"/>
      <point x="664.205" y="1536"/>
      <point x="704" y="1496.2"/>
      <point x="704" y="1436" type="curve" smooth="yes"/>
      <point x="704" y="100" type="line" smooth="yes"/>
      <point x="704" y="39.7952"/>
      <point x="664.205" y="4.87351e-15"/>
      <point x="604" y="1.22465e-14" type="curve" smooth="yes"/>
    </contour>
  </outline>
</glyph>
<glyph name="asciicircum" format="1">
  <advance width="1088"/>
  <unicode hex="005E"/>
  <outline>
    <contour>
      <point x="236.756" y="961.099" type="line" smooth="yes"/>
      <point x="210.066" y="922.277"/>
      <point x="166.489" y="915.133"/>
      <point x="128.8" y="943.4" type="curve" smooth="yes"/>
      <point x="127.2" y="944.6" type="line" smooth="yes"/>
      <point x="88.9097" y="973.318"/>
      <point x="81.9563" y="1017.44"/>
      <point x="109.558" y="1056.54" type="curve" smooth="yes"/>
      <point x="393.215" y="1458.39" type="line" smooth="yes"/>
      <point x="428.822" y="1508.83"/>
      <point x="481.255" y="1536"/>
      <point x="543" y="1536" type="curve" smooth="yes"/>
      <point x="545" y="1536" type="line" smooth="yes"/>
      <point x="606.745" y="1536"/>
      <point x="659.178" y="1508.83"/>
      <point x="694.785" y="1458.39" type="curve" smooth="yes"/>
      <point x="978.442" y="1056.54" type="line" smooth="yes"/>
      <point x="1006.04" y="1017.44"/>
      <point x="999.09" y="973.318"/>
      <point x="960.8" y="944.6" type="curve" smooth="yes"/>
      <point x="959.2" y="943.4" type="line" smooth="yes"/>
      <point x="921.511" y="915.133"/>
      <point x="877.934" y="922.277"/>
      <point x="851.244" y="961.099" type="curve" smooth="yes"/>
      <point x="557.597" y="1388.22" type="line" smooth="yes"/>
      <point x="550.32" y="1398.81"/>
      <point x="537.68" y="1398.81"/>
      <point x="530.403" y="1388.22" type="curve" smooth="yes"/>
    </contour>
  </outline>
</glyph>
<glyph name="underscore" format="1">
  <advance width="1088"/>
  <unicode hex="005F"/>
  <outline>
    <contour>
      <point x="1009" y="0" type="line" smooth="yes"/>
      <point x="1056.56" y="0"/>
      <point x="1088" y="-31.4382"/>
      <point x="1088" y="-79" type="curve" smooth="yes"/>
      <point x="1088" y="-81" type="line" smooth="yes"/>
      <point x="1088" y="-128.562"/>
      <point x="1056.56" y="-160"/>
      <point x="1009" y="-160" type="curve" smooth="yes"/>
      <point x="79" y="-160" type="line" smooth="yes"/>
      <point x="31.4382" y="-160"/>
      <point x="1.92504e-15" y="-128.562"/>
      <point x="4.83735e-15" y="-81" type="curve" smooth="yes"/>
      <point x="-4.83735e-15" y="-79" type="line" smooth="yes"/>
      <point x="-1.92504e-15" y="-31.4382"/>
      <point x="31.4382" y="0"/>
      <point x="79" y="0" type="curve" smooth="yes"/>
    </contour>
  </outline>
</glyph>
<glyph name="grave" format="1">
  <advance width="960"/>
  <unicode hex="0060"/>
  <outline>
    <contour>
      <point x="200.53" y="1772.79" type="line" smooth="yes"/>
      <point x="233.073" y="1821.61"/>
      <point x="287.753" y="1829.54"/>
      <point x="332.822" y="1791.98" type="curve" smooth="yes"/>
      <point x="788.45" y="1412.29" type="line" smooth="yes"/>
      <point x="815.252" y="1389.96"/>
      <point x="819.907" y="1357.86"/>
      <point x="800.555" y="1328.83" type="curve" smooth="yes"/>
      <point x="799.445" y="1327.17" type="line" smooth="yes"/>
      <point x="780.318" y="1298.48"/>
      <point x="748.957" y="1291.43"/>
      <point x="719.39" y="1309.17" type="curve" smooth="yes"/>
      <point x="213.749" y="1612.55" type="line" smooth="yes"/>
      <point x="162.691" y="1643.19"/>
      <point x="150.441" y="1697.66"/>
      <point x="183.47" y="1747.21" type="curve" smooth="yes"/>
    </contour>
  </outline>
</glyph>
<glyph name="a" format="1">
  <advance width="1560"/>
  <unicode hex="0061"/>
  <outline>
    <contour>
      <point x="1291.65" y="486.538" type="curve" smooth="yes"/>
      <point x="1297.62" y="472.6"/>
      <point x="1289.84" y="457.651"/>
      <point x="1275.32" y="454.593" type="curve" smooth="yes"/>
      <point x="1271.54" y="453.797" type="line" smooth="yes"/>
      <point x="1255.92" y="450.509"/>
      <point x="1244.07" y="460.172"/>
      <point x="1244.16" y="476.13" type="curve" smooth="yes"/>
      <point x="1246.67" y="962.361"/>
      <point x="1234.01" y="1024"/>
      <point x="813" y="1024" type="curve" smooth="yes"/>
      <point x="522.273" y="1024"/>
      <point x="408.163" y="1009.06"/>
      <point x="367.771" y="944.879" type="curve" smooth="yes"/>
      <point x="313.469" y="858.596"/>
      <point x="301.524" y="852"/>
      <point x="214.317" y="852" type="curve"/>
      <point x="241.939" y="852" type="line"/>
      <point x="192.74" y="852"/>
      <point x="154.712" y="898.364"/>
      <point x="164.336" y="946.612" type="curve" smooth="yes"/>
      <point x="205.067" y="1150.79"/>
      <point x="398.214" y="1184"/>
      <point x="813" y="1184" type="curve" smooth="yes"/>
      <point x="1352" y="1184"/>
      <point x="1436" y="1037"/>
      <point x="1436" y="554" type="curve" smooth="yes"/>
      <point x="1436" y="95" type="line" smooth="yes"/>
      <point x="1436" y="37.8055"/>
      <point x="1398.19" y="4.62983e-15"/>
      <point x="1341" y="1.16341e-14" type="curve" smooth="yes"/>
      <point x="1339" y="-1.16341e-14" type="line" smooth="yes"/>
      <point x="1281.81" y="-4.62983e-15"/>
      <point x="1244" y="37.8055"/>
      <point x="1244" y="95" type="curve" smooth="yes"/>
      <point x="1244" y="199.169" type="line" smooth="yes"/>
      <point x="1244" y="213.037"/>
      <point x="1254.61" y="221.241"/>
      <point x="1268.03" y="217.752" type="curve" smooth="yes"/>
      <point x="1270.2" y="217.189" type="line" smooth="yes"/>
      <point x="1283.64" y="213.694"/>
      <point x="1289.28" y="201.079"/>
      <point x="1282.92" y="188.734" type="curve" smooth="yes"/>
      <point x="1204" y="35.467"/>
      <point x="1112.3" y="-22"/>
      <point x="736" y="-22" type="curve" smooth="yes"/>
      <point x="391" y="-22"/>
      <point x="129" y="13"/>
      <point x="129" y="321" type="curve" smooth="yes"/>
      <point x="129" y="634"/>
      <point x="352" y="669"/>
      <point x="736" y="669" type="curve" smooth="yes"/>
      <point x="1118.07" y="669"/>
      <point x="1248.4" y="587.63"/>
    </contour>
    <contour>
      <point x="1244" y="330" type="curve" smooth="yes"/>
      <point x="1244" y="504"/>
      <point x="1107" y="513"/>
      <point x="736" y="513" type="curve" smooth="yes"/>
      <point x="405" y="513"/>
      <point x="321" y="500"/>
      <point x="321" y="321" type="curve" smooth="yes"/>
      <point x="321" y="147"/>
      <point x="405" y="134"/>
      <point x="736" y="134" type="curve" smooth="yes"/>
      <point x="1107" y="134"/>
      <point x="1244" y="139"/>
    </contour>
  </outline>
</glyph>
<glyph name="c" format="1">
  <advance width="1571"/>
  <unicode hex="0063"/>
  <outline>
    <contour>
      <point x="721.987" y="1183.36" type="curve" smooth="yes"/>
      <point x="768.908" y="1184.18"/>
      <point x="801" y="1152.64"/>
      <point x="801" y="1105.74" type="curve" smooth="yes"/>
      <point x="801" y="1103.73" type="line" smooth="yes"/>
      <point x="801" y="1055.53"/>
      <point x="770.194" y="1024.21"/>
      <point x="722.003" y="1023.41" type="curve" smooth="yes"/>
      <point x="358.171" y="1017.39"/>
      <point x="297.307" y="961.275"/>
      <point x="289.125" y="677.002" type="curve" smooth="yes"/>
      <point x="287.44" y="618.467"/>
      <point x="249.909" y="582"/>
      <point x="191.391" y="582" type="curve" smooth="yes"/>
      <point x="188.554" y="582" type="line" smooth="yes"/>
      <point x="133.588" y="582"/>
      <point x="95.4713" y="622.109"/>
      <point x="98.2692" y="677.003" type="curve" smooth="yes"/>
      <point x="119.74" y="1098.25"/>
      <point x="295.823" y="1175.95"/>
    </contour>
    <contour>
      <point x="801" y="56.3155" type="line" smooth="yes"/>
      <point x="801" y="9.36839"/>
      <point x="768.927" y="-22.1759"/>
      <point x="721.987" y="-21.3963" type="curve" smooth="yes"/>
      <point x="295.489" y="-14.3123"/>
      <point x="119.464" y="60.6111"/>
      <point x="98.219" y="486.983" type="curve" smooth="yes"/>
      <point x="95.478" y="541.993"/>
      <point x="133.541" y="582"/>
      <point x="188.485" y="582" type="curve" smooth="yes"/>
      <point x="191.469" y="582" type="line" smooth="yes"/>
      <point x="249.928" y="582"/>
      <point x="287.464" y="545.491"/>
      <point x="289.085" y="487.054" type="curve" smooth="yes"/>
      <point x="297.108" y="197.836"/>
      <point x="357.572" y="144.227"/>
      <point x="721.96" y="138.552" type="curve" smooth="yes"/>
      <point x="770.16" y="137.801"/>
      <point x="801" y="106.477"/>
      <point x="801" y="58.3208" type="curve" smooth="yes"/>
    </contour>
    <contour>
      <point x="879.995" y="1023.48" type="curve" smooth="yes"/>
      <point x="831.878" y="1024.18"/>
      <point x="801" y="1055.51"/>
      <point x="801" y="1103.63" type="curve" smooth="yes"/>
      <point x="801" y="1105.69" type="line" smooth="yes"/>
      <point x="801" y="1152.64"/>
      <point x="833.012" y="1184.16"/>
      <point x="879.961" y="1183.43" type="curve" smooth="yes"/>
      <point x="1245.95" y="1177.74"/>
      <point x="1434.69" y="1125.96"/>
      <point x="1469.18" y="879.86" type="curve" smooth="yes"/>
      <point x="1476.06" y="830.776"/>
      <point x="1439.73" y="789"/>
      <point x="1390.92" y="789" type="curve"/>
      <point x="1398.68" y="789" type="line"/>
      <point x="1330.14" y="789"/>
      <point x="1298.83" y="813.193"/>
      <point x="1281.54" y="879.511" type="curve" smooth="yes"/>
      <point x="1252.29" y="991.691"/>
      <point x="1148.55" y="1019.56"/>
    </contour>
    <contour>
      <point x="880.023" y="-21.4589" type="curve" smooth="yes"/>
      <point x="832.997" y="-22.157"/>
      <point x="801" y="9.36865"/>
      <point x="801" y="56.3679" type="curve" smooth="yes"/>
      <point x="801" y="58.439" type="line" smooth="yes"/>
      <point x="801" y="106.504"/>
      <point x="831.889" y="137.825"/>
      <point x="879.95" y="138.493" type="curve" smooth="yes"/>
      <point x="1157.16" y="142.34"/>
      <point x="1256.86" y="170.758"/>
      <point x="1283.17" y="293.314" type="curve" smooth="yes"/>
      <point x="1297.08" y="358.12"/>
      <point x="1329.11" y="384"/>
      <point x="1393.64" y="384" type="curve"/>
      <point x="1389.67" y="384" type="line"/>
      <point x="1439.4" y="384"/>
      <point x="1475.98" y="342.487"/>
      <point x="1469.74" y="293.154" type="curve" smooth="yes"/>
      <point x="1437.1" y="35.285"/>
      <point x="1251.38" y="-15.9457"/>
    </contour>
  </outline>
</glyph>
<glyph name="d" format="1">
  <advance width="1638"/>
  <unicode hex="0064"/>
  <outline>
    <contour>
      <point x="1506" y="95" type="line" smooth="yes"/>
      <point x="1506" y="37.8055"/>
      <point x="1468.19" y="4.62983e-15"/>
      <point x="1411" y="1.16341e-14" type="curve" smooth="yes"/>
      <point x="1409" y="-1.16341e-14" type="line" smooth="yes"/>
      <point x="1351.81" y="-4.62983e-15"/>
      <point x="1314" y="37.8055"/>
      <point x="1314" y="95" type="curve" smooth="yes"/>
      <point x="1314" y="1441" type="line" smooth="yes"/>
      <point x="1314" y="1498.19"/>
      <point x="1351.81" y="1536"/>
      <point x="1409" y="1536" type="curve" smooth="yes"/>
      <point x="1411" y="1536" type="line" smooth="yes"/>
      <point x="1468.19" y="1536"/>
      <point x="1506" y="1498.19"/>
      <point x="1506" y="1441" type="curve" smooth="yes"/>
    </contour>
    <contour>
      <point x="801" y="1106.18" type="line" smooth="yes"/>
      <point x="801" y="1152.7"/>
      <point x="833.478" y="1184.29"/>
      <point x="879.979" y="1183" type="curve" smooth="yes"/>
      <point x="1229.79" y="1173.29"/>
      <point x="1401.38" y="1086.16"/>
      <point x="1412.43" y="630.456" type="curve" smooth="yes"/>
      <point x="1413.12" y="601.845"/>
      <point x="1393.75" y="582"/>
      <point x="1365.13" y="582" type="curve" smooth="yes"/>
      <point x="1363.02" y="582" type="line" smooth="yes"/>
      <point x="1333.35" y="582"/>
      <point x="1314.14" y="600.823"/>
      <point x="1313.54" y="630.49" type="curve" smooth="yes"/>
      <point x="1307.01" y="953.262"/>
      <point x="1228.01" y="1016.3"/>
      <point x="879.989" y="1023.29" type="curve" smooth="yes"/>
      <point x="831.666" y="1024.26"/>
      <point x="801" y="1055.54"/>
      <point x="801" y="1103.87" type="curve" smooth="yes"/>
    </contour>
    <contour>
      <point x="879.979" y="-21.0469" type="curve" smooth="yes"/>
      <point x="833.43" y="-22.2825"/>
      <point x="801" y="9.2979"/>
      <point x="801" y="55.8567" type="curve" smooth="yes"/>
      <point x="801" y="58.163" type="line" smooth="yes"/>
      <point x="801" y="106.453"/>
      <point x="831.715" y="137.755"/>
      <point x="879.997" y="138.668" type="curve" smooth="yes"/>
      <point x="1228.26" y="145.252"/>
      <point x="1307.12" y="205.494"/>
      <point x="1313.55" y="533.492" type="curve" smooth="yes"/>
      <point x="1314.13" y="563.162"/>
      <point x="1333.35" y="582"/>
      <point x="1363" y="582" type="curve" smooth="yes"/>
      <point x="1365.11" y="582" type="line" smooth="yes"/>
      <point x="1393.75" y="582"/>
      <point x="1413.12" y="562.164"/>
      <point x="1412.44" y="533.536" type="curve" smooth="yes"/>
      <point x="1401.51" y="72.5018"/>
      <point x="1229.93" y="-11.7581"/>
    </contour>
    <contour>
      <point x="721.987" y="1183.36" type="curve" smooth="yes"/>
      <point x="768.908" y="1184.18"/>
      <point x="801" y="1152.64"/>
      <point x="801" y="1105.74" type="curve" smooth="yes"/>
      <point x="801" y="1103.73" type="line" smooth="yes"/>
      <point x="801" y="1055.53"/>
      <point x="770.194" y="1024.21"/>
      <point x="722.003" y="1023.41" type="curve" smooth="yes"/>
      <point x="358.171" y="1017.39"/>
      <point x="297.307" y="961.275"/>
      <point x="289.125" y="677.002" type="curve" smooth="yes"/>
      <point x="287.44" y="618.467"/>
      <point x="249.909" y="582"/>
      <point x="191.391" y="582" type="curve" smooth="yes"/>
      <point x="188.554" y="582" type="line" smooth="yes"/>
      <point x="133.588" y="582"/>
      <point x="95.4713" y="622.109"/>
      <point x="98.2692" y="677.003" type="curve" smooth="yes"/>
      <point x="119.74" y="1098.25"/>
      <point x="295.823" y="1175.95"/>
    </contour>
    <contour>
      <point x="801" y="56.3155" type="line" smooth="yes"/>
      <point x="801" y="9.36839"/>
      <point x="768.927" y="-22.1759"/>
      <point x="721.987" y="-21.3963" type="curve" smooth="yes"/>
      <point x="295.489" y="-14.3123"/>
      <point x="119.464" y="60.6111"/>
      <point x="98.219" y="486.983" type="curve" smooth="yes"/>
      <point x="95.478" y="541.993"/>
      <point x="133.541" y="582"/>
      <point x="188.485" y="582" type="curve" smooth="yes"/>
      <point x="191.469" y="582" type="line" smooth="yes"/>
      <point x="249.928" y="582"/>
      <point x="287.464" y="545.491"/>
      <point x="289.085" y="487.054" type="curve" smooth="yes"/>
      <point x="297.108" y="197.836"/>
      <point x="357.572" y="144.227"/>
      <point x="721.96" y="138.552" type="curve" smooth="yes"/>
      <point x="770.16" y="137.801"/>
      <point x="801" y="106.477"/>
      <point x="801" y="58.3208" type="curve" smooth="yes"/>
    </contour>
  </outline>
</glyph>
<glyph name="e" format="1">
  <advance width="1564"/>
  <unicode hex="0065"/>
  <outline>
    <contour>
      <point x="713.963" y="1183.36" type="curve" smooth="yes"/>
      <point x="760.906" y="1184.18"/>
      <point x="793" y="1152.64"/>
      <point x="793" y="1105.74" type="curve" smooth="yes"/>
      <point x="793" y="1103.73" type="line" smooth="yes"/>
      <point x="793" y="1055.53"/>
      <point x="762.197" y="1024.21"/>
      <point x="714.004" y="1023.41" type="curve" smooth="yes"/>
      <point x="350.991" y="1017.38"/>
      <point x="296.038" y="961.254"/>
      <point x="288.951" y="676.997" type="curve" smooth="yes"/>
      <point x="287.496" y="618.648"/>
      <point x="249.923" y="582"/>
      <point x="191.582" y="582" type="curve" smooth="yes"/>
      <point x="188.636" y="582" type="line" smooth="yes"/>
      <point x="133.591" y="582"/>
      <point x="95.4849" y="622.018"/>
      <point x="98.1783" y="676.998" type="curve" smooth="yes"/>
      <point x="118.814" y="1098.22"/>
      <point x="288.57" y="1175.94"/>
    </contour>
    <contour>
      <point x="798" y="56.2908" type="line" smooth="yes"/>
      <point x="798" y="9.35854"/>
      <point x="765.937" y="-22.1762"/>
      <point x="719.011" y="-21.3963" type="curve" smooth="yes"/>
      <point x="292.779" y="-14.3123"/>
      <point x="119.121" y="60.6111"/>
      <point x="98.1857" y="486.983" type="curve" smooth="yes"/>
      <point x="95.4831" y="542.024"/>
      <point x="133.545" y="582"/>
      <point x="188.52" y="582" type="curve" smooth="yes"/>
      <point x="191.543" y="582" type="line" smooth="yes"/>
      <point x="249.935" y="582"/>
      <point x="287.484" y="545.426"/>
      <point x="289.022" y="487.054" type="curve" smooth="yes"/>
      <point x="296.64" y="197.836"/>
      <point x="354.884" y="144.227"/>
      <point x="718.989" y="138.552" type="curve" smooth="yes"/>
      <point x="767.16" y="137.801"/>
      <point x="798" y="106.477"/>
      <point x="798" y="58.3203" type="curve" smooth="yes"/>
    </contour>
    <contour>
      <point x="1348.5" y="597" type="line" smooth="yes"/>
      <point x="1297.02" y="597"/>
      <point x="1263" y="631.025"/>
      <point x="1263" y="682.5" type="curve" smooth="yes"/>
      <point x="1263" y="770" type="line" smooth="yes"/>
      <point x="1263" y="959.173"/>
      <point x="1210.9" y="1016.35"/>
      <point x="872.002" y="1023.26" type="curve" smooth="yes"/>
      <point x="823.653" y="1024.24"/>
      <point x="793" y="1055.53"/>
      <point x="793" y="1103.87" type="curve" smooth="yes"/>
      <point x="793" y="1105.95" type="line" smooth="yes"/>
      <point x="793" y="1152.66"/>
      <point x="825.275" y="1184.21"/>
      <point x="871.973" y="1183.17" type="curve" smooth="yes"/>
      <point x="1260.28" y="1174.47"/>
      <point x="1447" y="1093.77"/>
      <point x="1447" y="770" type="curve" smooth="yes"/>
      <point x="1447" y="682.5" type="line" smooth="yes"/>
      <point x="1447" y="631.025"/>
      <point x="1412.98" y="597"/>
      <point x="1361.5" y="597" type="curve" smooth="yes"/>
    </contour>
    <contour>
      <point x="876.989" y="-21.7126" type="curve" smooth="yes"/>
      <point x="829.754" y="-22.1105"/>
      <point x="798" y="9.37674"/>
      <point x="798" y="56.6142" type="curve" smooth="yes"/>
      <point x="798" y="58.6372" type="line" smooth="yes"/>
      <point x="798" y="106.521"/>
      <point x="829.07" y="137.878"/>
      <point x="876.952" y="138.317" type="curve" smooth="yes"/>
      <point x="1144.42" y="140.771"/>
      <point x="1233.95" y="159.263"/>
      <point x="1259.27" y="253.925" type="curve" smooth="yes"/>
      <point x="1276.8" y="319.443"/>
      <point x="1306.18" y="342"/>
      <point x="1371.33" y="342" type="curve"/>
      <point x="1364.3" y="342" type="line"/>
      <point x="1412.46" y="342"/>
      <point x="1448.02" y="301.439"/>
      <point x="1441.73" y="253.69" type="curve" smooth="yes"/>
      <point x="1409.84" y="11.7498"/>
      <point x="1232.08" y="-18.7213"/>
    </contour>
    <contour>
      <point x="1447" y="597.5" type="line" smooth="yes"/>
      <point x="1447" y="552.647"/>
      <point x="1417.35" y="523"/>
      <point x="1372.5" y="523" type="curve" smooth="yes"/>
      <point x="272.5" y="523" type="line" smooth="yes"/>
      <point x="227.647" y="523"/>
      <point x="198" y="552.647"/>
      <point x="198" y="597.5" type="curve" smooth="yes"/>
      <point x="198" y="599.5" type="line" smooth="yes"/>
      <point x="198" y="644.353"/>
      <point x="227.647" y="674"/>
      <point x="272.5" y="674" type="curve" smooth="yes"/>
      <point x="1372.5" y="674" type="line" smooth="yes"/>
      <point x="1417.35" y="674"/>
      <point x="1447" y="644.353"/>
      <point x="1447" y="599.5" type="curve" smooth="yes"/>
    </contour>
  </outline>
</glyph>
<glyph name="f" format="1">
  <advance width="1056"/>
  <unicode hex="0066"/>
  <outline>
    <contour>
      <point x="512" y="95" type="line" smooth="yes"/>
      <point x="512" y="37.8055"/>
      <point x="474.195" y="4.62983e-15"/>
      <point x="417" y="1.16341e-14" type="curve" smooth="yes"/>
      <point x="415" y="-1.16341e-14" type="line" smooth="yes"/>
      <point x="357.805" y="-4.62983e-15"/>
      <point x="320" y="37.8055"/>
      <point x="320" y="95" type="curve" smooth="yes"/>
      <point x="320" y="982" type="line" smooth="yes"/>
      <point x="320" y="996.407"/>
      <point x="310.407" y="1006"/>
      <point x="296" y="1006" type="curve" smooth="yes"/>
      <point x="200" y="1006" type="line" smooth="yes"/>
      <point x="156.653" y="1006"/>
      <point x="128" y="1034.65"/>
      <point x="128" y="1078" type="curve" smooth="yes"/>
      <point x="128" y="1080" type="line" smooth="yes"/>
      <point x="128" y="1123.35"/>
      <point x="156.653" y="1152"/>
      <point x="200" y="1152" type="curve" smooth="yes"/>
      <point x="296" y="1152" type="line" smooth="yes"/>
      <point x="310.407" y="1152"/>
      <point x="320" y="1161.59"/>
      <point x="320" y="1176" type="curve" smooth="yes"/>
      <point x="320" y="1202" type="line" smooth="yes"/>
      <point x="320" y="1530"/>
      <point x="474" y="1608"/>
      <point x="833" y="1608" type="curve" smooth="yes"/>
      <point x="979" y="1608" type="line" smooth="yes"/>
      <point x="1025.36" y="1608"/>
      <point x="1056" y="1577.36"/>
      <point x="1056" y="1531" type="curve" smooth="yes"/>
      <point x="1056" y="1529" type="line" smooth="yes"/>
      <point x="1056" y="1482.64"/>
      <point x="1025.36" y="1452"/>
      <point x="979" y="1452" type="curve" smooth="yes"/>
      <point x="832" y="1452" type="line" smooth="yes"/>
      <point x="546" y="1452"/>
      <point x="512" y="1415"/>
      <point x="512" y="1202" type="curve" smooth="yes"/>
      <point x="512" y="1176" type="line" smooth="yes"/>
      <point x="512" y="1161.59"/>
      <point x="521.593" y="1152"/>
      <point x="536" y="1152" type="curve" smooth="yes"/>
      <point x="984" y="1152" type="line" smooth="yes"/>
      <point x="1027.35" y="1152"/>
      <point x="1056" y="1123.35"/>
      <point x="1056" y="1080" type="curve" smooth="yes"/>
      <point x="1056" y="1078" type="line" smooth="yes"/>
      <point x="1056" y="1034.65"/>
      <point x="1027.35" y="1006"/>
      <point x="984" y="1006" type="curve" smooth="yes"/>
      <point x="536" y="1006" type="line" smooth="yes"/>
      <point x="521.593" y="1006"/>
      <point x="512" y="996.407"/>
      <point x="512" y="982" type="curve" smooth="yes"/>
    </contour>
  </outline>
</glyph>
<glyph name="g" format="1">
  <advance width="1632"/>
  <unicode hex="0067"/>
  <outline>
    <contour>
      <point x="1450" y="272" type="line" smooth="yes"/>
      <point x="1482.51" y="272"/>
      <point x="1504" y="250.511"/>
      <point x="1504" y="218" type="curve" smooth="yes"/>
      <point x="1504" y="162" type="line" smooth="yes"/>
      <point x="1504" y="-375"/>
      <point x="1242" y="-433"/>
      <point x="823" y="-433" type="curve" smooth="yes"/>
      <point x="503.625" y="-433"/>
      <point x="235.547" y="-420.75"/>
      <point x="173.518" y="-226.09" type="curve" smooth="yes"/>
      <point x="158.711" y="-179.623"/>
      <point x="194.249" y="-131"/>
      <point x="238.217" y="-131" type="curve"/>
      <point x="148.296" y="-131" type="line"/>
      <point x="305.403" y="-131"/>
      <point x="268.507" y="-117.574"/>
      <point x="388.875" y="-218.541" type="curve" smooth="yes"/>
      <point x="453.173" y="-272.475"/>
      <point x="600.545" y="-273"/>
      <point x="823" y="-273" type="curve" smooth="yes"/>
      <point x="1145" y="-273"/>
      <point x="1312" y="-276"/>
      <point x="1312" y="130" type="curve" smooth="yes"/>
      <point x="1312" y="202" type="line" smooth="yes"/>
      <point x="1312" y="244.143"/>
      <point x="1339.86" y="272"/>
      <point x="1382" y="272" type="curve" smooth="yes"/>
    </contour>
    <contour>
      <point x="1504" y="217" type="line" smooth="yes"/>
      <point x="1504" y="159.805"/>
      <point x="1466.19" y="122"/>
      <point x="1409" y="122" type="curve" smooth="yes"/>
      <point x="1407" y="122" type="line" smooth="yes"/>
      <point x="1349.81" y="122"/>
      <point x="1312" y="159.805"/>
      <point x="1312" y="217" type="curve" smooth="yes"/>
      <point x="1312" y="1057" type="line" smooth="yes"/>
      <point x="1312" y="1114.19"/>
      <point x="1349.81" y="1152"/>
      <point x="1407" y="1152" type="curve" smooth="yes"/>
      <point x="1409" y="1152" type="line" smooth="yes"/>
      <point x="1466.19" y="1152"/>
      <point x="1504" y="1114.19"/>
      <point x="1504" y="1057" type="curve" smooth="yes"/>
    </contour>
    <contour>
      <point x="799" y="1106.16" type="line" smooth="yes"/>
      <point x="799" y="1152.7"/>
      <point x="831.454" y="1184.29"/>
      <point x="877.979" y="1183.02" type="curve" smooth="yes"/>
      <point x="1227.79" y="1173.54"/>
      <point x="1399.38" y="1088.05"/>
      <point x="1410.43" y="632.45" type="curve" smooth="yes"/>
      <point x="1411.12" y="603.843"/>
      <point x="1391.76" y="584"/>
      <point x="1363.14" y="584" type="curve" smooth="yes"/>
      <point x="1361.08" y="584" type="line" smooth="yes"/>
      <point x="1331.37" y="584"/>
      <point x="1312.14" y="602.843"/>
      <point x="1311.54" y="632.546" type="curve" smooth="yes"/>
      <point x="1305" y="955.114"/>
      <point x="1225.99" y="1016.54"/>
      <point x="877.984" y="1023.31" type="curve" smooth="yes"/>
      <point x="829.689" y="1024.25"/>
      <point x="799" y="1055.54"/>
      <point x="799" y="1103.85" type="curve" smooth="yes"/>
    </contour>
    <contour>
      <point x="877.979" y="7.21082" type="curve" smooth="yes"/>
      <point x="831.664" y="5.68379"/>
      <point x="799" y="37.2889"/>
      <point x="799" y="83.6068" type="curve" smooth="yes"/>
      <point x="799" y="85.9039" type="line" smooth="yes"/>
      <point x="799" y="134.441"/>
      <point x="829.475" y="165.693"/>
      <point x="877.997" y="166.914" type="curve" smooth="yes"/>
      <point x="1223.95" y="175.619"/>
      <point x="1304.06" y="249.969"/>
      <point x="1311.42" y="535.465" type="curve" smooth="yes"/>
      <point x="1312.18" y="565.31"/>
      <point x="1331.36" y="584"/>
      <point x="1361.16" y="584" type="curve" smooth="yes"/>
      <point x="1363.17" y="584" type="line" smooth="yes"/>
      <point x="1391.73" y="584"/>
      <point x="1411.14" y="564.024"/>
      <point x="1410.32" y="535.476" type="curve" smooth="yes"/>
      <point x="1398.34" y="117.62"/>
      <point x="1226.73" y="18.7094"/>
    </contour>
    <contour>
      <point x="719.987" y="1183.38" type="curve" smooth="yes"/>
      <point x="766.923" y="1184.18"/>
      <point x="799" y="1152.64"/>
      <point x="799" y="1105.72" type="curve" smooth="yes"/>
      <point x="799" y="1103.7" type="line" smooth="yes"/>
      <point x="799" y="1055.53"/>
      <point x="768.174" y="1024.2"/>
      <point x="720.003" y="1023.43" type="curve" smooth="yes"/>
      <point x="356.171" y="1017.6"/>
      <point x="295.307" y="962.958"/>
      <point x="287.125" y="678.959" type="curve" smooth="yes"/>
      <point x="285.44" y="620.465"/>
      <point x="247.91" y="584"/>
      <point x="189.391" y="584" type="curve" smooth="yes"/>
      <point x="186.53" y="584" type="line" smooth="yes"/>
      <point x="131.579" y="584"/>
      <point x="93.4706" y="624.101"/>
      <point x="96.2692" y="678.981" type="curve" smooth="yes"/>
      <point x="117.74" y="1100.02"/>
      <point x="293.823" y="1176.14"/>
    </contour>
    <contour>
      <point x="799" y="84.1534" type="line" smooth="yes"/>
      <point x="799" y="37.3642"/>
      <point x="766.766" y="5.79655"/>
      <point x="719.987" y="6.77415" type="curve" smooth="yes"/>
      <point x="296.442" y="15.6255"/>
      <point x="119.913" y="104.625"/>
      <point x="96.6825" y="489.053" type="curve" smooth="yes"/>
      <point x="93.3896" y="543.545"/>
      <point x="131.474" y="584"/>
      <point x="185.945" y="584" type="curve" smooth="yes"/>
      <point x="188.844" y="584" type="line" smooth="yes"/>
      <point x="247.797" y="584"/>
      <point x="285.229" y="547.96"/>
      <point x="287.461" y="489.049" type="curve" smooth="yes"/>
      <point x="296.896" y="240.14"/>
      <point x="360.774" y="174.254"/>
      <point x="719.973" y="166.759" type="curve" smooth="yes"/>
      <point x="768.365" y="165.749"/>
      <point x="799" y="134.468"/>
      <point x="799" y="86.1095" type="curve" smooth="yes"/>
    </contour>
  </outline>
</glyph>
<glyph name="h" format="1">
  <advance width="1601"/>
  <unicode hex="0068"/>
  <outline>
    <contour>
      <point x="1284" y="640" type="line" smooth="yes"/>
      <point x="1284" y="955"/>
      <point x="1185" y="1024"/>
      <point x="836" y="1024" type="curve" smooth="yes"/>
      <point x="436" y="1024"/>
      <point x="324" y="930"/>
      <point x="324" y="704" type="curve" smooth="yes"/>
      <point x="324" y="95" type="line" smooth="yes"/>
      <point x="324" y="37.8055"/>
      <point x="286.195" y="4.62983e-15"/>
      <point x="229" y="1.16341e-14" type="curve" smooth="yes"/>
      <point x="227" y="-1.16341e-14" type="line" smooth="yes"/>
      <point x="169.805" y="-4.62983e-15"/>
      <point x="132" y="37.8055"/>
      <point x="132" y="95" type="curve" smooth="yes"/>
      <point x="132" y="1441" type="line" smooth="yes"/>
      <point x="132" y="1498.19"/>
      <point x="169.805" y="1536"/>
      <point x="227" y="1536" type="curve" smooth="yes"/>
      <point x="229" y="1536" type="line" smooth="yes"/>
      <point x="286.195" y="1536"/>
      <point x="324" y="1498.19"/>
      <point x="324" y="1441" type="curve" smooth="yes"/>
      <point x="324" y="950.182" type="line" smooth="yes"/>
      <point x="324" y="941.478"/>
      <point x="316.132" y="939.719"/>
      <point x="312.426" y="947.595" type="curve" smooth="yes"/>
      <point x="311.175" y="950.253" type="line" smooth="yes"/>
      <point x="303.983" y="965.536"/>
      <point x="305.426" y="982.755"/>
      <point x="315.062" y="996.627" type="curve" smooth="yes"/>
      <point x="401.242" y="1120.7"/>
      <point x="512.143" y="1184"/>
      <point x="870" y="1184" type="curve" smooth="yes"/>
      <point x="1322" y="1184"/>
      <point x="1477" y="1054"/>
      <point x="1477" y="640" type="curve"/>
      <point x="1476.15" y="94.9999" type="line" smooth="yes"/>
      <point x="1476.06" y="37.7854"/>
      <point x="1438.21" y="4.62739e-15"/>
      <point x="1381" y="1.16341e-14" type="curve" smooth="yes"/>
      <point x="1379" y="-1.16341e-14" type="line" smooth="yes"/>
      <point x="1321.81" y="-4.62983e-15"/>
      <point x="1284" y="37.8055"/>
      <point x="1284" y="95" type="curve" smooth="yes"/>
    </contour>
  </outline>
</glyph>
<glyph name="i" format="1">
  <advance width="576"/>
  <unicode hex="0069"/>
  <outline>
    <contour>
      <point x="289" y="1152" type="line" smooth="yes"/>
      <point x="346.195" y="1152"/>
      <point x="384" y="1114.19"/>
      <point x="384" y="1057" type="curve" smooth="yes"/>
      <point x="384" y="95" type="line" smooth="yes"/>
      <point x="384" y="37.8055"/>
      <point x="346.195" y="4.62983e-15"/>
      <point x="289" y="1.16341e-14" type="curve" smooth="yes"/>
      <point x="287" y="-1.16341e-14" type="line" smooth="yes"/>
      <point x="229.805" y="-4.62983e-15"/>
      <point x="192" y="37.8055"/>
      <point x="192" y="95" type="curve" smooth="yes"/>
      <point x="192" y="1057" type="line" smooth="yes"/>
      <point x="192" y="1114.19"/>
      <point x="229.805" y="1152"/>
      <point x="287" y="1152" type="curve" smooth="yes"/>
    </contour>
    <contour>
      <point x="287" y="1344" type="line" smooth="yes"/>
      <point x="229.805" y="1344"/>
      <point x="192" y="1381.81"/>
      <point x="192" y="1439" type="curve" smooth="yes"/>
      <point x="192" y="1441" type="line" smooth="yes"/>
      <point x="192" y="1498.19"/>
      <point x="229.805" y="1536"/>
      <point x="287" y="1536" type="curve" smooth="yes"/>
      <point x="289" y="1536" type="line" smooth="yes"/>
      <point x="346.195" y="1536"/>
      <point x="384" y="1498.19"/>
      <point x="384" y="1441" type="curve" smooth="yes"/>
      <point x="384" y="1439" type="line" smooth="yes"/>
      <point x="384" y="1381.81"/>
      <point x="346.195" y="1344"/>
      <point x="289" y="1344" type="curve" smooth="yes"/>
    </contour>
  </outline>
</glyph>
<glyph name="j" format="1">
  <advance width="672"/>
  <unicode hex="006A"/>
  <outline>
    <contour>
      <point x="-37" y="-295.5" type="line" smooth="yes"/>
      <point x="-37" y="-252.454"/>
      <point x="-8.54642" y="-224"/>
      <point x="34.5" y="-224" type="curve" smooth="yes"/>
      <point x="108" y="-224" type="line" smooth="yes"/>
      <point x="237" y="-224"/>
      <point x="288" y="-193"/>
      <point x="288" y="-24" type="curve" smooth="yes"/>
      <point x="288" y="1057" type="line" smooth="yes"/>
      <point x="288" y="1114.19"/>
      <point x="325.805" y="1152"/>
      <point x="383" y="1152" type="curve" smooth="yes"/>
      <point x="385" y="1152" type="line" smooth="yes"/>
      <point x="442.195" y="1152"/>
      <point x="480" y="1114.19"/>
      <point x="480" y="1057" type="curve" smooth="yes"/>
      <point x="480" y="-24" type="line" smooth="yes"/>
      <point x="480" y="-266"/>
      <point x="382" y="-384"/>
      <point x="108" y="-384" type="curve" smooth="yes"/>
      <point x="34.5" y="-384" type="line" smooth="yes"/>
      <point x="-8.54642" y="-384"/>
      <point x="-37" y="-355.546"/>
      <point x="-37" y="-312.5" type="curve" smooth="yes"/>
    </contour>
    <contour>
      <point x="383" y="1344" type="line" smooth="yes"/>
      <point x="325.805" y="1344"/>
      <point x="288" y="1381.81"/>
      <point x="288" y="1439" type="curve" smooth="yes"/>
      <point x="288" y="1441" type="line" smooth="yes"/>
      <point x="288" y="1498.19"/>
      <point x="325.805" y="1536"/>
      <point x="383" y="1536" type="curve" smooth="yes"/>
      <point x="385" y="1536" type="line" smooth="yes"/>
      <point x="442.195" y="1536"/>
      <point x="480" y="1498.19"/>
      <point x="480" y="1441" type="curve" smooth="yes"/>
      <point x="480" y="1439" type="line" smooth="yes"/>
      <point x="480" y="1381.81"/>
      <point x="442.195" y="1344"/>
      <point x="385" y="1344" type="curve" smooth="yes"/>
    </contour>
  </outline>
</glyph>
<glyph name="k" format="1">
  <advance width="1408"/>
  <unicode hex="006B"/>
  <outline>
    <contour>
      <point x="225" y="1536" type="line" smooth="yes"/>
      <point x="282.195" y="1536"/>
      <point x="320" y="1498.19"/>
      <point x="320" y="1441" type="curve" smooth="yes"/>
      <point x="320" y="602.382" type="line" smooth="yes"/>
      <point x="320" y="581.732"/>
      <point x="302.596" y="571.298"/>
      <point x="284.382" y="581.029" type="curve" smooth="yes"/>
      <point x="282.618" y="581.971" type="line" smooth="yes"/>
      <point x="264.455" y="591.675"/>
      <point x="263.536" y="611.872"/>
      <point x="280.742" y="623.186" type="curve" smooth="yes"/>
      <point x="1001.44" y="1097.06" type="line" smooth="yes"/>
      <point x="1054.58" y="1132"/>
      <point x="1121.41" y="1152"/>
      <point x="1185" y="1152" type="curve" smooth="yes"/>
      <point x="1276" y="1152" type="line" smooth="yes"/>
      <point x="1313.32" y="1152"/>
      <point x="1323.82" y="1117.27"/>
      <point x="1292.75" y="1096.59" type="curve" smooth="yes"/>
      <point x="530.048" y="588.985" type="line" smooth="yes"/>
      <point x="509.492" y="575.304"/>
      <point x="488.501" y="586.812"/>
      <point x="488.981" y="611.5" type="curve" smooth="yes"/>
      <point x="489.019" y="613.5" type="line" smooth="yes"/>
      <point x="489.499" y="638.187"/>
      <point x="510.919" y="648.869"/>
      <point x="530.926" y="634.398" type="curve" smooth="yes"/>
      <point x="1326.97" y="58.607" type="line" smooth="yes"/>
      <point x="1358.31" y="35.9426"/>
      <point x="1346.67" y="7.51053e-15"/>
      <point x="1308" y="1.22465e-14" type="curve" smooth="yes"/>
      <point x="1222" y="-1.22465e-14" type="line" smooth="yes"/>
      <point x="1157.94" y="-4.40124e-15"/>
      <point x="1093.07" y="21.3234"/>
      <point x="1041.5" y="59.3325" type="curve" smooth="yes"/>
      <point x="281.155" y="619.773" type="line" smooth="yes"/>
      <point x="265.665" y="631.191"/>
      <point x="267.342" y="650.053"/>
      <point x="284.603" y="658.558" type="curve" smooth="yes"/>
      <point x="286.397" y="659.442" type="line" smooth="yes"/>
      <point x="303.827" y="668.031"/>
      <point x="320" y="657.97"/>
      <point x="320" y="638.539" type="curve" smooth="yes"/>
      <point x="320" y="95" type="line" smooth="yes"/>
      <point x="320" y="37.8055"/>
      <point x="282.195" y="4.62983e-15"/>
      <point x="225" y="1.16341e-14" type="curve" smooth="yes"/>
      <point x="223" y="-1.16341e-14" type="line" smooth="yes"/>
      <point x="165.805" y="-4.62983e-15"/>
      <point x="128" y="37.8055"/>
      <point x="128" y="95" type="curve" smooth="yes"/>
      <point x="128" y="1441" type="line" smooth="yes"/>
      <point x="128" y="1498.19"/>
      <point x="165.805" y="1536"/>
      <point x="223" y="1536" type="curve" smooth="yes"/>
    </contour>
  </outline>
</glyph>
<glyph name="l" format="1">
  <advance width="576"/>
  <unicode hex="006C"/>
  <outline>
    <contour>
      <point x="289" y="1536" type="line" smooth="yes"/>
      <point x="346.195" y="1536"/>
      <point x="384" y="1498.19"/>
      <point x="384" y="1441" type="curve" smooth="yes"/>
      <point x="384" y="95" type="line" smooth="yes"/>
      <point x="384" y="37.8055"/>
      <point x="346.195" y="4.62983e-15"/>
      <point x="289" y="1.16341e-14" type="curve" smooth="yes"/>
      <point x="287" y="-1.16341e-14" type="line" smooth="yes"/>
      <point x="229.805" y="-4.62983e-15"/>
      <point x="192" y="37.8055"/>
      <point x="192" y="95" type="curve" smooth="yes"/>
      <point x="192" y="1441" type="line" smooth="yes"/>
      <point x="192" y="1498.19"/>
      <point x="229.805" y="1536"/>
      <point x="287" y="1536" type="curve" smooth="yes"/>
    </contour>
  </outline>
</glyph>
